<svg xmlns="http://www.w3.org/2000/svg" xmlns:xlink="http://www.w3.org/1999/xlink" viewBox="0 0 128 128"><defs><style>.cls-1,.cls-10,.cls-11,.cls-19,.cls-2,.cls-21,.cls-23,.cls-25,.cls-4,.cls-5,.cls-6,.cls-7{fill:none;}.cls-10,.cls-2{stroke:#231f20;}.cls-2{stroke-width:0.5px;}.cls-3{fill:#c64035;}.cls-4,.cls-5,.cls-6,.cls-7{stroke:#c59d5c;}.cls-4,.cls-5,.cls-7{stroke-linecap:round;stroke-linejoin:round;}.cls-4{stroke-width:2.5px;stroke-dasharray:0.25 10;}.cls-5,.cls-6{stroke-width:1.8px;}.cls-11,.cls-7{stroke-width:1.5px;}.cls-8{fill:#c59d5c;}.cls-9{fill:#dfc8a3;}.cls-10,.cls-11{stroke-linecap:square;}.cls-10{stroke-width:0.3px;}.cls-11{stroke:#74cdd5;}.cls-12{fill:#13bdc8;}.cls-13{isolation:isolate;}.cls-14,.cls-20,.cls-21,.cls-23,.cls-25,.cls-26,.cls-27{stroke:#000;}.cls-14,.cls-19,.cls-20,.cls-21,.cls-23,.cls-25,.cls-26,.cls-27{stroke-miterlimit:10;}.cls-14{fill:url(#Peruvian_Color);}.cls-15{fill:url(#Sky);}.cls-16{opacity:0.15;fill:url(#radial-gradient);}.cls-16,.cls-17,.cls-18,.cls-19{mix-blend-mode:screen;}.cls-17{opacity:0.5;fill:url(#radial-gradient-2);}.cls-18{fill:url(#radial-gradient-3);}.cls-19{stroke:#fff;stroke-width:2px;opacity:0.03;}.cls-20{fill:url(#Waves_Smooth_Color);}.cls-22{fill:url(#Burlap);}.cls-23{stroke-width:0.75px;}.cls-24{fill:url(#USGS_8_Sewage_Disposal);}.cls-25,.cls-26{stroke-width:0.25px;}.cls-26{fill:lime;}.cls-28{fill:#fff;}.cls-29{fill:red;}</style><pattern id="Peruvian_Color" data-name="Peruvian Color" width="79.2" height="98.3" patternUnits="userSpaceOnUse" viewBox="0 0 79.2 98.31"><rect class="cls-1" width="79.2" height="98.3"/><rect class="cls-3" x="79.03" y="98.19" width="79.49" height="98.42"/><rect class="cls-3" x="-0.18" y="98.19" width="79.49" height="98.42"/><rect class="cls-3" x="-79.38" y="98.19" width="79.49" height="98.42"/><rect class="cls-3" x="79.03" y="-0.12" width="79.49" height="98.42"/><rect class="cls-3" x="-0.18" y="-0.12" width="79.49" height="98.42"/><path class="cls-4" d="M35.6,3c-0.2,5.93.61,9.31,2.92,10.62C42.86,16,42,38,38.52,38.15s-4.51,22,0,24.58c4.33,2.44,3.44,24.41,0,24.58-1.62.08-2.73,5.34-2.92,11"/><path class="cls-4" d="M47,84.5c-0.5,2.61-.67,3.76-1.65,3.8-1.52.07-2.6,4.73-2.88,10"/><path class="cls-4" d="M42.38,3c-0.2,5.93.61,9.31,2.92,10.62C49.63,16,48.75,38,45.3,38.15s-4.51,22,0,24.58c1,0.57,1.74,2.21,2.22,4.38"/><path class="cls-4" d="M50.21,92.22a31.82,31.82,0,0,0-.92,5.67"/><path class="cls-4" d="M49.19,3c-0.31,5.82.47,9.25,2.9,10.62,4.33,2.44,3.44,24.41,0,24.58-1.66.08-2.79,5.63-2.94,11.46"/><path class="cls-4" d="M57.08,93.12a32.27,32.27,0,0,0-.91,5.43"/><path class="cls-4" d="M56,3c-0.29,5.84.5,9.27,2.9,10.62C63.2,16,62.31,38,58.86,38.15c-1.66.08-2.79,5.63-2.93,11.46"/><path class="cls-4" d="M63.7,93.25a30.07,30.07,0,0,0-.89,5.33"/><path class="cls-4" d="M62.76,3c-0.3,5.83.48,9.26,2.88,10.61C70,16,69.08,38,65.64,38.15c-1.67.08-2.8,5.65-2.94,11.49"/><path class="cls-4" d="M71.08,61.25c0.47,1.53.52,2,1.35,2.48,4.33,2.44,3.25,26.36-.2,26.53-1.43.07-2.44,3.84-2.74,8.31"/><path class="cls-4" d="M69.5,3c-0.2,5.93.61,9.32,2.92,10.62,4.33,2.44,3.44,24.41,0,24.58-1.64.08-2.77,5.5-2.93,11.25"/><path class="cls-4" d="M76.28,2.94c-0.21,5.94.6,9.33,2.92,10.64C83.53,16,82.65,38,79.2,38.15s-4.51,22,0,24.58c4.33,2.44,3.45,24.41,0,24.58-1.62.08-2.73,5.34-2.92,11"/><line class="cls-5" x1="21.18" y1="6.36" x2="21.18" y2="29.93"/><polyline class="cls-6" points="27.09 34.62 27.09 39.3 32.7 39.3 32.7 44.28"/><polyline class="cls-6" points="15.33 34.62 15.33 39.3 9.71 39.3 9.71 44.28"/><path class="cls-7" d="M47.91,50.36s1.46,0.15,2.25.15c7.5,0,13.68.16,20.53-.25-0.25,13.78.23,27.54-.21,41.31-4.52-.53-9-0.15-13.56-0.16-0.35,0-1.22-.3-1.59-0.26a30.94,30.94,0,0,1-7.52,0c0-2.49-.36-5-0.38-7.42C47.36,72.58,47.28,61.69,47.91,50.36Z"/><path class="cls-8" d="M53.71,61.35a8.58,8.58,0,0,1,1.39.07,8.25,8.25,0,0,0,1.69,0c0,0.62,0,1.24-.05,1.85A5.7,5.7,0,0,0,55,63.2a10,10,0,0,0,0,2.33,7.29,7.29,0,0,1-1.43-.05C53.79,64.1,53.48,62.71,53.71,61.35Z"/><path class="cls-8" d="M63,75.49h1.38a1,1,0,0,0-.09.53c0.07,1,.19,2,0.17,3,0,0.21-.07.42-0.08,0.64-0.13,0-.25-0.07-0.37-0.08a16,16,0,0,1-1.63,0,3.27,3.27,0,0,0-1.12-.05,5.78,5.78,0,0,1,0-1.52,0.74,0.74,0,0,1,.29,0c0.48-.09,1,0.31,1.33,0a1.47,1.47,0,0,0,.16-1.42C63,76.18,63.12,75.84,63,75.49Z"/><path class="cls-9" d="M59.11,66.75c0.49,0.64,1.26.92,1.8,1.54,0.72,0.83,1.45,1.58,2.17,2.38a3.75,3.75,0,0,0-.71.6c-1.06,1.19-2.33,2.05-3.26,3.31-0.27-.32-0.65-0.51-0.93-0.82-0.78-.83-1.43-1.7-2.25-2.46a2,2,0,0,1-.68-0.6,0.94,0.94,0,0,1,.59-0.81,10.59,10.59,0,0,0,2.3-2,2.22,2.22,0,0,1,.93-0.92C59.24,66.88,59.1,66.81,59.11,66.75Z"/><polygon class="cls-8" points="21.18 29.93 27.43 34.62 14.92 34.62 21.18 29.93"/><polygon class="cls-8" points="21.18 15.04 27.43 10.36 14.92 10.36 21.18 15.04"/><rect class="cls-8" x="16.75" y="5.33" width="8.86" height="2.06"/><polygon class="cls-8" points="32.7 43.94 35.64 46.13 29.77 46.13 32.7 43.94"/><polygon class="cls-8" points="9.71 43.94 12.64 46.13 6.78 46.13 9.71 43.94"/><path class="cls-9" d="M68.3,87.06q-3.13,0-6.25-.08c-0.18,0-.35.16-0.53,0.16-4,.08-7.9-0.33-11.86-0.19,0-5.76,0-11.51.05-17.27a74.16,74.16,0,0,0-.19-10.18,13.86,13.86,0,0,1,.35-5.08c6.22-.16,12.43-0.06,18.64,0a26.64,26.64,0,0,0,.15,3.71C68.76,67.79,68.45,77.42,68.3,87.06Zm-7-23.91a8.9,8.9,0,0,0,1.7.11v2.33a7.31,7.31,0,0,1,1.48,0c-0.13-1.41,0-2.83-.11-4.24H61.28v1.8ZM56.73,78.08c-0.57,0-1.13.08-1.7,0.05a13.39,13.39,0,0,1,0-2.38s0-.12.1-0.11l-0.21.05c-0.34.1-.7-0.12-1.11,0,0,0-.12.1-0.11,0-0.14,1.38.06,2.75-.05,4.13a25.13,25.13,0,0,1,3.07.11A13.36,13.36,0,0,1,56.73,78.08Zm10.58,4.11c0-.19-0.33-0.35-0.34-0.54a21.34,21.34,0,0,1,.34-5.51,10.45,10.45,0,0,0-.11-1.9,17.73,17.73,0,0,1,.15-3.6h-2.5c-0.22-.25-0.56-0.37-0.8-0.62-1.68-1.75-3.23-3.48-4.94-5.12l-0.21.2c0-.06,0-0.11,0-0.17s0.32-.06.33-0.12c0.44-3-.33-5.92,0-8.89H50.93a19,19,0,0,1,.18,3.71,29.36,29.36,0,0,0-.37,4.66,19.07,19.07,0,0,1,.09,6.36,11.5,11.5,0,0,1,2.82-.21,1.17,1.17,0,0,0-.16.2,0.6,0.6,0,0,0,.29.5,29.07,29.07,0,0,0,2.45,2.63c0.3,0.27.63,0.49,0.92,0.78,0.53,0.53,1.06,1,1.57,1.55,0,1,.07,2.09.1,3.12A44.91,44.91,0,0,0,59,85.37c2.79-.1,5.58.22,8.37,0.11A29.63,29.63,0,0,0,67.31,82.19Z"/><rect class="cls-3" x="-79.38" y="-0.12" width="79.49" height="98.42"/><path class="cls-4" d="M-2.92,2.94c-0.21,5.94.6,9.33,2.92,10.64C4.33,16,3.45,38,0,38.15s-4.51,22,0,24.58C4.33,65.17,3.45,87.14,0,87.3c-1.62.08-2.73,5.34-2.92,11"/><path class="cls-4" d="M35.6-95.35c-0.2,5.93.61,9.31,2.92,10.62,4.33,2.44,3.44,24.41,0,24.58s-4.51,22,0,24.58c4.33,2.44,3.44,24.41,0,24.58-1.62.08-2.73,5.34-2.92,11"/><path class="cls-4" d="M47-13.8c-0.5,2.61-.67,3.76-1.65,3.8-1.52.07-2.6,4.73-2.88,10"/><path class="cls-4" d="M50.21-6.08A31.82,31.82,0,0,0,49.3-.41"/><path class="cls-4" d="M57.08-5.18A32.27,32.27,0,0,0,56.17.25"/><path class="cls-4" d="M63.7-5.05A30.07,30.07,0,0,0,62.81.28"/><path class="cls-4" d="M71.08-37.05c0.47,1.53.52,2,1.35,2.48,4.33,2.44,3.25,26.36-.2,26.53C70.79-8,69.79-4.21,69.48.26"/><path class="cls-4" d="M76.28-95.37c-0.21,5.94.6,9.33,2.92,10.64,4.33,2.44,3.45,24.41,0,24.58s-4.51,22,0,24.58c4.33,2.44,3.45,24.41,0,24.58-1.62.08-2.73,5.34-2.92,11"/><path class="cls-4" d="M-2.92-95.37C-3.13-89.43-2.31-86,0-84.73c4.33,2.44,3.45,24.41,0,24.58s-4.51,22,0,24.58C4.33-33.14,3.45-11.16,0-11c-1.62.08-2.73,5.34-2.92,11"/></pattern><linearGradient id="Sky" x1="88.88" y1="10.58" x2="91.46" y2="10.58" gradientUnits="userSpaceOnUse"><stop offset="0" stop-color="#cce0f4"/><stop offset="0.06" stop-color="#c3dcf2"/><stop offset="0.17" stop-color="#a9d2ee"/><stop offset="0.31" stop-color="#80c2e7"/><stop offset="0.46" stop-color="#47acde"/><stop offset="0.57" stop-color="#1e9cd7"/><stop offset="0.87" stop-color="#0075be"/><stop offset="0.99" stop-color="#005b97"/></linearGradient><radialGradient id="radial-gradient" cx="90.57" cy="11.07" r="1.11" gradientUnits="userSpaceOnUse"><stop offset="0" stop-color="#230000"/><stop offset="0.73" stop-color="#93432a"/><stop offset="1" stop-color="#230000"/></radialGradient><radialGradient id="radial-gradient-2" cx="90.57" cy="11.07" r="0.55" gradientUnits="userSpaceOnUse"><stop offset="0.15" stop-color="#fff"/><stop offset="0.21" stop-color="#e2d1d2"/><stop offset="0.29" stop-color="#bf9a9c"/><stop offset="0.36" stop-color="#a67276"/><stop offset="0.42" stop-color="#975a5e"/><stop offset="0.45" stop-color="#915155"/><stop offset="0.56" stop-color="#6c3638"/><stop offset="0.68" stop-color="#44191a"/><stop offset="0.79" stop-color="#2c0707"/><stop offset="0.85" stop-color="#230000"/><stop offset="0.86" stop-color="#270201"/><stop offset="0.86" stop-color="#340805"/><stop offset="0.87" stop-color="#48120b"/><stop offset="0.88" stop-color="#652114"/><stop offset="0.89" stop-color="#8b331f"/><stop offset="0.9" stop-color="#b8492d"/><stop offset="0.9" stop-color="#d65836"/><stop offset="0.9" stop-color="#c95232"/><stop offset="0.91" stop-color="#9d3c25"/><stop offset="0.93" stop-color="#782a1a"/><stop offset="0.94" stop-color="#591b10"/><stop offset="0.95" stop-color="#410f09"/><stop offset="0.97" stop-color="#300604"/><stop offset="0.98" stop-color="#260201"/><stop offset="1" stop-color="#230000"/></radialGradient><radialGradient id="radial-gradient-3" cx="90.57" cy="11.07" r="0.46" gradientUnits="userSpaceOnUse"><stop offset="0.15" stop-color="#fff"/><stop offset="0.28" stop-color="#c2c2c2"/><stop offset="0.43" stop-color="#888"/><stop offset="0.56" stop-color="#575757"/><stop offset="0.69" stop-color="#313131"/><stop offset="0.81" stop-color="#161616"/><stop offset="0.92" stop-color="#060606"/><stop offset="1"/></radialGradient><pattern id="Waves_Smooth_Color" data-name="Waves Smooth Color" width="109.13" height="103.21" patternUnits="userSpaceOnUse" viewBox="0 0 109.13 103.22"><rect class="cls-1" width="109.13" height="103.21"/><path class="cls-11" d="M218.25,96.5a46.59,46.59,0,0,1-13.64-2.13,44.78,44.78,0,0,0-27.28,0,44.79,44.79,0,0,1-27.28,0,44.78,44.78,0,0,0-27.28,0,46.61,46.61,0,0,1-13.64,2.13"/><path class="cls-11" d="M218.25,100.8a46.59,46.59,0,0,1-13.64-2.13,44.78,44.78,0,0,0-27.28,0,44.79,44.79,0,0,1-27.28,0,44.78,44.78,0,0,0-27.28,0,46.61,46.61,0,0,1-13.64,2.13"/><path class="cls-11" d="M218.25,105.1A46.59,46.59,0,0,1,204.61,103a44.78,44.78,0,0,0-27.28,0A44.79,44.79,0,0,1,150,103a44.78,44.78,0,0,0-27.28,0,46.61,46.61,0,0,1-13.64,2.13"/><rect class="cls-12" y="90.31" width="109.13" height="25.8"/><path class="cls-11" d="M109.13,96.5a46.59,46.59,0,0,1-13.64-2.13,44.78,44.78,0,0,0-27.28,0A46.59,46.59,0,0,1,54.56,96.5a46.59,46.59,0,0,1-13.64-2.13,46.59,46.59,0,0,0-13.64-2.13,46.58,46.58,0,0,0-13.64,2.13A46.61,46.61,0,0,1,0,96.5"/><path class="cls-11" d="M109.13,100.8a46.59,46.59,0,0,1-13.64-2.13,44.78,44.78,0,0,0-27.28,0,46.59,46.59,0,0,1-13.64,2.13,46.59,46.59,0,0,1-13.64-2.13,46.59,46.59,0,0,0-13.64-2.13,46.58,46.58,0,0,0-13.64,2.13A46.61,46.61,0,0,1,0,100.8"/><path class="cls-11" d="M109.13,105.1A46.59,46.59,0,0,1,95.48,103a44.78,44.78,0,0,0-27.28,0,46.59,46.59,0,0,1-13.64,2.13A46.59,46.59,0,0,1,40.92,103a46.62,46.62,0,0,0-13.64-2.13A46.61,46.61,0,0,0,13.64,103,46.61,46.61,0,0,1,0,105.1"/><path class="cls-11" d="M0,96.5a46.59,46.59,0,0,1-13.64-2.13,46.58,46.58,0,0,0-13.64-2.13,46.6,46.6,0,0,0-13.64,2.13A46.59,46.59,0,0,1-54.56,96.5,46.59,46.59,0,0,1-68.2,94.37a46.59,46.59,0,0,0-13.64-2.13,46.58,46.58,0,0,0-13.64,2.13,46.61,46.61,0,0,1-13.64,2.13"/><path class="cls-11" d="M0,100.8a46.59,46.59,0,0,1-13.64-2.13,46.58,46.58,0,0,0-13.64-2.13,46.6,46.6,0,0,0-13.64,2.13,46.59,46.59,0,0,1-13.64,2.13A46.59,46.59,0,0,1-68.2,98.68a46.59,46.59,0,0,0-13.64-2.13,46.58,46.58,0,0,0-13.64,2.13,46.61,46.61,0,0,1-13.64,2.13"/><path class="cls-11" d="M0,105.1A46.59,46.59,0,0,1-13.64,103a46.61,46.61,0,0,0-13.64-2.13A46.63,46.63,0,0,0-40.92,103a46.59,46.59,0,0,1-13.64,2.13A46.59,46.59,0,0,1-68.2,103a46.62,46.62,0,0,0-13.64-2.13A46.61,46.61,0,0,0-95.48,103a46.61,46.61,0,0,1-13.64,2.13"/><path class="cls-11" d="M218.25,83.6a46.59,46.59,0,0,1-13.64-2.13,44.78,44.78,0,0,0-27.28,0,44.77,44.77,0,0,1-27.28,0,44.78,44.78,0,0,0-27.28,0,46.61,46.61,0,0,1-13.64,2.13"/><path class="cls-11" d="M218.25,87.9a46.62,46.62,0,0,1-13.64-2.13,44.78,44.78,0,0,0-27.28,0,44.79,44.79,0,0,1-27.28,0,44.78,44.78,0,0,0-27.28,0,46.64,46.64,0,0,1-13.64,2.13"/><path class="cls-11" d="M218.25,92.2a46.59,46.59,0,0,1-13.64-2.13,44.78,44.78,0,0,0-27.28,0,44.79,44.79,0,0,1-27.28,0,44.78,44.78,0,0,0-27.28,0,46.61,46.61,0,0,1-13.64,2.13"/><path class="cls-11" d="M218.25,70.7a46.59,46.59,0,0,1-13.64-2.13,44.78,44.78,0,0,0-27.28,0,44.79,44.79,0,0,1-27.28,0,44.78,44.78,0,0,0-27.28,0,46.61,46.61,0,0,1-13.64,2.13"/><path class="cls-11" d="M218.25,75a46.59,46.59,0,0,1-13.64-2.13,44.78,44.78,0,0,0-27.28,0,44.79,44.79,0,0,1-27.28,0,44.78,44.78,0,0,0-27.28,0A46.61,46.61,0,0,1,109.13,75"/><path class="cls-11" d="M218.25,79.3a46.59,46.59,0,0,1-13.64-2.13,44.78,44.78,0,0,0-27.28,0,44.79,44.79,0,0,1-27.28,0,44.78,44.78,0,0,0-27.28,0,46.61,46.61,0,0,1-13.64,2.13"/><rect class="cls-12" y="64.51" width="109.13" height="25.8"/><path class="cls-11" d="M109.13,83.6a46.59,46.59,0,0,1-13.64-2.13,44.78,44.78,0,0,0-27.28,0A46.55,46.55,0,0,1,54.56,83.6a46.59,46.59,0,0,1-13.64-2.13,46.62,46.62,0,0,0-13.64-2.13,46.61,46.61,0,0,0-13.64,2.13A46.61,46.61,0,0,1,0,83.6"/><path class="cls-11" d="M109.13,87.9a46.62,46.62,0,0,1-13.64-2.13,44.78,44.78,0,0,0-27.28,0A46.62,46.62,0,0,1,54.56,87.9a46.62,46.62,0,0,1-13.64-2.13,46.59,46.59,0,0,0-13.64-2.13,46.58,46.58,0,0,0-13.64,2.13A46.64,46.64,0,0,1,0,87.9"/><path class="cls-11" d="M109.13,92.2a46.59,46.59,0,0,1-13.64-2.13,44.78,44.78,0,0,0-27.28,0A46.59,46.59,0,0,1,54.56,92.2a46.59,46.59,0,0,1-13.64-2.13,46.59,46.59,0,0,0-13.64-2.13,46.58,46.58,0,0,0-13.64,2.13A46.61,46.61,0,0,1,0,92.2"/><path class="cls-11" d="M109.13,70.7a46.59,46.59,0,0,1-13.64-2.13,44.78,44.78,0,0,0-27.28,0A46.59,46.59,0,0,1,54.56,70.7a46.59,46.59,0,0,1-13.64-2.13,46.59,46.59,0,0,0-13.64-2.13,46.58,46.58,0,0,0-13.64,2.13A46.61,46.61,0,0,1,0,70.7"/><path class="cls-11" d="M109.13,75a46.59,46.59,0,0,1-13.64-2.13,44.78,44.78,0,0,0-27.28,0A46.59,46.59,0,0,1,54.56,75a46.59,46.59,0,0,1-13.64-2.13,46.59,46.59,0,0,0-13.64-2.13,46.57,46.57,0,0,0-13.64,2.13A46.61,46.61,0,0,1,0,75"/><path class="cls-11" d="M109.13,79.3a46.59,46.59,0,0,1-13.64-2.13,44.78,44.78,0,0,0-27.28,0A46.59,46.59,0,0,1,54.56,79.3a46.59,46.59,0,0,1-13.64-2.13A46.62,46.62,0,0,0,27.28,75a46.61,46.61,0,0,0-13.64,2.13A46.61,46.61,0,0,1,0,79.3"/><path class="cls-11" d="M0,83.6a46.59,46.59,0,0,1-13.64-2.13,46.61,46.61,0,0,0-13.64-2.13,46.63,46.63,0,0,0-13.64,2.13A46.55,46.55,0,0,1-54.56,83.6,46.59,46.59,0,0,1-68.2,81.47a46.62,46.62,0,0,0-13.64-2.13,46.61,46.61,0,0,0-13.64,2.13,46.61,46.61,0,0,1-13.64,2.13"/><path class="cls-11" d="M0,87.9a46.62,46.62,0,0,1-13.64-2.13,46.58,46.58,0,0,0-13.64-2.13,46.6,46.6,0,0,0-13.64,2.13A46.62,46.62,0,0,1-54.56,87.9,46.62,46.62,0,0,1-68.2,85.77a46.59,46.59,0,0,0-13.64-2.13,46.58,46.58,0,0,0-13.64,2.13,46.64,46.64,0,0,1-13.64,2.13"/><path class="cls-11" d="M0,92.2a46.59,46.59,0,0,1-13.64-2.13,46.58,46.58,0,0,0-13.64-2.13,46.6,46.6,0,0,0-13.64,2.13A46.59,46.59,0,0,1-54.56,92.2,46.59,46.59,0,0,1-68.2,90.08a46.59,46.59,0,0,0-13.64-2.13,46.58,46.58,0,0,0-13.64,2.13,46.61,46.61,0,0,1-13.64,2.13"/><path class="cls-11" d="M0,70.7a46.59,46.59,0,0,1-13.64-2.13,46.58,46.58,0,0,0-13.64-2.13,46.6,46.6,0,0,0-13.64,2.13A46.59,46.59,0,0,1-54.56,70.7,46.59,46.59,0,0,1-68.2,68.57a46.59,46.59,0,0,0-13.64-2.13,46.58,46.58,0,0,0-13.64,2.13,46.61,46.61,0,0,1-13.64,2.13"/><path class="cls-11" d="M0,75a46.59,46.59,0,0,1-13.64-2.13,46.58,46.58,0,0,0-13.64-2.13,46.6,46.6,0,0,0-13.64,2.13A46.59,46.59,0,0,1-54.56,75,46.59,46.59,0,0,1-68.2,72.87a46.59,46.59,0,0,0-13.64-2.13,46.57,46.57,0,0,0-13.64,2.13A46.61,46.61,0,0,1-109.12,75"/><path class="cls-11" d="M0,79.3a46.59,46.59,0,0,1-13.64-2.13A46.61,46.61,0,0,0-27.28,75a46.63,46.63,0,0,0-13.64,2.13A46.59,46.59,0,0,1-54.56,79.3,46.59,46.59,0,0,1-68.2,77.17,46.62,46.62,0,0,0-81.84,75a46.61,46.61,0,0,0-13.64,2.13,46.61,46.61,0,0,1-13.64,2.13"/><path class="cls-11" d="M218.25,57.8a46.59,46.59,0,0,1-13.64-2.13,44.78,44.78,0,0,0-27.28,0,44.77,44.77,0,0,1-27.28,0,44.78,44.78,0,0,0-27.28,0,46.61,46.61,0,0,1-13.64,2.13"/><path class="cls-11" d="M218.25,62.1A46.63,46.63,0,0,1,204.61,60a44.78,44.78,0,0,0-27.28,0A44.79,44.79,0,0,1,150,60a44.78,44.78,0,0,0-27.28,0,46.64,46.64,0,0,1-13.64,2.13"/><path class="cls-11" d="M218.25,66.4a46.59,46.59,0,0,1-13.64-2.13,44.78,44.78,0,0,0-27.28,0,44.79,44.79,0,0,1-27.28,0,44.78,44.78,0,0,0-27.28,0,46.61,46.61,0,0,1-13.64,2.13"/><path class="cls-11" d="M218.25,44.9a46.59,46.59,0,0,1-13.64-2.13,44.78,44.78,0,0,0-27.28,0,46.59,46.59,0,0,1-13.64,2.13A46.59,46.59,0,0,1,150,42.77a44.78,44.78,0,0,0-27.28,0,46.61,46.61,0,0,1-13.64,2.13"/><path class="cls-11" d="M218.25,49.2a46.59,46.59,0,0,1-13.64-2.13,44.78,44.78,0,0,0-27.28,0,44.79,44.79,0,0,1-27.28,0,44.78,44.78,0,0,0-27.28,0,46.61,46.61,0,0,1-13.64,2.13"/><path class="cls-11" d="M218.25,53.5a46.59,46.59,0,0,1-13.64-2.13,44.78,44.78,0,0,0-27.28,0,44.79,44.79,0,0,1-27.28,0,44.78,44.78,0,0,0-27.28,0,46.61,46.61,0,0,1-13.64,2.13"/><rect class="cls-12" y="38.71" width="109.13" height="25.8"/><path class="cls-11" d="M109.13,57.8a46.59,46.59,0,0,1-13.64-2.13,44.78,44.78,0,0,0-27.28,0A46.55,46.55,0,0,1,54.56,57.8a46.59,46.59,0,0,1-13.64-2.13,46.62,46.62,0,0,0-13.64-2.13,46.61,46.61,0,0,0-13.64,2.13A46.61,46.61,0,0,1,0,57.8"/><path class="cls-11" d="M109.13,62.1A46.63,46.63,0,0,1,95.48,60,44.78,44.78,0,0,0,68.2,60,46.62,46.62,0,0,1,54.56,62.1,46.63,46.63,0,0,1,40.92,60a46.59,46.59,0,0,0-13.64-2.13A46.58,46.58,0,0,0,13.64,60,46.64,46.64,0,0,1,0,62.1"/><path class="cls-11" d="M109.13,66.4a46.59,46.59,0,0,1-13.64-2.13,44.78,44.78,0,0,0-27.28,0A46.59,46.59,0,0,1,54.56,66.4a46.59,46.59,0,0,1-13.64-2.13,46.59,46.59,0,0,0-13.64-2.13,46.58,46.58,0,0,0-13.64,2.13A46.61,46.61,0,0,1,0,66.4"/><path class="cls-11" d="M109.13,44.9a46.59,46.59,0,0,1-13.64-2.13,44.78,44.78,0,0,0-27.28,0A46.59,46.59,0,0,1,54.56,44.9a46.59,46.59,0,0,1-13.64-2.13,46.59,46.59,0,0,0-13.64-2.13,46.57,46.57,0,0,0-13.64,2.13A46.61,46.61,0,0,1,0,44.9"/><path class="cls-11" d="M109.13,49.2a46.59,46.59,0,0,1-13.64-2.13,44.78,44.78,0,0,0-27.28,0A46.59,46.59,0,0,1,54.56,49.2a46.59,46.59,0,0,1-13.64-2.13,46.59,46.59,0,0,0-13.64-2.13,46.57,46.57,0,0,0-13.64,2.13A46.61,46.61,0,0,1,0,49.2"/><path class="cls-11" d="M109.13,53.5a46.59,46.59,0,0,1-13.64-2.13,44.78,44.78,0,0,0-27.28,0A46.59,46.59,0,0,1,54.56,53.5a46.59,46.59,0,0,1-13.64-2.13,46.62,46.62,0,0,0-13.64-2.13,46.61,46.61,0,0,0-13.64,2.13A46.61,46.61,0,0,1,0,53.5"/><path class="cls-11" d="M0,57.8a46.59,46.59,0,0,1-13.64-2.13,46.61,46.61,0,0,0-13.64-2.13,46.63,46.63,0,0,0-13.64,2.13A46.55,46.55,0,0,1-54.56,57.8,46.59,46.59,0,0,1-68.2,55.67a46.62,46.62,0,0,0-13.64-2.13,46.61,46.61,0,0,0-13.64,2.13,46.61,46.61,0,0,1-13.64,2.13"/><path class="cls-11" d="M0,62.1A46.62,46.62,0,0,1-13.64,60a46.58,46.58,0,0,0-13.64-2.13A46.6,46.6,0,0,0-40.92,60,46.62,46.62,0,0,1-54.56,62.1,46.63,46.63,0,0,1-68.2,60a46.59,46.59,0,0,0-13.64-2.13A46.58,46.58,0,0,0-95.48,60a46.64,46.64,0,0,1-13.64,2.13"/><path class="cls-11" d="M0,66.4a46.59,46.59,0,0,1-13.64-2.13,46.58,46.58,0,0,0-13.64-2.13,46.6,46.6,0,0,0-13.64,2.13A46.59,46.59,0,0,1-54.56,66.4,46.59,46.59,0,0,1-68.2,64.27a46.59,46.59,0,0,0-13.64-2.13,46.58,46.58,0,0,0-13.64,2.13,46.61,46.61,0,0,1-13.64,2.13"/><path class="cls-11" d="M0,44.9a46.59,46.59,0,0,1-13.64-2.13,46.58,46.58,0,0,0-13.64-2.13,46.6,46.6,0,0,0-13.64,2.13A46.59,46.59,0,0,1-54.56,44.9,46.59,46.59,0,0,1-68.2,42.77a46.59,46.59,0,0,0-13.64-2.13,46.57,46.57,0,0,0-13.64,2.13,46.61,46.61,0,0,1-13.64,2.13"/><path class="cls-11" d="M0,49.2a46.59,46.59,0,0,1-13.64-2.13,46.58,46.58,0,0,0-13.64-2.13,46.59,46.59,0,0,0-13.64,2.13A46.59,46.59,0,0,1-54.56,49.2,46.59,46.59,0,0,1-68.2,47.07a46.59,46.59,0,0,0-13.64-2.13,46.57,46.57,0,0,0-13.64,2.13,46.61,46.61,0,0,1-13.64,2.13"/><path class="cls-11" d="M0,53.5a46.59,46.59,0,0,1-13.64-2.13,46.61,46.61,0,0,0-13.64-2.13,46.63,46.63,0,0,0-13.64,2.13A46.59,46.59,0,0,1-54.56,53.5,46.59,46.59,0,0,1-68.2,51.37a46.62,46.62,0,0,0-13.64-2.13,46.61,46.61,0,0,0-13.64,2.13,46.61,46.61,0,0,1-13.64,2.13"/><path class="cls-11" d="M218.25,32a46.58,46.58,0,0,1-13.64-2.13,44.78,44.78,0,0,0-27.28,0A46.55,46.55,0,0,1,163.69,32,46.58,46.58,0,0,1,150,29.87a44.78,44.78,0,0,0-27.28,0A46.6,46.6,0,0,1,109.13,32"/><path class="cls-11" d="M218.25,36.29a46.63,46.63,0,0,1-13.64-2.13,44.78,44.78,0,0,0-27.28,0,46.62,46.62,0,0,1-13.64,2.13A46.63,46.63,0,0,1,150,34.17a44.78,44.78,0,0,0-27.28,0,46.64,46.64,0,0,1-13.64,2.13"/><path class="cls-11" d="M218.25,40.6a46.59,46.59,0,0,1-13.64-2.13,44.78,44.78,0,0,0-27.28,0,46.59,46.59,0,0,1-13.64,2.13A46.59,46.59,0,0,1,150,38.47a44.78,44.78,0,0,0-27.28,0,46.61,46.61,0,0,1-13.64,2.13"/><path class="cls-11" d="M218.25,19.09A46.59,46.59,0,0,1,204.61,17a44.78,44.78,0,0,0-27.28,0,46.59,46.59,0,0,1-13.64,2.13A46.59,46.59,0,0,1,150,17a44.78,44.78,0,0,0-27.28,0,46.61,46.61,0,0,1-13.64,2.13"/><path class="cls-11" d="M218.25,23.39a46.59,46.59,0,0,1-13.64-2.13,44.78,44.78,0,0,0-27.28,0,46.59,46.59,0,0,1-13.64,2.13A46.59,46.59,0,0,1,150,21.26a44.78,44.78,0,0,0-27.28,0,46.61,46.61,0,0,1-13.64,2.13"/><path class="cls-11" d="M218.25,27.69a46.59,46.59,0,0,1-13.64-2.13,44.78,44.78,0,0,0-27.28,0,46.59,46.59,0,0,1-13.64,2.13A46.59,46.59,0,0,1,150,25.57a44.78,44.78,0,0,0-27.28,0,46.61,46.61,0,0,1-13.64,2.13"/><rect class="cls-12" y="12.9" width="109.13" height="25.8"/><path class="cls-11" d="M109.13,32a46.58,46.58,0,0,1-13.64-2.13,44.78,44.78,0,0,0-27.28,0A46.55,46.55,0,0,1,54.56,32a46.58,46.58,0,0,1-13.64-2.13,46.62,46.62,0,0,0-13.64-2.13,46.61,46.61,0,0,0-13.64,2.13A46.6,46.6,0,0,1,0,32"/><path class="cls-11" d="M109.13,36.29a46.63,46.63,0,0,1-13.64-2.13,44.78,44.78,0,0,0-27.28,0,46.62,46.62,0,0,1-13.64,2.13,46.63,46.63,0,0,1-13.64-2.13A46.59,46.59,0,0,0,27.28,32a46.58,46.58,0,0,0-13.64,2.13A46.64,46.64,0,0,1,0,36.29"/><path class="cls-11" d="M109.13,40.6a46.59,46.59,0,0,1-13.64-2.13,44.78,44.78,0,0,0-27.28,0A46.59,46.59,0,0,1,54.56,40.6a46.59,46.59,0,0,1-13.64-2.13,46.59,46.59,0,0,0-13.64-2.13,46.57,46.57,0,0,0-13.64,2.13A46.61,46.61,0,0,1,0,40.6"/><path class="cls-11" d="M109.13,19.09A46.59,46.59,0,0,1,95.48,17,44.78,44.78,0,0,0,68.2,17a46.59,46.59,0,0,1-13.64,2.13A46.59,46.59,0,0,1,40.92,17a46.59,46.59,0,0,0-13.64-2.13A46.57,46.57,0,0,0,13.64,17,46.61,46.61,0,0,1,0,19.09"/><path class="cls-11" d="M109.13,23.39a46.59,46.59,0,0,1-13.64-2.13,44.78,44.78,0,0,0-27.28,0,46.59,46.59,0,0,1-13.64,2.13,46.59,46.59,0,0,1-13.64-2.13,46.59,46.59,0,0,0-13.64-2.13,46.57,46.57,0,0,0-13.64,2.13A46.61,46.61,0,0,1,0,23.39"/><path class="cls-11" d="M109.13,27.69a46.59,46.59,0,0,1-13.64-2.13,44.78,44.78,0,0,0-27.28,0,46.59,46.59,0,0,1-13.64,2.13,46.59,46.59,0,0,1-13.64-2.13,46.62,46.62,0,0,0-13.64-2.13,46.61,46.61,0,0,0-13.64,2.13A46.61,46.61,0,0,1,0,27.69"/><path class="cls-11" d="M0,32a46.58,46.58,0,0,1-13.64-2.13,46.62,46.62,0,0,0-13.64-2.13,46.63,46.63,0,0,0-13.64,2.13A46.55,46.55,0,0,1-54.56,32,46.58,46.58,0,0,1-68.2,29.87a46.62,46.62,0,0,0-13.64-2.13,46.61,46.61,0,0,0-13.64,2.13A46.6,46.6,0,0,1-109.12,32"/><path class="cls-11" d="M0,36.29a46.62,46.62,0,0,1-13.64-2.13A46.58,46.58,0,0,0-27.28,32a46.6,46.6,0,0,0-13.64,2.13,46.62,46.62,0,0,1-13.64,2.13A46.63,46.63,0,0,1-68.2,34.17,46.59,46.59,0,0,0-81.84,32a46.58,46.58,0,0,0-13.64,2.13,46.64,46.64,0,0,1-13.64,2.13"/><path class="cls-11" d="M0,40.6a46.59,46.59,0,0,1-13.64-2.13,46.58,46.58,0,0,0-13.64-2.13,46.6,46.6,0,0,0-13.64,2.13A46.59,46.59,0,0,1-54.56,40.6,46.59,46.59,0,0,1-68.2,38.47a46.59,46.59,0,0,0-13.64-2.13,46.57,46.57,0,0,0-13.64,2.13,46.61,46.61,0,0,1-13.64,2.13"/><path class="cls-11" d="M0,19.09A46.59,46.59,0,0,1-13.64,17a46.58,46.58,0,0,0-13.64-2.13A46.59,46.59,0,0,0-40.92,17a46.59,46.59,0,0,1-13.64,2.13A46.59,46.59,0,0,1-68.2,17a46.59,46.59,0,0,0-13.64-2.13A46.57,46.57,0,0,0-95.48,17a46.61,46.61,0,0,1-13.64,2.13"/><path class="cls-11" d="M0,23.39a46.59,46.59,0,0,1-13.64-2.13,46.58,46.58,0,0,0-13.64-2.13,46.59,46.59,0,0,0-13.64,2.13,46.59,46.59,0,0,1-13.64,2.13A46.59,46.59,0,0,1-68.2,21.26a46.59,46.59,0,0,0-13.64-2.13,46.57,46.57,0,0,0-13.64,2.13,46.61,46.61,0,0,1-13.64,2.13"/><path class="cls-11" d="M0,27.69a46.59,46.59,0,0,1-13.64-2.13,46.62,46.62,0,0,0-13.64-2.13,46.63,46.63,0,0,0-13.64,2.13,46.59,46.59,0,0,1-13.64,2.13A46.59,46.59,0,0,1-68.2,25.57a46.62,46.62,0,0,0-13.64-2.13,46.61,46.61,0,0,0-13.64,2.13,46.61,46.61,0,0,1-13.64,2.13"/><path class="cls-11" d="M218.25,6.19a46.58,46.58,0,0,1-13.64-2.13,44.78,44.78,0,0,0-27.28,0,46.55,46.55,0,0,1-13.64,2.13A46.58,46.58,0,0,1,150,4.06a44.78,44.78,0,0,0-27.28,0,46.6,46.6,0,0,1-13.64,2.13"/><path class="cls-11" d="M218.25,10.49a46.63,46.63,0,0,1-13.64-2.13,44.78,44.78,0,0,0-27.28,0,46.62,46.62,0,0,1-13.64,2.13A46.63,46.63,0,0,1,150,8.36a44.78,44.78,0,0,0-27.28,0,46.64,46.64,0,0,1-13.64,2.13"/><path class="cls-11" d="M218.25,14.79a46.59,46.59,0,0,1-13.64-2.13,44.78,44.78,0,0,0-27.28,0,46.59,46.59,0,0,1-13.64,2.13A46.59,46.59,0,0,1,150,12.66a44.78,44.78,0,0,0-27.28,0,46.61,46.61,0,0,1-13.64,2.13"/><path class="cls-11" d="M218.25,1.89A46.59,46.59,0,0,1,204.61-.24a44.78,44.78,0,0,0-27.28,0,46.59,46.59,0,0,1-13.64,2.13A46.59,46.59,0,0,1,150-.24a44.78,44.78,0,0,0-27.28,0,46.61,46.61,0,0,1-13.64,2.13"/><rect class="cls-12" y="-12.9" width="109.13" height="25.8"/><path class="cls-11" d="M109.13,6.19A46.58,46.58,0,0,1,95.48,4.06a44.78,44.78,0,0,0-27.28,0A46.55,46.55,0,0,1,54.56,6.19,46.58,46.58,0,0,1,40.92,4.06,46.62,46.62,0,0,0,27.28,1.93,46.61,46.61,0,0,0,13.64,4.06,46.6,46.6,0,0,1,0,6.19"/><path class="cls-11" d="M109.13,10.49A46.63,46.63,0,0,1,95.48,8.36a44.78,44.78,0,0,0-27.28,0,46.62,46.62,0,0,1-13.64,2.13A46.63,46.63,0,0,1,40.92,8.36,46.59,46.59,0,0,0,27.28,6.24,46.58,46.58,0,0,0,13.64,8.36,46.64,46.64,0,0,1,0,10.49"/><path class="cls-11" d="M109.13,14.79a46.59,46.59,0,0,1-13.64-2.13,44.78,44.78,0,0,0-27.28,0,46.59,46.59,0,0,1-13.64,2.13,46.59,46.59,0,0,1-13.64-2.13,46.59,46.59,0,0,0-13.64-2.13,46.57,46.57,0,0,0-13.64,2.13A46.61,46.61,0,0,1,0,14.79"/><path class="cls-11" d="M109.13,1.89A46.59,46.59,0,0,1,95.48-.24a44.78,44.78,0,0,0-27.28,0A46.59,46.59,0,0,1,54.56,1.89,46.59,46.59,0,0,1,40.92-.24,46.62,46.62,0,0,0,27.28-2.37,46.61,46.61,0,0,0,13.64-.24,46.61,46.61,0,0,1,0,1.89"/><path class="cls-11" d="M0,6.19A46.58,46.58,0,0,1-13.64,4.06,46.62,46.62,0,0,0-27.28,1.93,46.63,46.63,0,0,0-40.92,4.06,46.55,46.55,0,0,1-54.56,6.19,46.58,46.58,0,0,1-68.2,4.06,46.62,46.62,0,0,0-81.84,1.93,46.61,46.61,0,0,0-95.48,4.06a46.6,46.6,0,0,1-13.64,2.13"/><path class="cls-11" d="M0,10.49A46.63,46.63,0,0,1-13.64,8.36,46.58,46.58,0,0,0-27.28,6.24,46.6,46.6,0,0,0-40.92,8.36a46.62,46.62,0,0,1-13.64,2.13A46.63,46.63,0,0,1-68.2,8.36,46.59,46.59,0,0,0-81.84,6.24,46.58,46.58,0,0,0-95.48,8.36a46.64,46.64,0,0,1-13.64,2.13"/><path class="cls-11" d="M0,14.79a46.59,46.59,0,0,1-13.64-2.13,46.58,46.58,0,0,0-13.64-2.13,46.59,46.59,0,0,0-13.64,2.13,46.59,46.59,0,0,1-13.64,2.13A46.59,46.59,0,0,1-68.2,12.66a46.59,46.59,0,0,0-13.64-2.13,46.57,46.57,0,0,0-13.64,2.13,46.61,46.61,0,0,1-13.64,2.13"/><path class="cls-11" d="M0,1.89A46.59,46.59,0,0,1-13.64-.24,46.62,46.62,0,0,0-27.28-2.37,46.63,46.63,0,0,0-40.92-.24,46.59,46.59,0,0,1-54.56,1.89,46.59,46.59,0,0,1-68.2-.24,46.62,46.62,0,0,0-81.84-2.37,46.61,46.61,0,0,0-95.48-.24a46.61,46.61,0,0,1-13.64,2.13"/></pattern><pattern id="Burlap" data-name="Burlap" width="72" height="72" patternUnits="userSpaceOnUse" viewBox="0 0 72 72"><rect class="cls-1" width="72" height="72"/><line class="cls-2" x1="70.33" y1="72.17" x2="85" y2="72.17"/><line class="cls-2" x1="-1.67" y1="72.17" x2="13" y2="72.17"/><line class="cls-2" x1="68.5" y1="7" x2="83.16" y2="7"/><line class="cls-2" x1="66.83" y1="13.67" x2="81.5" y2="13.67"/><line class="cls-2" x1="70.33" y1="0.17" x2="85" y2="0.17"/><line class="cls-2" x1="71.33" y1="31" x2="86" y2="31"/><line class="cls-2" x1="75.83" y1="2.83" x2="61.16" y2="2.83"/><line class="cls-2" x1="79.33" y1="8.33" x2="64.66" y2="8.33"/><line class="cls-2" x1="61.5" y1="16.51" x2="76.16" y2="16.51"/><line class="cls-2" x1="65.16" y1="65.51" x2="79.83" y2="65.51"/><line class="cls-2" x1="61.5" y1="70.18" x2="76.16" y2="70.18"/><line class="cls-2" x1="66.83" y1="68.18" x2="81.5" y2="68.18"/><line class="cls-2" x1="62.16" y1="63.18" x2="76.83" y2="63.18"/><line class="cls-2" x1="66.83" y1="54.51" x2="81.5" y2="54.51"/><line class="cls-2" x1="63.5" y1="58.84" x2="78.16" y2="58.84"/><line class="cls-2" x1="77" y1="23.33" x2="62.33" y2="23.33"/><line class="cls-2" x1="77.5" y1="26.83" x2="62.83" y2="26.83"/><line class="cls-2" x1="80.5" y1="28.83" x2="65.83" y2="28.83"/><line class="cls-2" x1="66.16" y1="18.67" x2="80.83" y2="18.67"/><line class="cls-2" x1="76.66" y1="32.84" x2="62" y2="32.84"/><line class="cls-2" x1="80.66" y1="34.84" x2="66" y2="34.84"/><line class="cls-2" x1="75" y1="37.17" x2="60.33" y2="37.17"/><line class="cls-2" x1="63.16" y1="51.51" x2="77.83" y2="51.51"/><line class="cls-2" x1="65.16" y1="47.17" x2="79.83" y2="47.17"/><line class="cls-2" x1="65.16" y1="41.84" x2="79.83" y2="41.84"/><line class="cls-2" x1="67.83" y1="44.51" x2="82.5" y2="44.51"/><line class="cls-2" x1="69.83" y1="39.51" x2="84.5" y2="39.51"/><line class="cls-2" x1="9.67" y1="5.67" x2="9.67" y2="20.33"/><line class="cls-2" x1="12.17" y1="8.67" x2="12.17" y2="23.34"/><line class="cls-2" x1="8.5" y1="18.33" x2="8.5" y2="33"/><line class="cls-2" x1="15.83" y1="18.67" x2="15.83" y2="33.34"/><line class="cls-2" x1="6.17" y1="11.67" x2="6.17" y2="26.34"/><line class="cls-2" x1="18.17" y1="8.67" x2="18.17" y2="23.34"/><line class="cls-2" x1="23.67" y1="8.67" x2="23.67" y2="23.34"/><line class="cls-2" x1="25" y1="12.33" x2="25" y2="27"/><line class="cls-2" x1="21.17" y1="3.17" x2="21.17" y2="17.83"/><line class="cls-2" x1="14.67" y1="5.17" x2="14.67" y2="19.83"/><line class="cls-2" x1="1.17" y1="11" x2="15.83" y2="11"/><line class="cls-2" x1="-3.5" y1="7" x2="11.17" y2="7"/><line class="cls-2" x1="-5.17" y1="13.67" x2="9.5" y2="13.67"/><line class="cls-2" x1="13.17" y1="7.33" x2="27.83" y2="7.33"/><line class="cls-2" x1="8" y1="9.17" x2="22.67" y2="9.17"/><line class="cls-2" x1="11.67" y1="17.34" x2="26.33" y2="17.34"/><line class="cls-2" x1="5" y1="14.83" x2="19.67" y2="14.83"/><line class="cls-2" x1="38.5" y1="10" x2="38.5" y2="24.67"/><line class="cls-2" x1="36" y1="13" x2="36" y2="27.67"/><line class="cls-2" x1="42" y1="16" x2="42" y2="30.67"/><line class="cls-2" x1="43.33" y1="23.34" x2="43.33" y2="38"/><line class="cls-2" x1="44.67" y1="16" x2="44.67" y2="30.67"/><line class="cls-2" x1="30" y1="13" x2="30" y2="27.67"/><line class="cls-2" x1="19.83" y1="16.33" x2="19.83" y2="31"/><line class="cls-2" x1="28.33" y1="6.5" x2="28.33" y2="21.17"/><line class="cls-2" x1="26.67" y1="3.17" x2="26.67" y2="17.83"/><line class="cls-2" x1="33.5" y1="8.17" x2="33.5" y2="22.84"/><line class="cls-2" x1="42" y1="14.67" x2="27.33" y2="14.67"/><line class="cls-2" x1="33.67" y1="12.67" x2="19" y2="12.67"/><line class="cls-2" x1="42.5" y1="18.17" x2="27.83" y2="18.17"/><line class="cls-2" x1="36.83" y1="22.01" x2="22.17" y2="22.01"/><line class="cls-2" x1="45.5" y1="20.17" x2="30.83" y2="20.17"/><line class="cls-2" x1="70.84" y1="1.17" x2="70.84" y2="15.83"/><line class="cls-2" x1="66.17" y1="1.17" x2="66.17" y2="15.83"/><line class="cls-2" x1="58.33" y1="1.17" x2="58.33" y2="15.83"/><line class="cls-2" x1="75.83" y1="2.83" x2="61.17" y2="2.83"/><line class="cls-2" x1="74.33" y1="5.33" x2="59.67" y2="5.33"/><line class="cls-2" x1="70.33" y1="9.84" x2="55.67" y2="9.84"/><line class="cls-2" x1="62.33" y1="8.51" x2="47.67" y2="8.51"/><line class="cls-2" x1="79.33" y1="8.33" x2="64.67" y2="8.33"/><line class="cls-2" x1="41.5" y1="2.5" x2="41.5" y2="17.17"/><line class="cls-2" x1="46" y1="5.5" x2="46" y2="20.17"/><line class="cls-2" x1="40" y1="8.5" x2="40" y2="23.17"/><line class="cls-2" x1="52.67" y1="4.84" x2="52.67" y2="19.5"/><line class="cls-2" x1="62.17" y1="8.83" x2="62.17" y2="23.5"/><line class="cls-2" x1="55" x2="55" y2="14.67"/><line class="cls-2" x1="50.16" y1="1" x2="50.16" y2="15.67"/><line class="cls-2" x1="39.83" y1="2.33" x2="54.5" y2="2.33"/><line class="cls-2" x1="47" y1="4.17" x2="61.67" y2="4.17"/><line class="cls-2" x1="38.67" y1="5.83" x2="53.33" y2="5.83"/><line class="cls-2" x1="39.5" y1="10.67" x2="54.17" y2="10.67"/><line class="cls-2" x1="45.17" y1="15.51" x2="59.83" y2="15.51"/><line class="cls-2" x1="48.83" y1="13.51" x2="63.5" y2="13.51"/><line class="cls-2" x1="36.5" y1="12.67" x2="51.17" y2="12.67"/><line class="cls-2" x1="31.5" y1="1.67" x2="31.5" y2="16.33"/><line class="cls-2" x1="29.83" y1="1" x2="29.83" y2="15.67"/><line class="cls-2" x1="23.83" y1="1.67" x2="23.83" y2="16.33"/><line class="cls-2" x1="2" y1="38.34" x2="2" y2="53"/><line class="cls-2" x1="1.5" y1="21.84" x2="1.5" y2="36.5"/><line class="cls-2" x1="2.67" y1="9.83" x2="2.67" y2="24.5"/><line class="cls-2" x1="0.67" y1="7.33" x2="0.67" y2="22"/><line class="cls-2" x1="-1.67" y1="0.17" x2="13" y2="0.17"/><line class="cls-2" x1="6.67" y1="1.83" x2="21.33" y2="1.83"/><line class="cls-2" x1="1.17" y1="4.33" x2="15.83" y2="4.33"/><line class="cls-2" x1="23.17" y1="5" x2="37.83" y2="5"/><line class="cls-2" x1="18.17" y1="3.67" x2="32.83" y2="3.67"/><line class="cls-2" x1="20.17" y1="1" x2="34.83" y2="1"/><line class="cls-2" x1="25.5" y1="9.33" x2="40.17" y2="9.33"/><line class="cls-2" x1="41.67" y1="24.17" x2="27" y2="24.17"/><line class="cls-2" x1="45.67" y1="26.17" x2="31" y2="26.17"/><line class="cls-2" x1="40" y1="28.51" x2="25.33" y2="28.51"/><line class="cls-2" x1="18.17" y1="34.34" x2="18.17" y2="49"/><line class="cls-2" x1="21.67" y1="40.34" x2="21.67" y2="55"/><line class="cls-2" x1="16" y1="36.67" x2="1.33" y2="36.67"/><line class="cls-2" x1="27" y1="40.67" x2="12.33" y2="40.67"/><line class="cls-2" x1="22.17" y1="42.5" x2="7.5" y2="42.5"/><line class="cls-2" x1="25.17" y1="44.5" x2="10.5" y2="44.5"/><line class="cls-2" x1="38" y1="25.5" x2="38" y2="40.17"/><line class="cls-2" x1="39.33" y1="31.34" x2="39.33" y2="46"/><line class="cls-2" x1="23.17" y1="26.84" x2="23.17" y2="41.5"/><line class="cls-2" x1="26.33" y1="21.5" x2="26.33" y2="36.17"/><line class="cls-2" x1="31.67" y1="29.84" x2="31.67" y2="44.5"/><line class="cls-2" x1="34.67" y1="24.34" x2="34.67" y2="39"/><line class="cls-2" x1="33" y1="24" x2="33" y2="38.67"/><line class="cls-2" x1="28.17" y1="26.34" x2="28.17" y2="41"/><line class="cls-2" x1="24.83" y1="39.84" x2="39.5" y2="39.84"/><line class="cls-2" x1="27.5" y1="41.17" x2="42.17" y2="41.17"/><line class="cls-2" x1="30.17" y1="38.51" x2="44.83" y2="38.51"/><line class="cls-2" x1="30.17" y1="33.17" x2="44.83" y2="33.17"/><line class="cls-2" x1="32.83" y1="35.84" x2="47.5" y2="35.84"/><line class="cls-2" x1="46.16" y1="33.17" x2="60.83" y2="33.17"/><line class="cls-2" x1="34.83" y1="30.84" x2="49.5" y2="30.84"/><line class="cls-2" x1="61.5" y1="16.51" x2="76.16" y2="16.51"/><line class="cls-2" x1="45.5" y1="23.51" x2="60.16" y2="23.51"/><line class="cls-2" x1="43.5" y1="21.17" x2="58.16" y2="21.17"/><line class="cls-2" x1="16.17" y1="37" x2="30.83" y2="37"/><line class="cls-2" x1="16.5" y1="35" x2="31.17" y2="35"/><line class="cls-2" x1="30.33" y1="45.84" x2="15.67" y2="45.84"/><line class="cls-2" x1="22" y1="20.84" x2="22" y2="35.5"/><line class="cls-2" x1="19.83" y1="17.33" x2="19.83" y2="32"/><line class="cls-2" x1="10.83" y1="26" x2="25.5" y2="26"/><line class="cls-2" x1="3.83" y1="24.67" x2="18.5" y2="24.67"/><line class="cls-2" x1="5.5" y1="22.67" x2="20.17" y2="22.67"/><line class="cls-2" x1="4.17" y1="20" x2="18.83" y2="20"/><line class="cls-2" x1="13.5" y1="20" x2="28.17" y2="20"/><line class="cls-2" x1="7" y1="43.67" x2="7" y2="58.34"/><line class="cls-2" x1="9.5" y1="46.67" x2="9.5" y2="61.34"/><line class="cls-2" x1="5.83" y1="56.34" x2="5.83" y2="71"/><line class="cls-2" x1="2.83" y1="54" x2="2.83" y2="68.67"/><line class="cls-2" x1="13.17" y1="56.67" x2="13.17" y2="71.34"/><line class="cls-2" x1="15.5" y1="46.67" x2="15.5" y2="61.34"/><line class="cls-2" x1="25" y1="38.33" x2="25" y2="53"/><line class="cls-2" x1="58.5" y1="60" x2="58.5" y2="74.67"/><line class="cls-2" x1="61.33" y1="47.34" x2="61.33" y2="62"/><line class="cls-2" x1="58" y1="64" x2="43.33" y2="64"/><line class="cls-2" x1="62.5" y1="68.17" x2="47.83" y2="68.17"/><line class="cls-2" x1="59.83" y1="70.17" x2="45.17" y2="70.17"/><line class="cls-2" x1="63.83" y1="66.5" x2="49.17" y2="66.5"/><line class="cls-2" x1="63.5" y1="52.5" x2="63.5" y2="67.17"/><line class="cls-2" x1="60" y1="58.5" x2="60" y2="73.17"/><line class="cls-2" x1="48.66" y1="47.84" x2="48.66" y2="62.5"/><line class="cls-2" x1="47" y1="50.5" x2="47" y2="65.17"/><line class="cls-2" x1="45" y1="56.34" x2="45" y2="71"/><line class="cls-2" x1="67.16" y1="54.33" x2="67.16" y2="69"/><line class="cls-2" x1="68.83" y1="48.33" x2="68.83" y2="63"/><line class="cls-2" x1="71.16" y1="46" x2="71.16" y2="60.67"/><line class="cls-2" x1="65.16" y1="65.51" x2="79.83" y2="65.51"/><line class="cls-2" x1="61.5" y1="70.18" x2="76.16" y2="70.18"/><line class="cls-2" x1="66.83" y1="68.18" x2="81.5" y2="68.18"/><line class="cls-2" x1="62.16" y1="63.18" x2="76.83" y2="63.18"/><line class="cls-2" x1="59.16" y1="56.51" x2="73.83" y2="56.51"/><line class="cls-2" x1="66.83" y1="54.51" x2="81.5" y2="54.51"/><line class="cls-2" x1="63.5" y1="58.84" x2="78.16" y2="58.84"/><line class="cls-2" x1="65.33" y1="64" x2="65.33" y2="78.67"/><line class="cls-2" x1="69.67" y1="61.33" x2="69.67" y2="76"/><line class="cls-2" x1="3.5" y1="48.34" x2="18.17" y2="48.34"/><line class="cls-2" x1="8.17" y1="67.67" x2="22.83" y2="67.67"/><line class="cls-2" x1="5" y1="50.84" x2="19.67" y2="50.84"/><line class="cls-2" x1="9" y1="55.34" x2="23.67" y2="55.34"/><line class="cls-2" x1="20" y1="52.34" x2="34.67" y2="52.34"/><line class="cls-2" x1="0.83" y1="52.5" x2="15.5" y2="52.5"/><line class="cls-2" x1="17.67" y1="52" x2="17.67" y2="66.67"/><line class="cls-2" x1="32.33" y1="49.67" x2="17.67" y2="49.67"/><line class="cls-2" x1="34.17" y1="60.01" x2="19.5" y2="60.01"/><line class="cls-2" x1="35.83" y1="61.68" x2="21.17" y2="61.68"/><line class="cls-2" x1="34.34" y1="56.68" x2="19.67" y2="56.68"/><line class="cls-2" x1="39" y1="54.01" x2="24.33" y2="54.01"/><line class="cls-2" x1="19.33" y1="58.84" x2="19.33" y2="73.5"/><line class="cls-2" x1="12.5" y1="38" x2="12.5" y2="52.67"/><line class="cls-2" x1="10.83" y1="32.67" x2="10.83" y2="47.34"/><line class="cls-2" x1="13.83" y1="29.67" x2="13.83" y2="44.34"/><line class="cls-2" x1="8.5" y1="31.34" x2="8.5" y2="46"/><line class="cls-2" x1="4.83" y1="32.34" x2="4.83" y2="47"/><line class="cls-2" x1="6.83" y1="27.67" x2="6.83" y2="42.34"/><line class="cls-2" x1="8.17" y1="64" x2="22.83" y2="64"/><line class="cls-2" x1="1" y1="62.34" x2="15.67" y2="62.34"/><line class="cls-2" x1="2.83" y1="60.67" x2="17.5" y2="60.67"/><line class="cls-2" x1="29.5" y1="50" x2="29.5" y2="64.67"/><line class="cls-2" x1="26.49" y1="43" x2="26.49" y2="57.67"/><line class="cls-2" x1="25.83" y1="59.67" x2="25.83" y2="74.34"/><line class="cls-2" x1="33.17" y1="60" x2="33.17" y2="74.67"/><line class="cls-2" x1="23.5" y1="53" x2="23.5" y2="67.67"/><line class="cls-2" x1="35.5" y1="50" x2="35.5" y2="64.67"/><line class="cls-2" x1="31" y1="58.84" x2="31" y2="73.5"/><line class="cls-2" x1="28" y1="54.84" x2="28" y2="69.5"/><line class="cls-2" x1="28.17" y1="71" x2="42.83" y2="71"/><line class="cls-2" x1="30.17" y1="68.67" x2="44.83" y2="68.67"/><line class="cls-2" x1="37.17" y1="57.67" x2="37.17" y2="72.34"/><line class="cls-2" x1="32.5" y1="45.34" x2="32.5" y2="60"/><line class="cls-2" x1="55" y1="57.67" x2="55" y2="72.34"/><line class="cls-2" x1="48" y1="65.67" x2="48" y2="80.34"/><line class="cls-2" x1="34.17" y1="40.67" x2="34.17" y2="55.34"/><line class="cls-2" x1="28.17" y1="67.34" x2="42.83" y2="67.34"/><line class="cls-2" x1="21.17" y1="66" x2="35.83" y2="66"/><line class="cls-2" x1="13.17" y1="69.34" x2="27.83" y2="69.34"/><line class="cls-2" x1="7.83" y1="70.67" x2="22.5" y2="70.67"/><line class="cls-2" x1="22.83" y1="64" x2="37.5" y2="64"/><line class="cls-2" x1="1.5" y1="58" x2="16.17" y2="58"/><line class="cls-2" x1="10.83" y1="58" x2="25.5" y2="58"/><line class="cls-2" x1="16.5" y1="30.84" x2="31.17" y2="30.84"/><line class="cls-2" x1="7.83" y1="28" x2="22.5" y2="28"/><line class="cls-2" x1="6.67" y1="33.34" x2="21.33" y2="33.34"/><line class="cls-2" x1="-0.67" y1="31" x2="14" y2="31"/><line class="cls-2" x1="47.17" y1="17.33" x2="47.17" y2="32"/><line class="cls-2" x1="50.83" y1="27.34" x2="50.83" y2="42"/><line class="cls-2" x1="52.82" y1="20" x2="52.82" y2="34.67"/><line class="cls-2" x1="58.67" y1="17.33" x2="58.67" y2="32"/><line class="cls-2" x1="60" y1="21" x2="60" y2="35.67"/><line class="cls-2" x1="56.17" y1="11.83" x2="56.17" y2="26.5"/><line class="cls-2" x1="48.67" y1="13.83" x2="48.67" y2="28.5"/><line class="cls-2" x1="46.67" y1="26.01" x2="61.33" y2="26.01"/><line class="cls-2" x1="40.33" y1="48.34" x2="40.33" y2="63"/><line class="cls-2" x1="41.67" y1="55.67" x2="41.67" y2="70.34"/><line class="cls-2" x1="38.34" y1="45.34" x2="38.34" y2="60"/><line class="cls-2" x1="43" y1="48.34" x2="43" y2="63"/><line class="cls-2" x1="65" y1="21.67" x2="65" y2="36.34"/><line class="cls-2" x1="54.83" y1="25" x2="54.83" y2="39.67"/><line class="cls-2" x1="63.33" y1="15.17" x2="63.33" y2="29.84"/><line class="cls-2" x1="67" y1="10.5" x2="67" y2="25.17"/><line class="cls-2" x1="68.51" y1="12.67" x2="68.51" y2="27.33"/><line class="cls-2" x1="70.5" y1="17.5" x2="70.5" y2="32.17"/><line class="cls-2" x1="77" y1="23.33" x2="62.33" y2="23.33"/><line class="cls-2" x1="70" y1="20.33" x2="55.33" y2="20.33"/><line class="cls-2" x1="64.33" y1="18" x2="49.67" y2="18"/><line class="cls-2" x1="68.67" y1="11.67" x2="54" y2="11.67"/><line class="cls-2" x1="77.5" y1="26.83" x2="62.83" y2="26.83"/><line class="cls-2" x1="71.83" y1="30.67" x2="57.17" y2="30.67"/><line class="cls-2" x1="80.5" y1="28.83" x2="65.83" y2="28.83"/><line class="cls-2" x1="41.83" y1="34.84" x2="41.83" y2="49.5"/><line class="cls-2" x1="44.33" y1="37.84" x2="44.33" y2="52.5"/><line class="cls-2" x1="59.67" y1="40.84" x2="59.67" y2="55.5"/><line class="cls-2" x1="46.83" y1="34.34" x2="46.83" y2="49"/><line class="cls-2" x1="37.83" y1="43" x2="52.5" y2="43"/><line class="cls-2" x1="43.5" y1="47.84" x2="58.17" y2="47.84"/><line class="cls-2" x1="66.17" y1="18.67" x2="80.83" y2="18.67"/><line class="cls-2" x1="76.67" y1="32.84" x2="62" y2="32.84"/><line class="cls-2" x1="80.67" y1="34.84" x2="66" y2="34.84"/><line class="cls-2" x1="75" y1="37.17" x2="60.33" y2="37.17"/><line class="cls-2" x1="53.17" y1="43" x2="53.17" y2="57.67"/><line class="cls-2" x1="56.67" y1="49" x2="56.67" y2="63.67"/><line class="cls-2" x1="52.67" y1="56.67" x2="52.67" y2="71.33"/><line class="cls-2" x1="50.33" y1="54.34" x2="50.33" y2="69"/><line class="cls-2" x1="60.17" y1="53.17" x2="45.5" y2="53.17"/><line class="cls-2" x1="52.17" y1="50.5" x2="37.5" y2="50.5"/><line class="cls-2" x1="41.83" y1="47.5" x2="27.17" y2="47.5"/><line class="cls-2" x1="52" y1="31.84" x2="52" y2="46.5"/><line class="cls-2" x1="39" y1="63.67" x2="39" y2="78.34"/><line class="cls-2" x1="65" y1="46.84" x2="65" y2="61.5"/><line class="cls-2" x1="58.16" y1="35.5" x2="58.16" y2="50.17"/><line class="cls-2" x1="61.33" y1="30.17" x2="61.33" y2="44.83"/><line class="cls-2" x1="54.66" y1="41.5" x2="54.66" y2="56.17"/><line class="cls-2" x1="66.66" y1="38.5" x2="66.66" y2="53.17"/><line class="cls-2" x1="69.66" y1="33" x2="69.66" y2="47.67"/><line class="cls-2" x1="68" y1="32.67" x2="68" y2="47.34"/><line class="cls-2" x1="63.16" y1="35" x2="63.16" y2="49.67"/><line class="cls-2" x1="59.83" y1="48.51" x2="74.5" y2="48.51"/><line class="cls-2" x1="63.17" y1="51.51" x2="77.83" y2="51.51"/><line class="cls-2" x1="65.16" y1="47.17" x2="79.83" y2="47.17"/><line class="cls-2" x1="65.16" y1="41.84" x2="79.83" y2="41.84"/><line class="cls-2" x1="67.83" y1="44.51" x2="82.5" y2="44.51"/><line class="cls-2" x1="69.83" y1="39.51" x2="84.5" y2="39.51"/><line class="cls-2" x1="38.17" y1="61.84" x2="52.83" y2="61.84"/><line class="cls-2" x1="42.5" y1="59.18" x2="57.16" y2="59.18"/><line class="cls-2" x1="41.83" y1="54.51" x2="56.5" y2="54.51"/><line class="cls-2" x1="26.17" y1="44.51" x2="40.83" y2="44.51"/><line class="cls-2" x1="51.16" y1="45.67" x2="65.83" y2="45.67"/><line class="cls-2" x1="51.5" y1="43.67" x2="66.16" y2="43.67"/><line class="cls-2" x1="57" y1="29.5" x2="57" y2="44.17"/><line class="cls-2" x1="54.83" y1="26" x2="54.83" y2="40.67"/><line class="cls-2" x1="48.5" y1="31.67" x2="48.5" y2="46.34"/><line class="cls-2" x1="45.83" y1="37.34" x2="60.5" y2="37.34"/><line class="cls-2" x1="48.5" y1="28.67" x2="63.17" y2="28.67"/><line class="cls-2" x1="51.5" y1="39.51" x2="66.17" y2="39.51"/><line class="cls-2" x1="68.5" y1="7" x2="83.17" y2="7"/><line class="cls-2" x1="66.83" y1="13.67" x2="81.5" y2="13.67"/><line class="cls-2" x1="3.83" y1="2.83" x2="-10.83" y2="2.83"/><line class="cls-2" x1="7.33" y1="8.33" x2="-7.33" y2="8.33"/><line class="cls-2" x1="-10.5" y1="16.51" x2="4.16" y2="16.51"/><line class="cls-2" x1="-6.83" y1="65.51" x2="7.83" y2="65.51"/><line class="cls-2" x1="-10.5" y1="70.18" x2="4.17" y2="70.18"/><line class="cls-2" x1="-5.17" y1="68.18" x2="9.5" y2="68.18"/><line class="cls-2" x1="-9.83" y1="63.18" x2="4.83" y2="63.18"/><line class="cls-2" x1="-5.17" y1="54.51" x2="9.5" y2="54.51"/><line class="cls-2" x1="-8.5" y1="58.84" x2="6.17" y2="58.84"/><line class="cls-2" x1="5" y1="23.33" x2="-9.67" y2="23.33"/><line class="cls-2" x1="5.5" y1="26.83" x2="-9.17" y2="26.83"/><line class="cls-2" x1="8.5" y1="28.83" x2="-6.17" y2="28.83"/><line class="cls-2" x1="-5.83" y1="18.67" x2="8.83" y2="18.67"/><line class="cls-2" x1="4.67" y1="32.84" x2="-10" y2="32.84"/><line class="cls-2" x1="8.67" y1="34.84" x2="-6" y2="34.84"/><line class="cls-2" x1="3" y1="37.17" x2="-11.67" y2="37.17"/><line class="cls-2" x1="-8.83" y1="51.51" x2="5.83" y2="51.51"/><line class="cls-2" x1="-6.83" y1="47.17" x2="7.83" y2="47.17"/><line class="cls-2" x1="-6.83" y1="41.84" x2="7.83" y2="41.84"/><line class="cls-2" x1="-4.17" y1="44.51" x2="10.5" y2="44.51"/><line class="cls-2" x1="-2.17" y1="39.51" x2="12.5" y2="39.51"/><line class="cls-2" x1="13" y1="64.84" x2="13" y2="79.5"/><line class="cls-2" x1="10.33" y1="62.5" x2="10.33" y2="77.17"/><line class="cls-2" x1="63.33" y1="68.34" x2="63.33" y2="83"/><line class="cls-2" x1="60.83" y1="67.67" x2="60.83" y2="82.34"/><line class="cls-2" x1="37.5" y1="68.34" x2="37.5" y2="83"/><line class="cls-2" x1="68.67" y1="68.34" x2="68.67" y2="83"/><line class="cls-2" x1="43.17" y1="66.5" x2="43.17" y2="81.17"/><line class="cls-2" x1="16.83" y1="67.67" x2="16.83" y2="82.34"/><line class="cls-2" x1="1.83" y1="67.5" x2="1.83" y2="82.17"/><line class="cls-2" x1="6.83" y1="65.5" x2="6.83" y2="80.17"/><line class="cls-2" x1="34.83" y1="68.34" x2="34.83" y2="83"/><line class="cls-2" x1="58.5" y1="60" x2="58.5" y2="74.67"/><line class="cls-2" x1="33.17" y1="60" x2="33.17" y2="74.67"/><line class="cls-2" x1="3.83" y1="2.83" x2="-10.83" y2="2.83"/><line class="cls-2" x1="2.33" y1="5.33" x2="-12.33" y2="5.33"/><line class="cls-2" x1="7.33" y1="8.33" x2="-7.33" y2="8.33"/><line class="cls-2" x1="-10.5" y1="16.51" x2="4.17" y2="16.51"/><line class="cls-2" x1="-6.83" y1="65.51" x2="7.83" y2="65.51"/><line class="cls-2" x1="-10.5" y1="70.18" x2="4.17" y2="70.18"/><line class="cls-2" x1="-5.17" y1="68.18" x2="9.5" y2="68.18"/><line class="cls-2" x1="-9.83" y1="63.18" x2="4.83" y2="63.18"/><line class="cls-2" x1="-12.83" y1="56.51" x2="1.83" y2="56.51"/><line class="cls-2" x1="-5.17" y1="54.51" x2="9.5" y2="54.51"/><line class="cls-2" x1="-8.5" y1="58.84" x2="6.17" y2="58.84"/><line class="cls-2" x1="5" y1="23.33" x2="-9.67" y2="23.33"/><line class="cls-2" x1="5.5" y1="26.83" x2="-9.17" y2="26.83"/><line class="cls-2" x1="8.5" y1="28.83" x2="-6.17" y2="28.83"/><line class="cls-2" x1="-5.83" y1="18.67" x2="8.83" y2="18.67"/><line class="cls-2" x1="4.67" y1="32.84" x2="-10" y2="32.84"/><line class="cls-2" x1="8.67" y1="34.84" x2="-6" y2="34.84"/><line class="cls-2" x1="3" y1="37.17" x2="-11.67" y2="37.17"/><line class="cls-2" x1="-12.17" y1="48.51" x2="2.5" y2="48.51"/><line class="cls-2" x1="-8.83" y1="51.51" x2="5.83" y2="51.51"/><line class="cls-2" x1="-6.83" y1="47.17" x2="7.83" y2="47.17"/><line class="cls-2" x1="-6.83" y1="41.84" x2="7.83" y2="41.84"/><line class="cls-2" x1="-4.17" y1="44.51" x2="10.5" y2="44.51"/><line class="cls-2" x1="-2.17" y1="39.51" x2="12.5" y2="39.51"/><line class="cls-2" x1="-3.5" y1="7" x2="11.17" y2="7"/><line class="cls-2" x1="-5.17" y1="13.67" x2="9.5" y2="13.67"/><line class="cls-2" x1="58.5" y1="-12" x2="58.5" y2="2.67"/><line class="cls-2" x1="60" y1="-13.5" x2="60" y2="1.17"/><line class="cls-2" x1="65.33" y1="-8" x2="65.33" y2="6.67"/><line class="cls-2" x1="69.67" y1="-10.67" x2="69.67" y2="4"/><line class="cls-2" x1="19.33" y1="-13.17" x2="19.33" y2="1.5"/><line class="cls-2" x1="25.83" y1="-12.33" x2="25.83" y2="2.33"/><line class="cls-2" x1="33.17" y1="-12" x2="33.17" y2="2.67"/><line class="cls-2" x1="31" y1="-13.17" x2="31" y2="1.5"/><line class="cls-2" x1="37.17" y1="-14.33" x2="37.17" y2="0.33"/><line class="cls-2" x1="55" y1="-14.33" x2="55" y2="0.33"/><line class="cls-2" x1="48" y1="-6.33" x2="48" y2="8.33"/><line class="cls-2" x1="39" y1="-8.33" x2="39" y2="6.33"/><line class="cls-2" x1="13" y1="-7.17" x2="13" y2="7.5"/><line class="cls-2" x1="10.33" y1="-9.5" x2="10.33" y2="5.17"/><line class="cls-2" x1="63.33" y1="-3.67" x2="63.33" y2="11"/><line class="cls-2" x1="60.83" y1="-4.33" x2="60.83" y2="10.33"/><line class="cls-2" x1="37.5" y1="-3.67" x2="37.5" y2="11"/><line class="cls-2" x1="68.67" y1="-3.67" x2="68.67" y2="11"/><line class="cls-2" x1="43.17" y1="-5.5" x2="43.17" y2="9.17"/><line class="cls-2" x1="16.83" y1="-4.33" x2="16.83" y2="10.33"/><line class="cls-2" x1="1.83" y1="-4.5" x2="1.83" y2="10.17"/><line class="cls-2" x1="6.83" y1="-6.5" x2="6.83" y2="8.17"/><line class="cls-2" x1="34.83" y1="-3.67" x2="34.83" y2="11"/><line class="cls-2" x1="58.5" y1="-12" x2="58.5" y2="2.67"/><line class="cls-2" x1="33.17" y1="-12" x2="33.17" y2="2.67"/></pattern><pattern id="USGS_8_Sewage_Disposal" data-name="USGS 8 Sewage Disposal" width="72" height="74.8" patternUnits="userSpaceOnUse" viewBox="0 0 72 74.8"><rect class="cls-1" width="72" height="74.8"/><line class="cls-10" x1="72" y1="73.95" x2="144" y2="73.95"/><line class="cls-10" x1="72" y1="72.25" x2="144" y2="72.25"/><line class="cls-10" x1="72" y1="70.55" x2="144" y2="70.55"/><line class="cls-10" x1="72" y1="68.85" x2="144" y2="68.85"/><line class="cls-10" x1="72" y1="67.15" x2="144" y2="67.15"/><line class="cls-10" x1="72" y1="65.45" x2="144" y2="65.45"/><line class="cls-10" x1="72" y1="63.75" x2="144" y2="63.75"/><line class="cls-10" x1="72" y1="62.05" x2="144" y2="62.05"/><line class="cls-10" x1="72" y1="60.35" x2="144" y2="60.35"/><line class="cls-10" x1="72" y1="58.65" x2="144" y2="58.65"/><line class="cls-10" x1="72" y1="56.95" x2="144" y2="56.95"/><line class="cls-10" x1="72" y1="55.25" x2="144" y2="55.25"/><line class="cls-10" x1="72" y1="53.55" x2="144" y2="53.55"/><line class="cls-10" x1="72" y1="51.85" x2="144" y2="51.85"/><line class="cls-10" x1="72" y1="50.15" x2="144" y2="50.15"/><line class="cls-10" x1="72" y1="48.45" x2="144" y2="48.45"/><line class="cls-10" x1="72" y1="46.75" x2="144" y2="46.75"/><line class="cls-10" x1="72" y1="45.05" x2="144" y2="45.05"/><line class="cls-10" x1="72" y1="43.35" x2="144" y2="43.35"/><line class="cls-10" x1="72" y1="41.65" x2="144" y2="41.65"/><line class="cls-10" x1="72" y1="39.95" x2="144" y2="39.95"/><line class="cls-10" x1="72" y1="38.25" x2="144" y2="38.25"/><line class="cls-10" x1="72" y1="36.55" x2="144" y2="36.55"/><line class="cls-10" x1="72" y1="34.85" x2="144" y2="34.85"/><line class="cls-10" x1="72" y1="33.15" x2="144" y2="33.15"/><line class="cls-10" x1="72" y1="31.45" x2="144" y2="31.45"/><line class="cls-10" x1="72" y1="29.75" x2="144" y2="29.75"/><line class="cls-10" x1="72" y1="28.05" x2="144" y2="28.05"/><line class="cls-10" x1="72" y1="26.35" x2="144" y2="26.35"/><line class="cls-10" x1="72" y1="24.65" x2="144" y2="24.65"/><line class="cls-10" x1="72" y1="22.95" x2="144" y2="22.95"/><line class="cls-10" x1="72" y1="21.25" x2="144" y2="21.25"/><line class="cls-10" x1="72" y1="19.55" x2="144" y2="19.55"/><line class="cls-10" x1="72" y1="17.85" x2="144" y2="17.85"/><line class="cls-10" x1="72" y1="16.15" x2="144" y2="16.15"/><line class="cls-10" x1="72" y1="14.45" x2="144" y2="14.45"/><line class="cls-10" x1="72" y1="12.75" x2="144" y2="12.75"/><line class="cls-10" x1="72" y1="11.05" x2="144" y2="11.05"/><line class="cls-10" x1="72" y1="9.35" x2="144" y2="9.35"/><line class="cls-10" x1="72" y1="7.65" x2="144" y2="7.65"/><line class="cls-10" x1="72" y1="5.95" x2="144" y2="5.95"/><line class="cls-10" x1="72" y1="4.25" x2="144" y2="4.25"/><line class="cls-10" x1="72" y1="2.55" x2="144" y2="2.55"/><line class="cls-10" x1="72" y1="0.85" x2="144" y2="0.85"/><line class="cls-10" y1="73.95" x2="72" y2="73.95"/><line class="cls-10" y1="72.25" x2="72" y2="72.25"/><line class="cls-10" y1="70.55" x2="72" y2="70.55"/><line class="cls-10" y1="68.85" x2="72" y2="68.85"/><line class="cls-10" y1="67.15" x2="72" y2="67.15"/><line class="cls-10" y1="65.45" x2="72" y2="65.45"/><line class="cls-10" y1="63.75" x2="72" y2="63.75"/><line class="cls-10" y1="62.05" x2="72" y2="62.05"/><line class="cls-10" y1="60.35" x2="72" y2="60.35"/><line class="cls-10" y1="58.65" x2="72" y2="58.65"/><line class="cls-10" y1="56.95" x2="72" y2="56.95"/><line class="cls-10" y1="55.25" x2="72" y2="55.25"/><line class="cls-10" y1="53.55" x2="72" y2="53.55"/><line class="cls-10" y1="51.85" x2="72" y2="51.85"/><line class="cls-10" y1="50.15" x2="72" y2="50.15"/><line class="cls-10" y1="48.45" x2="72" y2="48.45"/><line class="cls-10" y1="46.75" x2="72" y2="46.75"/><line class="cls-10" y1="45.05" x2="72" y2="45.05"/><line class="cls-10" y1="43.35" x2="72" y2="43.35"/><line class="cls-10" y1="41.65" x2="72" y2="41.65"/><line class="cls-10" y1="39.95" x2="72" y2="39.95"/><line class="cls-10" y1="38.25" x2="72" y2="38.25"/><line class="cls-10" y1="36.55" x2="72" y2="36.55"/><line class="cls-10" y1="34.85" x2="72" y2="34.85"/><line class="cls-10" y1="33.15" x2="72" y2="33.15"/><line class="cls-10" y1="31.45" x2="72" y2="31.45"/><line class="cls-10" y1="29.75" x2="72" y2="29.75"/><line class="cls-10" y1="28.05" x2="72" y2="28.05"/><line class="cls-10" y1="26.35" x2="72" y2="26.35"/><line class="cls-10" y1="24.65" x2="72" y2="24.65"/><line class="cls-10" y1="22.95" x2="72" y2="22.95"/><line class="cls-10" y1="21.25" x2="72" y2="21.25"/><line class="cls-10" y1="19.55" x2="72" y2="19.55"/><line class="cls-10" y1="17.85" x2="72" y2="17.85"/><line class="cls-10" y1="16.15" x2="72" y2="16.15"/><line class="cls-10" y1="14.45" x2="72" y2="14.45"/><line class="cls-10" y1="12.75" x2="72" y2="12.75"/><line class="cls-10" y1="11.05" x2="72" y2="11.05"/><line class="cls-10" y1="9.35" x2="72" y2="9.35"/><line class="cls-10" y1="7.65" x2="72" y2="7.65"/><line class="cls-10" y1="5.95" x2="72" y2="5.95"/><line class="cls-10" y1="4.25" x2="72" y2="4.25"/><line class="cls-10" y1="2.55" x2="72" y2="2.55"/><line class="cls-10" y1="0.85" x2="72" y2="0.85"/><line class="cls-10" x1="-72" y1="73.95" y2="73.95"/><line class="cls-10" x1="-72" y1="72.25" y2="72.25"/><line class="cls-10" x1="-72" y1="70.55" y2="70.55"/><line class="cls-10" x1="-72" y1="68.85" y2="68.85"/><line class="cls-10" x1="-72" y1="67.15" y2="67.15"/><line class="cls-10" x1="-72" y1="65.45" y2="65.45"/><line class="cls-10" x1="-72" y1="63.75" y2="63.75"/><line class="cls-10" x1="-72" y1="62.05" y2="62.05"/><line class="cls-10" x1="-72" y1="60.35" y2="60.35"/><line class="cls-10" x1="-72" y1="58.65" y2="58.65"/><line class="cls-10" x1="-72" y1="56.95" y2="56.95"/><line class="cls-10" x1="-72" y1="55.25" y2="55.25"/><line class="cls-10" x1="-72" y1="53.55" y2="53.55"/><line class="cls-10" x1="-72" y1="51.85" y2="51.85"/><line class="cls-10" x1="-72" y1="50.15" y2="50.15"/><line class="cls-10" x1="-72" y1="48.45" y2="48.45"/><line class="cls-10" x1="-72" y1="46.75" y2="46.75"/><line class="cls-10" x1="-72" y1="45.05" y2="45.05"/><line class="cls-10" x1="-72" y1="43.35" y2="43.35"/><line class="cls-10" x1="-72" y1="41.65" y2="41.65"/><line class="cls-10" x1="-72" y1="39.95" y2="39.95"/><line class="cls-10" x1="-72" y1="38.25" y2="38.25"/><line class="cls-10" x1="-72" y1="36.55" y2="36.55"/><line class="cls-10" x1="-72" y1="34.85" y2="34.85"/><line class="cls-10" x1="-72" y1="33.15" y2="33.15"/><line class="cls-10" x1="-72" y1="31.45" y2="31.45"/><line class="cls-10" x1="-72" y1="29.75" y2="29.75"/><line class="cls-10" x1="-72" y1="28.05" y2="28.05"/><line class="cls-10" x1="-72" y1="26.35" y2="26.35"/><line class="cls-10" x1="-72" y1="24.65" y2="24.65"/><line class="cls-10" x1="-72" y1="22.95" y2="22.95"/><line class="cls-10" x1="-72" y1="21.25" y2="21.25"/><line class="cls-10" x1="-72" y1="19.55" y2="19.55"/><line class="cls-10" x1="-72" y1="17.85" y2="17.85"/><line class="cls-10" x1="-72" y1="16.15" y2="16.15"/><line class="cls-10" x1="-72" y1="14.45" y2="14.45"/><line class="cls-10" x1="-72" y1="12.75" y2="12.75"/><line class="cls-10" x1="-72" y1="11.05" y2="11.05"/><line class="cls-10" x1="-72" y1="9.35" y2="9.35"/><line class="cls-10" x1="-72" y1="7.65" y2="7.65"/><line class="cls-10" x1="-72" y1="5.95" y2="5.95"/><line class="cls-10" x1="-72" y1="4.25" y2="4.25"/><line class="cls-10" x1="-72" y1="2.55" y2="2.55"/><line class="cls-10" x1="-72" y1="0.85" y2="0.85"/></pattern></defs><title>PKmojis</title><g class="cls-13"><g id="Full"><rect class="cls-14" x="27.68" y="3.98" width="72.64" height="120.04" rx="12" ry="12"/><circle class="cls-15" cx="90.17" cy="10.58" r="1.29"/><path d="M91.46,10.58a1.19,1.19,0,0,1,0,.35,1.36,1.36,0,0,1-1.81.92,1.36,1.36,0,0,1,0-2.52,1.36,1.36,0,0,1,1.81.92A1.2,1.2,0,0,1,91.46,10.58Zm0,0a1.19,1.19,0,0,0-.05-0.34,1.22,1.22,0,0,0-1.73-.76,1.23,1.23,0,0,0,0,2.21,1.22,1.22,0,0,0,1.73-.76A1.19,1.19,0,0,0,91.46,10.58Z"/><line class="cls-1" x1="90.57" y1="11.07" x2="91.01" y2="11.41"/><circle class="cls-1" cx="90.57" cy="11.07" r="0.46"/><circle class="cls-1" cx="90.57" cy="11.07" r="0.55"/><polyline class="cls-1" points="90.57 11.07 89.97 11.71 90.57 11.07 91.17 10.44 90.57 11.07 89.94 10.47 90.57 11.07 91.21 11.67 90.57 11.07 90.46 11.15 90.57 11.07 90.69 11 90.57 11.07 90.5 10.96 90.57 11.07 90.65 11.19 90.57 11.07 90.1 11.34 90.57 11.07 91.04 10.8 90.57 11.07 90.3 10.6 90.57 11.07 90.84 11.54 90.57 11.07 90.87 11.98 90.57 11.07 90.27 10.16 90.57 11.07 89.66 11.37 90.57 11.07 91.48 10.77 90.57 11.07 90.8 11.65 90.57 11.07 90.35 10.49 90.57 11.07 89.99 11.29 90.57 11.07 91.15 10.85 90.57 11.07 88.88 13.14 90.57 11.07 92.27 9.01 90.57 11.07 88.51 9.38 90.57 11.07 92.64 12.77 90.57 11.07 89.73 11.8 90.57 11.07 91.41 10.35 90.57 11.07 89.85 10.23 90.57 11.07 91.3 11.91 90.57 11.07 90.22 11.54 90.57 11.07 90.92 10.6 90.57 11.07 90.1 10.72 90.57 11.07 91.04 11.43 90.57 11.07 89.61 11.78 90.57 11.07 91.54 10.37 90.57 11.07 89.86 10.11 90.57 11.07 91.28 12.04 90.57 11.07 90.19 11.9 90.57 11.07 90.96 10.24 90.57 11.07 89.74 10.69 90.57 11.07 91.4 11.46 90.57 11.07 90.79 11.92 90.57 11.07 90.36 10.23 90.57 11.07 89.73 11.29 90.57 11.07 91.42 10.86 90.57 11.07 90.14 12.45 90.57 11.07 91 9.69 90.57 11.07 89.19 10.64 90.57 11.07 91.95 11.51 90.57 11.07 90.84 11.9 90.57 11.07 90.3 10.24 90.57 11.07 89.74 11.34 90.57 11.07 91.41 10.8 90.57 11.07 89.76 11.71 90.57 11.07 91.39 10.44 90.57 11.07 89.94 10.26 90.57 11.07 91.21 11.89 90.57 11.07 90.48 11.59 90.57 11.07 90.66 10.55 90.57 11.07 90.05 10.98 90.57 11.07 91.09 11.16"/><circle class="cls-16" cx="90.57" cy="11.07" r="1.11"/><circle class="cls-17" cx="90.57" cy="11.07" r="0.55"/><circle class="cls-18" cx="90.57" cy="11.07" r="0.46"/><polyline class="cls-19" points="90.57 11.07 89.97 11.71 90.57 11.07 91.17 10.44 90.57 11.07 89.94 10.47 90.57 11.07 91.21 11.67 90.57 11.07 90.46 11.15 90.57 11.07 90.69 11 90.57 11.07 90.5 10.96 90.57 11.07 90.65 11.19 90.57 11.07 90.1 11.34 90.57 11.07 91.04 10.8 90.57 11.07 90.3 10.6 90.57 11.07 90.84 11.54 90.57 11.07 90.87 11.98 90.57 11.07 90.27 10.16 90.57 11.07 89.66 11.37 90.57 11.07 91.48 10.77 90.57 11.07 90.8 11.65 90.57 11.07 90.35 10.49 90.57 11.07 89.99 11.29 90.57 11.07 91.15 10.85 90.57 11.07 88.88 13.14 90.57 11.07 92.27 9.01 90.57 11.07 88.51 9.38 90.57 11.07 92.64 12.77 90.57 11.07 89.73 11.8 90.57 11.07 91.41 10.35 90.57 11.07 89.85 10.23 90.57 11.07 91.3 11.91 90.57 11.07 90.22 11.54 90.57 11.07 90.92 10.6 90.57 11.07 90.1 10.72 90.57 11.07 91.04 11.43 90.57 11.07 89.61 11.78 90.57 11.07 91.54 10.37 90.57 11.07 89.86 10.11 90.57 11.07 91.28 12.04 90.57 11.07 90.19 11.9 90.57 11.07 90.96 10.24 90.57 11.07 89.74 10.69 90.57 11.07 91.4 11.46 90.57 11.07 90.79 11.92 90.57 11.07 90.36 10.23 90.57 11.07 89.73 11.29 90.57 11.07 91.42 10.86 90.57 11.07 90.14 12.45 90.57 11.07 91 9.69 90.57 11.07 89.19 10.64 90.57 11.07 91.95 11.51 90.57 11.07 90.84 11.9 90.57 11.07 90.3 10.24 90.57 11.07 89.74 11.34 90.57 11.07 91.41 10.8 90.57 11.07 89.76 11.71 90.57 11.07 91.39 10.44 90.57 11.07 89.94 10.26 90.57 11.07 91.21 11.89 90.57 11.07 90.48 11.59 90.57 11.07 90.66 10.55 90.57 11.07 90.05 10.98 90.57 11.07 91.09 11.16"/><rect class="cls-20" x="37.07" y="15.78" width="54.4" height="92.18"/><path d="M43.16,46.1a16.37,16.37,0,0,1,1.73-1.56c0.54-.44,1.18-0.91,1.89-1.39,0.36-.23.72-0.5,1.1-0.72l1.16-.7c0.8-.44,1.59-0.88,2.37-1.25s1.5-.69,2.15-0.94a16.51,16.51,0,0,1,2.21-.72l0,0.09-6.28,3.68-6.33,3.6Z"/><path d="M71.78,39a16.37,16.37,0,0,1,2.15.88c0.63,0.3,1.33.67,2.07,1.1,0.36,0.22.76,0.43,1.13,0.68l1.14,0.74c0.74,0.53,1.48,1.05,2.15,1.6s1.28,1.06,1.78,1.53a16.51,16.51,0,0,1,1.6,1.69l-0.06.08-6-4.07-6-4.16Z"/><path class="cls-21" d="M45.21,52.77c6.4-9.61,10.71-3.73,13.05-.45"/><path class="cls-21" d="M70.21,52.77c6.4-9.61,10.71-3.73,13.05-.45"/><rect class="cls-22" x="51.74" y="7.64" width="22.44" height="4.23" rx="2.12" ry="2.12"/><path d="M72.06,11.92c-0.9,0-1.79,0-2.69.06l-2.69.16c-1.79.12-3.59,0.2-5.38,0.18s-3.59-.12-5.38-0.2l-1.35-.06a5.32,5.32,0,0,1-1.38-.13,2.36,2.36,0,0,1-1.62-2.18h0a2.39,2.39,0,0,1,2-2.37c0.57,0,1.05-.05,1.58-0.08l1.55-.06c2.07-.07,4.14-0.09,6.21-0.13s4.14,0,6.21,0L70.73,7.2c0.53,0,1,0,1.57.1a2.39,2.39,0,0,1,2,2.45h0a2.33,2.33,0,0,1-.72,1.55A2.23,2.23,0,0,1,72.06,11.92Zm0-.1a2,2,0,0,0,1.44-.63A1.92,1.92,0,0,0,74,9.75h0a1.92,1.92,0,0,0-.58-1.25A1.83,1.83,0,0,0,72.26,8l-1.54.08-1.55.06c-2.07,0-4.14.07-6.21,0S58.82,8.1,56.75,8L55.19,8c-0.51,0-1.06-.06-1.53-0.06a1.89,1.89,0,0,0-1.23.57,1.85,1.85,0,0,0-.53,1.28h0a2,2,0,0,0,.37,1.16,1.91,1.91,0,0,0,1,.71,4.32,4.32,0,0,0,1.29.06l1.35-.06c1.79-.08,3.59-0.19,5.38-0.2s3.59,0.06,5.38.18l2.69,0.16C70.27,11.8,71.16,11.82,72.06,11.82Z"/><circle class="cls-21" cx="77.3" cy="10.09" r="1.05"/><circle class="cls-21" cx="80.77" cy="10.09" r="1.05"/><circle class="cls-23" cx="89.44" cy="10.02" r="4.02"/><path d="M92.92,10.53v0.2a2.65,2.65,0,0,1-.09.57A3.21,3.21,0,0,1,91.69,13a3.11,3.11,0,0,1-1.31.6l-0.41,0a2.79,2.79,0,0,1-.4,0,3.15,3.15,0,0,1-.86-0.18,3.09,3.09,0,0,1-1.48-1.11,3.22,3.22,0,0,1-.6-1.88,3.71,3.71,0,0,1,.16-1,3.11,3.11,0,0,1,1.92-2,3.2,3.2,0,0,1,1.66-.13,3.09,3.09,0,0,1,1.33.6,3.22,3.22,0,0,1,1.13,1.72,2.65,2.65,0,0,1,.09.57v0.2Zm0,0v-0.2a2.63,2.63,0,0,0-.11-0.56,2.6,2.6,0,0,0-1.23-1.54,2.78,2.78,0,0,0-1.23-.34A2.61,2.61,0,0,0,89,8.2a2.81,2.81,0,0,0-1,1,3.39,3.39,0,0,0-.28.65,2.75,2.75,0,0,0-.09.72A2.68,2.68,0,0,0,88,11.87a2.8,2.8,0,0,0,1,1,2.55,2.55,0,0,0,.64.25,2.31,2.31,0,0,0,.36.06h0.33a2.78,2.78,0,0,0,1.24-.34,2.67,2.67,0,0,0,1.33-2.11v-0.2Z"/><rect class="cls-24" x="47.83" y="112" width="31.67" height="7.5" rx="3.75" ry="3.75"/><path d="M75.75,119.5q-1.88,0-3.76.14c-1.25.07-2.5,0.21-3.76,0.27-0.63,0-1.25.09-1.88,0.1H53.21c-0.64,0-1.23,0-1.9,0a4.18,4.18,0,0,1-2-.66,4.27,4.27,0,0,1-2-3.58h0a4.26,4.26,0,0,1,2.71-4,4.11,4.11,0,0,1,1.24-.28c0.45,0,.77,0,1.16,0H74.9c0.39,0,.72,0,1.15,0a4.15,4.15,0,0,1,1.25.28,3.68,3.68,0,0,1,1.92,1.59,4,4,0,0,1,.58,2.37h0a4.06,4.06,0,0,1-1.33,2.71,4.25,4.25,0,0,1-1.27.77A3.9,3.9,0,0,1,75.75,119.5Zm0,0a3.6,3.6,0,0,0,1.43-.31,3.38,3.38,0,0,0,1.16-.86,3.64,3.64,0,0,0,.71-1.22,3.46,3.46,0,0,0,.16-1.36h0a3.53,3.53,0,0,0-.73-1.86,4.23,4.23,0,0,0-1.55-1.16,3.07,3.07,0,0,0-.93-0.21c-0.32,0-.73,0-1.1,0H52.44a5,5,0,0,0-2,.23,3.26,3.26,0,0,0-2.07,3h0a3.27,3.27,0,0,0,1.51,2.73,3.19,3.19,0,0,0,1.52.5c0.57,0,1.24,0,1.85,0H66.36c0.63,0,1.25.06,1.88,0.1,1.25,0.06,2.5.2,3.76,0.27S74.5,119.5,75.75,119.5Z"/><rect class="cls-25" x="79.96" y="21.95" width="4" height="6.03"/><rect class="cls-25" x="80.95" y="20.94" width="2.02" height="1.01"/><rect class="cls-26" x="79.96" y="22.9" width="4" height="5.05"/><path class="cls-27" d="M47.83,72S65.1,88.83,80,72c-5.3,16-5.6,24-15.7,24S47.17,74.5,47.83,72Z"/><path class="cls-28" d="M76,81.69c0.69-2.28,1.46-4.84,2.4-7.69-13.22,15-28.56,0-28.56,0-0.2.77,0.4,3.55,1.66,6.87C56.63,84.32,66.44,88.81,76,81.69Z"/><path class="cls-29" d="M64.4,95c6.65,0,8.78-3.85,11.34-10.53-8.84,5.23-18.87,2.19-23.63-.35C54.31,88.74,59,95,64.4,95Z"/><path d="M65.75,91.81s0-.13-0.11-0.35-0.17-.53-0.29-0.88a10.27,10.27,0,0,0-.51-1.16c-0.09-.21-0.23-0.4-0.34-0.61a5.64,5.64,0,0,0-.41-0.58,5.16,5.16,0,0,0-.45-0.54c-0.17-.15-0.32-0.33-0.5-0.46a5.45,5.45,0,0,0-1-.69,5.77,5.77,0,0,0-.84-0.36l-0.35-.12L61.3,86a3,3,0,0,1,1,0,3.42,3.42,0,0,1,.66.17,3.8,3.8,0,0,1,.69.34,4.46,4.46,0,0,1,1.23,1.11,5,5,0,0,1,.77,1.45,4.71,4.71,0,0,1,.26,1.39,3.64,3.64,0,0,1,0,.56,2.26,2.26,0,0,1-.06.42C65.79,91.68,65.75,91.81,65.75,91.81Z"/></g></g></svg>