<svg id="Sip" xmlns="http://www.w3.org/2000/svg" xmlns:xlink="http://www.w3.org/1999/xlink" viewBox="0 0 128 128"><defs><style>.cls-1,.cls-2{fill:none;}.cls-2{stroke:#231f20;stroke-linejoin:round;stroke-width:0.3px;}.cls-3{fill:#231f20;}.cls-4{fill:url(#Diagonal_Lines);}.cls-5{fill:url(#Stipple_Fine);}.cls-6{fill:url(#Orchid);}.cls-7{fill:url(#Orchid-2);}.cls-8{stroke:#000;stroke-miterlimit:10;}</style><pattern id="Diagonal_Lines" data-name="Diagonal Lines" width="72" height="72" patternTransform="translate(-119.41 -98.03) scale(1.44)" patternUnits="userSpaceOnUse" viewBox="0 0 72 72"><rect class="cls-1" width="72" height="72"/><line class="cls-2" x1="64.52" y1="82.52" x2="82.52" y2="64.52"/><line class="cls-2" x1="64.52" y1="88.52" x2="88.52" y2="64.52"/><line class="cls-2" x1="64.52" y1="94.52" x2="94.52" y2="64.52"/><line class="cls-2" x1="64.52" y1="100.52" x2="100.52" y2="64.52"/><line class="cls-2" x1="64.52" y1="106.52" x2="106.52" y2="64.52"/><line class="cls-2" x1="64.52" y1="112.52" x2="112.52" y2="64.52"/><line class="cls-2" x1="64.52" y1="118.52" x2="118.52" y2="64.52"/><line class="cls-2" x1="64.52" y1="124.52" x2="124.52" y2="64.52"/><line class="cls-2" x1="64.52" y1="130.52" x2="130.52" y2="64.52"/><line class="cls-2" x1="64.52" y1="136.52" x2="136.52" y2="64.52"/><line class="cls-2" x1="64.52" y1="142.52" x2="142.52" y2="64.52"/><line class="cls-2" x1="64.52" y1="148.51" x2="148.52" y2="64.52"/><line class="cls-2" x1="70.52" y1="148.51" x2="148.52" y2="70.52"/><line class="cls-2" x1="-7.48" y1="82.52" x2="10.52" y2="64.52"/><line class="cls-2" x1="-7.48" y1="88.52" x2="16.52" y2="64.52"/><line class="cls-2" x1="-7.48" y1="94.52" x2="22.52" y2="64.52"/><line class="cls-2" x1="-7.48" y1="100.52" x2="28.52" y2="64.52"/><line class="cls-2" x1="-7.48" y1="106.52" x2="34.52" y2="64.52"/><line class="cls-2" x1="-7.48" y1="112.52" x2="40.52" y2="64.52"/><line class="cls-2" x1="-7.48" y1="118.52" x2="46.52" y2="64.52"/><line class="cls-2" x1="-7.48" y1="124.52" x2="52.52" y2="64.52"/><line class="cls-2" x1="-7.48" y1="130.52" x2="58.52" y2="64.52"/><line class="cls-2" x1="-7.48" y1="136.52" x2="64.52" y2="64.52"/><line class="cls-2" x1="-7.48" y1="142.52" x2="70.52" y2="64.52"/><line class="cls-2" x1="-7.48" y1="148.51" x2="76.52" y2="64.52"/><line class="cls-2" x1="-1.48" y1="148.51" x2="76.52" y2="70.52"/><line class="cls-2" x1="-79.48" y1="148.51" x2="4.52" y2="64.52"/><line class="cls-2" x1="-73.48" y1="148.51" x2="4.52" y2="70.52"/><line class="cls-2" x1="64.52" y1="10.52" x2="82.52" y2="-7.48"/><line class="cls-2" x1="64.52" y1="16.52" x2="88.52" y2="-7.48"/><line class="cls-2" x1="64.52" y1="22.52" x2="94.52" y2="-7.48"/><line class="cls-2" x1="64.52" y1="28.52" x2="100.52" y2="-7.48"/><line class="cls-2" x1="64.52" y1="34.52" x2="106.52" y2="-7.48"/><line class="cls-2" x1="64.52" y1="40.52" x2="112.52" y2="-7.48"/><line class="cls-2" x1="64.52" y1="46.52" x2="118.52" y2="-7.48"/><line class="cls-2" x1="64.52" y1="52.52" x2="124.52" y2="-7.48"/><line class="cls-2" x1="64.52" y1="58.52" x2="130.52" y2="-7.48"/><line class="cls-2" x1="64.52" y1="64.52" x2="136.52" y2="-7.48"/><line class="cls-2" x1="64.52" y1="70.52" x2="142.52" y2="-7.48"/><line class="cls-2" x1="64.52" y1="76.51" x2="148.52" y2="-7.48"/><line class="cls-2" x1="70.52" y1="76.51" x2="148.52" y2="-1.48"/><line class="cls-2" x1="-7.48" y1="10.52" x2="10.52" y2="-7.48"/><line class="cls-2" x1="-7.48" y1="16.52" x2="16.52" y2="-7.48"/><line class="cls-2" x1="-7.48" y1="22.52" x2="22.52" y2="-7.48"/><line class="cls-2" x1="-7.48" y1="28.52" x2="28.52" y2="-7.48"/><line class="cls-2" x1="-7.48" y1="34.52" x2="34.52" y2="-7.48"/><line class="cls-2" x1="-7.48" y1="40.52" x2="40.52" y2="-7.48"/><line class="cls-2" x1="-7.48" y1="46.52" x2="46.52" y2="-7.48"/><line class="cls-2" x1="-7.48" y1="52.52" x2="52.52" y2="-7.48"/><line class="cls-2" x1="-7.48" y1="58.52" x2="58.52" y2="-7.48"/><line class="cls-2" x1="-7.48" y1="64.52" x2="64.52" y2="-7.48"/><line class="cls-2" x1="-7.48" y1="70.52" x2="70.52" y2="-7.48"/><line class="cls-2" x1="-7.48" y1="76.51" x2="76.52" y2="-7.48"/><line class="cls-2" x1="-1.48" y1="76.51" x2="76.52" y2="-1.48"/><line class="cls-2" x1="4.52" y1="76.51" x2="76.52" y2="4.52"/><line class="cls-2" x1="10.52" y1="76.51" x2="76.52" y2="10.52"/><line class="cls-2" x1="16.52" y1="76.51" x2="76.52" y2="16.52"/><line class="cls-2" x1="22.52" y1="76.51" x2="76.52" y2="22.52"/><line class="cls-2" x1="28.52" y1="76.51" x2="76.52" y2="28.52"/><line class="cls-2" x1="34.52" y1="76.51" x2="76.52" y2="34.52"/><line class="cls-2" x1="40.52" y1="76.51" x2="76.52" y2="40.52"/><line class="cls-2" x1="46.52" y1="76.51" x2="76.52" y2="46.52"/><line class="cls-2" x1="52.52" y1="76.51" x2="76.52" y2="52.52"/><line class="cls-2" x1="58.52" y1="76.51" x2="76.52" y2="58.52"/><line class="cls-2" x1="64.52" y1="76.51" x2="76.52" y2="64.52"/><line class="cls-2" x1="-79.48" y1="76.51" x2="4.52" y2="-7.48"/><line class="cls-2" x1="-73.48" y1="76.51" x2="4.52" y2="-1.48"/><line class="cls-2" x1="-67.48" y1="76.51" x2="4.52" y2="4.52"/><line class="cls-2" x1="-61.48" y1="76.51" x2="4.52" y2="10.52"/><line class="cls-2" x1="-55.48" y1="76.51" x2="4.52" y2="16.52"/><line class="cls-2" x1="-49.48" y1="76.51" x2="4.52" y2="22.52"/><line class="cls-2" x1="-43.48" y1="76.51" x2="4.52" y2="28.52"/><line class="cls-2" x1="-37.48" y1="76.51" x2="4.52" y2="34.52"/><line class="cls-2" x1="-31.48" y1="76.51" x2="4.52" y2="40.52"/><line class="cls-2" x1="-25.48" y1="76.51" x2="4.52" y2="46.52"/><line class="cls-2" x1="-19.48" y1="76.51" x2="4.52" y2="52.52"/><line class="cls-2" x1="-13.48" y1="76.51" x2="4.52" y2="58.52"/><line class="cls-2" x1="-7.48" y1="76.51" x2="4.52" y2="64.52"/><line class="cls-2" x1="64.52" y1="4.51" x2="148.52" y2="-79.48"/><line class="cls-2" x1="70.52" y1="4.51" x2="148.52" y2="-73.48"/><line class="cls-2" x1="-7.48" y1="4.51" x2="76.52" y2="-79.48"/><line class="cls-2" x1="-1.48" y1="4.51" x2="76.52" y2="-73.48"/><line class="cls-2" x1="4.52" y1="4.51" x2="76.52" y2="-67.48"/><line class="cls-2" x1="10.52" y1="4.51" x2="76.52" y2="-61.48"/><line class="cls-2" x1="16.52" y1="4.51" x2="76.52" y2="-55.48"/><line class="cls-2" x1="22.52" y1="4.51" x2="76.52" y2="-49.48"/><line class="cls-2" x1="28.52" y1="4.51" x2="76.52" y2="-43.48"/><line class="cls-2" x1="34.52" y1="4.51" x2="76.52" y2="-37.48"/><line class="cls-2" x1="40.52" y1="4.51" x2="76.52" y2="-31.48"/><line class="cls-2" x1="46.52" y1="4.51" x2="76.52" y2="-25.48"/><line class="cls-2" x1="52.52" y1="4.51" x2="76.52" y2="-19.48"/><line class="cls-2" x1="58.52" y1="4.51" x2="76.52" y2="-13.48"/><line class="cls-2" x1="64.52" y1="4.51" x2="76.52" y2="-7.48"/><line class="cls-2" x1="-79.48" y1="4.51" x2="4.52" y2="-79.48"/><line class="cls-2" x1="-73.48" y1="4.51" x2="4.52" y2="-73.48"/><line class="cls-2" x1="-67.48" y1="4.51" x2="4.52" y2="-67.48"/><line class="cls-2" x1="-61.48" y1="4.51" x2="4.52" y2="-61.48"/><line class="cls-2" x1="-55.48" y1="4.51" x2="4.52" y2="-55.48"/><line class="cls-2" x1="-49.48" y1="4.51" x2="4.52" y2="-49.48"/><line class="cls-2" x1="-43.48" y1="4.51" x2="4.52" y2="-43.48"/><line class="cls-2" x1="-37.48" y1="4.51" x2="4.52" y2="-37.48"/><line class="cls-2" x1="-31.48" y1="4.51" x2="4.52" y2="-31.48"/><line class="cls-2" x1="-25.48" y1="4.51" x2="4.52" y2="-25.48"/><line class="cls-2" x1="-19.48" y1="4.51" x2="4.52" y2="-19.48"/><line class="cls-2" x1="-13.48" y1="4.51" x2="4.52" y2="-13.48"/><line class="cls-2" x1="-7.48" y1="4.51" x2="4.52" y2="-7.48"/></pattern><pattern id="Stipple_Fine" data-name="Stipple Fine" width="72" height="72" patternTransform="translate(-119.41 -98.03) scale(1.44)" patternUnits="userSpaceOnUse" viewBox="0 0 72 72"><rect class="cls-1" width="72" height="72"/><path class="cls-3" d="M56.43,72.69a0.35,0.35,0,0,1-.26-0.11,0.38,0.38,0,0,1-.11-0.27A0.36,0.36,0,0,1,56.17,72a0.4,0.4,0,0,1,.53,0,0.36,0.36,0,0,1,.11.26,0.38,0.38,0,0,1-.11.27A0.37,0.37,0,0,1,56.43,72.69Z"/><path class="cls-3" d="M3.75,72.13A0.35,0.35,0,0,1,3.48,72a0.35,0.35,0,0,1-.11-0.26,0.36,0.36,0,0,1,.11-0.26,0.39,0.39,0,0,1,.53,0,0.36,0.36,0,0,1,.11.26A0.39,0.39,0,0,1,4,72,0.36,0.36,0,0,1,3.75,72.13Z"/><path class="cls-3" d="M18.56,72.13A0.36,0.36,0,0,1,18.29,72a0.36,0.36,0,0,1-.11-0.26,0.34,0.34,0,0,1,.12-0.26,0.38,0.38,0,0,1,.53,0,0.4,0.4,0,0,1,.1.26,0.39,0.39,0,0,1-.1.27A0.4,0.4,0,0,1,18.56,72.13Z"/><path class="cls-3" d="M40.31,72.31A0.35,0.35,0,0,1,40,72.2a0.34,0.34,0,0,1-.1-0.26,0.35,0.35,0,0,1,.1-0.26,0.39,0.39,0,0,1,.54,0,0.37,0.37,0,0,1,.1.27,0.39,0.39,0,0,1-.11.27A0.34,0.34,0,0,1,40.31,72.31Z"/><path class="cls-3" d="M12.93,69.88a0.32,0.32,0,0,1-.26-0.12,0.35,0.35,0,0,1-.11-0.26,0.38,0.38,0,0,1,.11-0.27,0.4,0.4,0,0,1,.53,0,0.35,0.35,0,0,1,.11.26,0.39,0.39,0,0,1-.11.27A0.37,0.37,0,0,1,12.93,69.88Z"/><path class="cls-3" d="M1.12,69.69a0.39,0.39,0,0,1-.27-0.11,0.42,0.42,0,0,1-.1-0.26A0.39,0.39,0,0,1,.86,69a0.4,0.4,0,0,1,.53,0,0.39,0.39,0,0,1,.11.27,0.38,0.38,0,0,1-.11.26A0.38,0.38,0,0,1,1.12,69.69Z"/><path class="cls-3" d="M10.5,68.38a0.35,0.35,0,0,1-.27-0.12A0.39,0.39,0,0,1,10.12,68a0.36,0.36,0,0,1,.11-0.26,0.39,0.39,0,0,1,.53,0,0.36,0.36,0,0,1,.11.26,0.39,0.39,0,0,1-.11.27A0.36,0.36,0,0,1,10.5,68.38Z"/><path class="cls-3" d="M19.68,67.25a0.38,0.38,0,0,1-.26-0.11,0.36,0.36,0,0,1-.11-0.26,0.37,0.37,0,0,1,.11-0.27,0.38,0.38,0,0,1,.64.27,0.36,0.36,0,0,1-.11.26A0.39,0.39,0,0,1,19.68,67.25Z"/><path class="cls-3" d="M3.75,72.13A0.35,0.35,0,0,1,3.48,72a0.39,0.39,0,0,1-.11-0.26,0.36,0.36,0,0,1,.11-0.26,0.4,0.4,0,0,1,.53,0,0.33,0.33,0,0,1,.11.26A0.39,0.39,0,0,1,4,72,0.36,0.36,0,0,1,3.75,72.13Z"/><path class="cls-3" d="M7.12,65.75a0.39,0.39,0,0,1-.27-0.11,0.4,0.4,0,0,1-.1-0.26,0.37,0.37,0,0,1,.11-0.27,0.4,0.4,0,0,1,.53,0,0.37,0.37,0,0,1,.11.27,0.36,0.36,0,0,1-.11.26A0.38,0.38,0,0,1,7.12,65.75Z"/><path class="cls-3" d="M24.56,70.63a0.36,0.36,0,0,1-.27-0.12,0.34,0.34,0,0,1-.1-0.26A0.33,0.33,0,0,1,24.3,70a0.39,0.39,0,0,1,.53,0,0.36,0.36,0,0,1,.11.26A0.38,0.38,0,0,1,24.56,70.63Z"/><path class="cls-3" d="M27,71.94a0.34,0.34,0,0,1-.27-0.12,0.32,0.32,0,0,1-.11-0.25,0.34,0.34,0,0,1,.12-0.27,0.38,0.38,0,0,1,.52,0,0.35,0.35,0,0,1,.11.27,0.38,0.38,0,0,1-.11.26A0.36,0.36,0,0,1,27,71.94Z"/><path class="cls-3" d="M29.06,67.63a0.4,0.4,0,0,1-.27-0.12,0.38,0.38,0,0,1-.1-0.26A0.36,0.36,0,0,1,28.8,67a0.38,0.38,0,0,1,.53,0,0.4,0.4,0,0,1,.1.26,0.38,0.38,0,0,1-.1.27A0.38,0.38,0,0,1,29.06,67.63Z"/><path class="cls-3" d="M40.87,66.69a0.36,0.36,0,0,1-.26-0.11,0.37,0.37,0,0,1,0-.53,0.39,0.39,0,0,1,.53,0,0.38,0.38,0,0,1,.11.26A0.38,0.38,0,0,1,40.87,66.69Z"/><path class="cls-3" d="M49.31,68A0.39,0.39,0,0,1,49,67.89a0.41,0.41,0,0,1-.11-0.26,0.4,0.4,0,0,1,.12-0.27,0.38,0.38,0,0,1,.52,0,0.36,0.36,0,0,1,.12.27,0.38,0.38,0,0,1-.11.26A0.39,0.39,0,0,1,49.31,68Z"/><path class="cls-3" d="M35.06,66.13A0.39,0.39,0,0,1,34.79,66a0.41,0.41,0,0,1-.1-0.27,0.39,0.39,0,0,1,.11-0.27,0.4,0.4,0,0,1,.53,0,0.39,0.39,0,0,1,.11.26,0.4,0.4,0,0,1-.12.27A0.35,0.35,0,0,1,35.06,66.13Z"/><path class="cls-3" d="M24.56,66.13A0.36,0.36,0,0,1,24.29,66a0.34,0.34,0,0,1-.1-0.26,0.39,0.39,0,0,1,.11-0.27,0.4,0.4,0,0,1,.53,0,0.39,0.39,0,0,1,.11.26A0.38,0.38,0,0,1,24.56,66.13Z"/><path class="cls-3" d="M15.18,66.13A0.34,0.34,0,0,1,14.92,66a0.35,0.35,0,0,1-.11-0.26,0.36,0.36,0,0,1,.11-0.26,0.38,0.38,0,0,1,.53,0,0.36,0.36,0,0,1,.11.26A0.38,0.38,0,0,1,15.18,66.13Z"/><path class="cls-3" d="M43.87,63.5a0.38,0.38,0,0,1-.26-0.11,0.34,0.34,0,0,1-.11-0.26,0.37,0.37,0,0,1,.11-0.27,0.38,0.38,0,0,1,.64.27,0.32,0.32,0,0,1-.12.26A0.35,0.35,0,0,1,43.87,63.5Z"/><path class="cls-3" d="M46.68,71.75a0.36,0.36,0,0,1-.26-0.11,0.36,0.36,0,0,1-.11-0.26,0.38,0.38,0,1,1,.75,0,0.36,0.36,0,0,1-.11.26A0.37,0.37,0,0,1,46.68,71.75Z"/><path class="cls-3" d="M18.56,72.13A0.36,0.36,0,0,1,18.29,72a0.39,0.39,0,0,1-.11-0.26,0.34,0.34,0,0,1,.12-0.26,0.38,0.38,0,0,1,.53,0,0.4,0.4,0,0,1,.1.26,0.39,0.39,0,0,1-.11.27A0.36,0.36,0,0,1,18.56,72.13Z"/><path class="cls-3" d="M32.43,70.82a0.38,0.38,0,0,1-.26-0.11,0.38,0.38,0,0,1-.11-0.27,0.36,0.36,0,0,1,.11-0.26,0.39,0.39,0,0,1,.53,0,0.4,0.4,0,0,1,.11.27A0.38,0.38,0,0,1,32.43,70.82Z"/><path class="cls-3" d="M40.31,72.32A0.4,0.4,0,0,1,40,72.2a0.37,0.37,0,1,1,.64-0.26A0.38,0.38,0,0,1,40.31,72.32Z"/><path class="cls-3" d="M50.62,48.5a0.38,0.38,0,0,1-.37-0.37,0.38,0.38,0,1,1,.75,0,0.34,0.34,0,0,1-.11.26A0.38,0.38,0,0,1,50.62,48.5Z"/><path class="cls-3" d="M58.31,48.13A0.36,0.36,0,0,1,58,48a0.39,0.39,0,0,1-.11-0.26,0.34,0.34,0,0,1,.12-0.26,0.39,0.39,0,0,1,.53,0,0.36,0.36,0,0,1,.11.26,0.4,0.4,0,0,1-.12.27A0.36,0.36,0,0,1,58.31,48.13Z"/><path class="cls-3" d="M62.81,48.69a0.39,0.39,0,0,1-.27-0.11,0.38,0.38,0,0,1-.11-0.26A0.39,0.39,0,0,1,62.54,48a0.4,0.4,0,0,1,.54,0,0.39,0.39,0,0,1,.11.27,0.38,0.38,0,0,1-.11.26A0.39,0.39,0,0,1,62.81,48.69Z"/><path class="cls-3" d="M66.93,71a0.35,0.35,0,0,1-.26-0.11,0.36,0.36,0,0,1-.11-0.26,0.38,0.38,0,0,1,.11-0.27,0.4,0.4,0,0,1,.53,0,0.37,0.37,0,0,1,.11.27,0.36,0.36,0,0,1-.11.26A0.37,0.37,0,0,1,66.93,71Z"/><path class="cls-3" d="M52.31,61.25A0.39,0.39,0,0,1,52,61.14a0.36,0.36,0,0,1-.11-0.26A0.39,0.39,0,0,1,52,60.61a0.4,0.4,0,0,1,.54,0,0.38,0.38,0,0,1,.1.27,0.35,0.35,0,0,1-.1.26A0.39,0.39,0,0,1,52.31,61.25Z"/><path class="cls-3" d="M70.5,55.25a0.38,0.38,0,0,1-.27-0.11,0.36,0.36,0,0,1-.11-0.26,0.34,0.34,0,0,1,.12-0.27,0.39,0.39,0,0,1,.53,0,0.38,0.38,0,0,1,.1.26A0.38,0.38,0,0,1,70.5,55.25Z"/><path class="cls-3" d="M71.06,68.38a0.4,0.4,0,0,1-.27-0.12,0.38,0.38,0,0,1-.1-0.26,0.39,0.39,0,0,1,.11-0.27,0.4,0.4,0,0,1,.53,0,0.39,0.39,0,0,1,.11.26A0.38,0.38,0,0,1,71.06,68.38Z"/><path class="cls-3" d="M63.94,53.19a0.37,0.37,0,0,1-.27-0.11,0.34,0.34,0,0,1-.11-0.26,0.37,0.37,0,0,1,.64-0.27,0.37,0.37,0,0,1,.11.27A0.37,0.37,0,0,1,63.94,53.19Z"/><path class="cls-3" d="M61.87,71.94a0.39,0.39,0,0,1-.27-0.11,0.4,0.4,0,0,1-.1-0.26,0.39,0.39,0,0,1,.11-0.27,0.4,0.4,0,0,1,.53,0,0.39,0.39,0,0,1,.11.27,0.33,0.33,0,0,1-.12.26A0.35,0.35,0,0,1,61.87,71.94Z"/><path class="cls-3" d="M53.62,52.82a0.37,0.37,0,0,1-.26-0.12,0.35,0.35,0,0,1-.11-0.26,0.38,0.38,0,0,1,.11-0.27,0.39,0.39,0,0,1,.53,0,0.38,0.38,0,0,1,.11.27,0.4,0.4,0,0,1-.11.27A0.43,0.43,0,0,1,53.62,52.82Z"/><path class="cls-3" d="M51.75,67.07a0.39,0.39,0,0,1-.27-0.12,0.35,0.35,0,0,1-.11-0.26,0.4,0.4,0,0,1,.11-0.27,0.38,0.38,0,0,1,.53,0,0.36,0.36,0,0,1,.11.26A0.39,0.39,0,0,1,52,67,0.41,0.41,0,0,1,51.75,67.07Z"/><path class="cls-3" d="M57.37,55.44a0.35,0.35,0,0,1-.26-0.11A0.36,0.36,0,0,1,57,55.07a0.39,0.39,0,0,1,.11-0.27,0.4,0.4,0,0,1,.53,0,0.39,0.39,0,0,1,.11.27,0.38,0.38,0,0,1-.11.26A0.38,0.38,0,0,1,57.37,55.44Z"/><path class="cls-3" d="M60.94,56.19a0.37,0.37,0,0,1-.27-0.11,0.36,0.36,0,0,1-.11-0.26,0.35,0.35,0,0,1,.11-0.27,0.4,0.4,0,0,1,.53,0,0.37,0.37,0,0,1,.11.27,0.38,0.38,0,0,1-.11.26A0.36,0.36,0,0,1,60.94,56.19Z"/><path class="cls-3" d="M56.43,69.69a0.38,0.38,0,0,1-.37-0.37,0.38,0.38,0,1,1,.75,0,0.38,0.38,0,0,1-.11.26A0.4,0.4,0,0,1,56.43,69.69Z"/><path class="cls-3" d="M61.31,63.5A0.39,0.39,0,0,1,61,63.39a0.38,0.38,0,0,1-.11-0.26,0.36,0.36,0,0,1,.12-0.27,0.38,0.38,0,0,1,.52,0,0.36,0.36,0,0,1,.12.27,0.38,0.38,0,0,1-.11.26A0.39,0.39,0,0,1,61.31,63.5Z"/><path class="cls-3" d="M57.94,61.82a0.38,0.38,0,0,1-.27-0.12,0.36,0.36,0,0,1-.11-0.26,0.4,0.4,0,0,1,.11-0.27,0.38,0.38,0,0,1,.52,0,0.37,0.37,0,0,1,.12.27,0.36,0.36,0,0,1-.11.26A0.35,0.35,0,0,1,57.94,61.82Z"/><path class="cls-3" d="M67.12,65.19a0.39,0.39,0,0,1-.27-0.11,0.38,0.38,0,0,1-.1-0.26,0.37,0.37,0,0,1,.11-0.27,0.4,0.4,0,0,1,.53,0,0.39,0.39,0,0,1,.11.27,0.33,0.33,0,0,1-.12.26A0.35,0.35,0,0,1,67.12,65.19Z"/><path class="cls-3" d="M69.19,60.32a0.38,0.38,0,0,1-.27-0.12,0.35,0.35,0,0,1-.11-0.26,0.37,0.37,0,0,1,.64-0.26,0.35,0.35,0,0,1,.11.26,0.36,0.36,0,0,1-.12.27A0.36,0.36,0,0,1,69.19,60.32Z"/><path class="cls-3" d="M65.06,59.19a0.38,0.38,0,0,1-.38-0.38,0.38,0.38,0,0,1,.12-0.26,0.4,0.4,0,0,1,.53,0,0.41,0.41,0,0,1,.11.26A0.38,0.38,0,0,1,65.06,59.19Z"/><path class="cls-3" d="M1.69,56.94a0.35,0.35,0,0,1-.27-0.11,0.38,0.38,0,0,1-.11-0.26,0.39,0.39,0,0,1,.11-0.27,0.4,0.4,0,0,1,.53,0,0.39,0.39,0,0,1,.11.27A0.38,0.38,0,0,1,1.69,56.94Z"/><path class="cls-3" d="M29.25,62.75a0.38,0.38,0,0,1-.38-0.37A0.36,0.36,0,0,1,29,62.11a0.38,0.38,0,0,1,.52,0,0.35,0.35,0,0,1,.11.27,0.39,0.39,0,0,1-.11.27A0.4,0.4,0,0,1,29.25,62.75Z"/><path class="cls-3" d="M15.56,51.69a0.39,0.39,0,0,1-.27-0.11,0.36,0.36,0,0,1,0-.53,0.39,0.39,0,0,1,.52,0,0.39,0.39,0,0,1,.12.28,0.38,0.38,0,0,1-.11.26A0.39,0.39,0,0,1,15.56,51.69Z"/><path class="cls-3" d="M4.87,61.25a0.38,0.38,0,0,1-.37-0.37,0.39,0.39,0,0,1,.11-0.27,0.4,0.4,0,0,1,.53,0,0.39,0.39,0,0,1,.11.27,0.36,0.36,0,0,1-.11.26A0.38,0.38,0,0,1,4.87,61.25Z"/><path class="cls-3" d="M18.75,54.5a0.38,0.38,0,0,1-.27-0.11,0.35,0.35,0,0,1-.1-0.26,0.42,0.42,0,0,1,.1-0.27,0.4,0.4,0,0,1,.53,0,0.39,0.39,0,0,1,.11.27,0.38,0.38,0,0,1-.11.26A0.36,0.36,0,0,1,18.75,54.5Z"/><path class="cls-3" d="M9.75,51.13A0.35,0.35,0,0,1,9.48,51a0.35,0.35,0,0,1-.11-0.26,0.39,0.39,0,0,1,.12-0.27,0.38,0.38,0,0,1,.52,0,0.35,0.35,0,0,1,.12.26A0.4,0.4,0,0,1,10,51,0.36,0.36,0,0,1,9.75,51.13Z"/><path class="cls-3" d="M18.56,48.5a0.39,0.39,0,0,1-.27-0.11,0.38,0.38,0,0,1-.11-0.26,0.36,0.36,0,0,1,.12-0.27,0.4,0.4,0,0,1,.53,0,0.43,0.43,0,0,1,.1.27,0.4,0.4,0,0,1-.1.26A0.4,0.4,0,0,1,18.56,48.5Z"/><path class="cls-3" d="M21.37,56.75a0.39,0.39,0,0,1-.27-0.11,0.42,0.42,0,0,1-.1-0.26,0.39,0.39,0,0,1,.11-0.27,0.4,0.4,0,0,1,.53,0,0.39,0.39,0,0,1,.11.27,0.36,0.36,0,0,1-.11.26A0.38,0.38,0,0,1,21.37,56.75Z"/><path class="cls-3" d="M20.62,60.32a0.4,0.4,0,0,1-.27-0.12,0.4,0.4,0,0,1-.1-0.26,0.36,0.36,0,0,1,.11-0.26,0.38,0.38,0,0,1,.53,0,0.36,0.36,0,0,1,.11.26,0.4,0.4,0,0,1-.11.27A0.38,0.38,0,0,1,20.62,60.32Z"/><path class="cls-3" d="M7.12,55.82a0.4,0.4,0,0,1-.27-0.12,0.4,0.4,0,0,1-.1-0.26,0.37,0.37,0,0,1,.64-0.26,0.35,0.35,0,0,1,.11.26,0.4,0.4,0,0,1-.11.27A0.38,0.38,0,0,1,7.12,55.82Z"/><path class="cls-3" d="M13.31,60.69A0.39,0.39,0,0,1,13,60.58a0.41,0.41,0,0,1-.11-0.27A0.34,0.34,0,0,1,13.05,60a0.4,0.4,0,0,1,.53,0,0.36,0.36,0,0,1,.11.26,0.38,0.38,0,0,1-.12.27A0.35,0.35,0,0,1,13.31,60.69Z"/><path class="cls-3" d="M15,57.31a0.38,0.38,0,0,1-.27-0.11,0.36,0.36,0,0,1-.11-0.26,0.39,0.39,0,0,1,.12-0.27,0.37,0.37,0,0,1,.52,0,0.35,0.35,0,0,1,.11.26,0.36,0.36,0,0,1-.11.27A0.39,0.39,0,0,1,15,57.31Z"/><path class="cls-3" d="M30.18,50.19a0.38,0.38,0,0,1-.26-0.11,0.38,0.38,0,0,1,0-.53,0.39,0.39,0,0,1,.53,0,0.38,0.38,0,0,1,.11.26A0.38,0.38,0,0,1,30.18,50.19Z"/><path class="cls-3" d="M36,57.69a0.38,0.38,0,0,1-.38-0.37A0.36,0.36,0,0,1,35.74,57a0.37,0.37,0,0,1,.52,0,0.37,0.37,0,0,1,.11.27,0.34,0.34,0,0,1-.11.26A0.36,0.36,0,0,1,36,57.69Z"/><path class="cls-3" d="M42.37,59.75A0.38,0.38,0,0,1,42,59.38a0.37,0.37,0,0,1,.11-0.27,0.38,0.38,0,0,1,.64.27,0.38,0.38,0,0,1-.11.26A0.38,0.38,0,0,1,42.37,59.75Z"/><path class="cls-3" d="M46.68,53a0.43,0.43,0,0,1-.26-0.1,0.4,0.4,0,0,1-.11-0.27,0.38,0.38,0,1,1,.75,0,0.36,0.36,0,0,1-.11.26A0.39,0.39,0,0,1,46.68,53Z"/><path class="cls-3" d="M46.87,59a0.36,0.36,0,0,1-.26-0.11,0.34,0.34,0,0,1-.11-0.26,0.37,0.37,0,0,1,.11-0.27,0.38,0.38,0,0,1,.53,0,0.37,0.37,0,0,1,.11.27,0.32,0.32,0,0,1-.12.26A0.35,0.35,0,0,1,46.87,59Z"/><path class="cls-3" d="M28.68,52.63a0.38,0.38,0,0,1-.26-0.11,0.37,0.37,0,0,1-.11-0.27A0.36,0.36,0,0,1,28.42,52,0.39,0.39,0,0,1,29,52a0.36,0.36,0,0,1,.11.26A0.38,0.38,0,0,1,28.68,52.63Z"/><path class="cls-3" d="M30.75,57.88a0.38,0.38,0,0,1-.38-0.38,0.36,0.36,0,0,1,.11-0.26,0.39,0.39,0,0,1,.53,0A0.37,0.37,0,0,1,30.75,57.88Z"/><path class="cls-3" d="M26.06,56a0.36,0.36,0,0,1-.26-0.11,0.35,0.35,0,0,1-.11-0.26,0.38,0.38,0,0,1,.1-0.27,0.4,0.4,0,0,1,.54,0,0.39,0.39,0,0,1,.11.27,0.36,0.36,0,0,1-.12.26A0.35,0.35,0,0,1,26.06,56Z"/><path class="cls-3" d="M39.18,55.63a0.36,0.36,0,0,1-.26-0.11,0.38,0.38,0,0,1-.11-0.27A0.36,0.36,0,0,1,38.92,55a0.39,0.39,0,0,1,.53,0,0.36,0.36,0,0,1,.11.26,0.39,0.39,0,0,1-.11.27A0.37,0.37,0,0,1,39.18,55.63Z"/><path class="cls-3" d="M42.93,49.82a0.39,0.39,0,0,1-.26-0.12,0.36,0.36,0,0,1-.11-0.26,0.4,0.4,0,0,1,.11-0.27,0.39,0.39,0,0,1,.53,0,0.38,0.38,0,0,1,0,.54A0.43,0.43,0,0,1,42.93,49.82Z"/><path class="cls-3" d="M44.06,55.63a0.36,0.36,0,0,1-.26-0.11,0.35,0.35,0,0,1-.11-0.27,0.35,0.35,0,0,1,.1-0.26,0.37,0.37,0,0,1,.64.26,0.43,0.43,0,0,1-.1.27A0.4,0.4,0,0,1,44.06,55.63Z"/><path class="cls-3" d="M26.43,47.94a0.38,0.38,0,0,1-.26-0.11,0.36,0.36,0,0,1-.11-0.26,0.37,0.37,0,0,1,.11-0.27,0.38,0.38,0,0,1,.64.27,0.38,0.38,0,0,1-.11.26A0.39,0.39,0,0,1,26.43,47.94Z"/><path class="cls-3" d="M49.31,52.44a0.38,0.38,0,0,1-.38-0.37,0.4,0.4,0,0,1,.12-0.28,0.41,0.41,0,0,1,.53,0,0.42,0.42,0,0,1,.11.27,0.37,0.37,0,0,1-.12.26A0.35,0.35,0,0,1,49.31,52.44Z"/><path class="cls-3" d="M35.62,48.5a0.38,0.38,0,0,1-.37-0.37,0.37,0.37,0,0,1,.11-0.27,0.4,0.4,0,0,1,.53,0,0.39,0.39,0,0,1,.11.27,0.38,0.38,0,0,1-.11.26A0.38,0.38,0,0,1,35.62,48.5Z"/><path class="cls-3" d="M36,52.44a0.38,0.38,0,0,1-.38-0.37,0.36,0.36,0,0,1,.12-0.27,0.37,0.37,0,0,1,.52,0,0.37,0.37,0,0,1,.11.27,0.34,0.34,0,0,1-.11.26A0.36,0.36,0,0,1,36,52.44Z"/><path class="cls-3" d="M2.81,49.07a0.4,0.4,0,0,1-.27-0.12,0.35,0.35,0,0,1-.11-0.26,0.4,0.4,0,0,1,.12-0.27A0.38,0.38,0,1,1,2.81,49.07Z"/><path class="cls-3" d="M5.25,48.13A0.38,0.38,0,0,1,5,48a0.35,0.35,0,0,1-.11-0.26A0.36,0.36,0,0,1,5,47.49a0.39,0.39,0,0,1,.53,0,0.37,0.37,0,0,1,.12.26,0.4,0.4,0,0,1-.12.27A0.36,0.36,0,0,1,5.25,48.13Z"/><path class="cls-3" d="M3.37,2.19A0.38,0.38,0,0,1,3,1.82a0.38,0.38,0,1,1,.75,0,0.36,0.36,0,0,1-.11.26A0.38,0.38,0,0,1,3.37,2.19Z"/><path class="cls-3" d="M10.12,6.5a0.39,0.39,0,0,1-.27-0.11,0.38,0.38,0,0,1-.1-0.26,0.39,0.39,0,0,1,.11-0.27,0.4,0.4,0,0,1,.53,0,0.39,0.39,0,0,1,.11.27,0.32,0.32,0,0,1-.12.26A0.35,0.35,0,0,1,10.12,6.5Z"/><path class="cls-3" d="M4.12,6.69a0.39,0.39,0,0,1-.27-0.11,0.4,0.4,0,0,1-.1-0.26A0.37,0.37,0,0,1,3.86,6a0.4,0.4,0,0,1,.53,0,0.37,0.37,0,0,1,.11.27,0.36,0.36,0,0,1-.11.26A0.38,0.38,0,0,1,4.12,6.69Z"/><path class="cls-3" d="M22.5,4.07a0.39,0.39,0,0,1-.27-0.12,0.39,0.39,0,0,1-.11-0.26,0.4,0.4,0,0,1,.11-0.27,0.39,0.39,0,0,1,.53,0,0.36,0.36,0,0,1,.11.27,0.39,0.39,0,0,1-.11.27A0.41,0.41,0,0,1,22.5,4.07Z"/><path class="cls-3" d="M31.12,1.44a0.38,0.38,0,0,1-.26-0.11,0.38,0.38,0,0,1-.11-0.27A0.36,0.36,0,0,1,30.86.8a0.39,0.39,0,0,1,.53,0,0.38,0.38,0,0,1,.11.26A0.38,0.38,0,0,1,31.12,1.44Z"/><path class="cls-3" d="M46.87,5a0.38,0.38,0,0,1-.26-0.11,0.36,0.36,0,0,1-.11-0.26,0.39,0.39,0,0,1,.11-0.27,0.37,0.37,0,0,1,.52,0,0.36,0.36,0,0,1,0,.53A0.38,0.38,0,0,1,46.87,5Z"/><path class="cls-3" d="M33.75,5.57a0.39,0.39,0,0,1-.27-0.12,0.39,0.39,0,0,1-.11-0.26,0.39,0.39,0,0,1,.12-0.27,0.37,0.37,0,0,1,.52,0,0.35,0.35,0,0,1,.11.26,0.39,0.39,0,0,1-.11.27A0.41,0.41,0,0,1,33.75,5.57Z"/><path class="cls-3" d="M22.87,7.44a0.36,0.36,0,0,1-.37-0.38,0.36,0.36,0,0,1,.11-0.26,0.39,0.39,0,0,1,.53,0,0.38,0.38,0,0,1,.11.26,0.34,0.34,0,0,1-.12.27A0.35,0.35,0,0,1,22.87,7.44Z"/><path class="cls-3" d="M13.31,2.75A0.39,0.39,0,0,1,13,2.64a0.36,0.36,0,0,1,0-.53,0.4,0.4,0,0,1,.53,0,0.39,0.39,0,0,1,.11.27,0.36,0.36,0,0,1-.11.26A0.39,0.39,0,0,1,13.31,2.75Z"/><path class="cls-3" d="M15.94,5.56a0.35,0.35,0,0,1-.27-0.11,0.35,0.35,0,0,1-.11-0.26,0.37,0.37,0,0,1,.64-0.26,0.35,0.35,0,0,1,.11.26,0.39,0.39,0,0,1-.11.27A0.42,0.42,0,0,1,15.94,5.56Z"/><path class="cls-3" d="M41.25,7.63A0.38,0.38,0,0,1,41,7.52a0.4,0.4,0,0,1-.11-0.27A0.38,0.38,0,0,1,41,7a0.39,0.39,0,0,1,.54,0,0.4,0.4,0,0,1,.1.26A0.38,0.38,0,0,1,41.25,7.63Z"/><path class="cls-3" d="M7.5,3.88a0.35,0.35,0,0,1-.27-0.12A0.39,0.39,0,0,1,7.12,3.5a0.36,0.36,0,0,1,.11-0.26,0.38,0.38,0,0,1,.53,0,0.36,0.36,0,0,1,.11.26,0.39,0.39,0,0,1-.11.27A0.36,0.36,0,0,1,7.5,3.88Z"/><path class="cls-3" d="M29.62,7.81a0.33,0.33,0,0,1-.26-0.11,0.35,0.35,0,0,1-.11-0.26,0.4,0.4,0,0,1,.11-0.27,0.38,0.38,0,0,1,.53,0,0.38,0.38,0,0,1,0,.54A0.37,0.37,0,0,1,29.62,7.81Z"/><path class="cls-3" d="M10.69,9.13A0.34,0.34,0,0,1,10.42,9a0.35,0.35,0,0,1-.11-0.26,0.36,0.36,0,0,1,.11-0.26,0.38,0.38,0,0,1,.53,0,0.36,0.36,0,0,1,.11.26A0.39,0.39,0,0,1,11,9,0.38,0.38,0,0,1,10.69,9.13Z"/><path class="cls-3" d="M34.5,9.32a0.39,0.39,0,0,1-.27-0.12,0.39,0.39,0,0,1-.11-0.26,0.39,0.39,0,0,1,.12-0.27,0.38,0.38,0,0,1,.52,0,0.35,0.35,0,0,1,.11.26,0.39,0.39,0,0,1-.11.27A0.41,0.41,0,0,1,34.5,9.32Z"/><path class="cls-3" d="M16.68,1.07A0.37,0.37,0,0,1,16.42.95,0.35,0.35,0,0,1,16.31.69,0.4,0.4,0,0,1,16.42.42a0.4,0.4,0,0,1,.53,0,0.4,0.4,0,0,1,.11.27A0.39,0.39,0,0,1,17,1,0.43,0.43,0,0,1,16.68,1.07Z"/><path class="cls-3" d="M36.93,1.63a0.36,0.36,0,0,1-.26-0.11,0.38,0.38,0,0,1-.11-0.27A0.36,0.36,0,0,1,36.67,1a0.39,0.39,0,0,1,.53,0,0.36,0.36,0,0,1,.11.26,0.4,0.4,0,0,1-.11.27A0.37,0.37,0,0,1,36.93,1.63Z"/><path class="cls-3" d="M41.81,3.69a0.39,0.39,0,0,1-.27-0.11,0.35,0.35,0,0,1-.1-0.26A0.36,0.36,0,0,1,41.54,3a0.4,0.4,0,0,1,.54,0,0.36,0.36,0,0,1,.1.27,0.4,0.4,0,0,1-.1.26A0.39,0.39,0,0,1,41.81,3.69Z"/><path class="cls-3" d="M45,8.75a0.38,0.38,0,0,1-.27-0.11,0.36,0.36,0,0,1-.11-0.26,0.38,0.38,0,1,1,.75,0A0.38,0.38,0,0,1,45,8.75Z"/><path class="cls-3" d="M12.93,24.88a0.34,0.34,0,0,1-.26-0.12,0.35,0.35,0,0,1-.11-0.26,0.36,0.36,0,0,1,.11-0.26,0.38,0.38,0,0,1,.53,0,0.36,0.36,0,0,1,.11.26A0.38,0.38,0,0,1,12.93,24.88Z"/><path class="cls-3" d="M1.12,24.69a0.39,0.39,0,0,1-.27-0.11,0.42,0.42,0,0,1-.1-0.26A0.38,0.38,0,0,1,1.39,24a0.39,0.39,0,0,1,.11.27,0.38,0.38,0,0,1-.11.26A0.38,0.38,0,0,1,1.12,24.69Z"/><path class="cls-3" d="M5.44,30.69a0.37,0.37,0,0,1-.27-0.11,0.38,0.38,0,0,1-.11-0.26A0.39,0.39,0,0,1,5.17,30a0.4,0.4,0,0,1,.53,0,0.39,0.39,0,0,1,.11.27A0.38,0.38,0,0,1,5.44,30.69Z"/><path class="cls-3" d="M3.37,37.07A0.38,0.38,0,0,1,3.11,37a0.38,0.38,0,0,1,0-.54,0.39,0.39,0,0,1,.53,0A0.38,0.38,0,0,1,3.37,37.07Z"/><path class="cls-3" d="M10.12,41.38a0.36,0.36,0,0,1-.27-0.12,0.39,0.39,0,0,1,0-.53,0.4,0.4,0,0,1,.53,0,0.35,0.35,0,0,1,.11.26A0.38,0.38,0,0,1,10.12,41.38Z"/><path class="cls-3" d="M4.12,41.57a0.4,0.4,0,0,1-.27-0.12,0.38,0.38,0,0,1-.1-0.26,0.4,0.4,0,0,1,.11-0.27,0.39,0.39,0,0,1,.53,0,0.4,0.4,0,0,1,.11.27,0.36,0.36,0,0,1-.12.27A0.38,0.38,0,0,1,4.12,41.57Z"/><path class="cls-3" d="M10.5,23.38a0.35,0.35,0,0,1-.27-0.12A0.35,0.35,0,0,1,10.12,23a0.36,0.36,0,0,1,.11-0.26,0.38,0.38,0,0,1,.53,0,0.33,0.33,0,0,1,.11.26,0.39,0.39,0,0,1-.11.27A0.36,0.36,0,0,1,10.5,23.38Z"/><path class="cls-3" d="M19.68,22.25a0.36,0.36,0,0,1-.26-0.11,0.34,0.34,0,0,1-.11-0.26,0.38,0.38,0,1,1,.75,0,0.36,0.36,0,0,1-.11.26A0.37,0.37,0,0,1,19.68,22.25Z"/><path class="cls-3" d="M3.75,27.13A0.35,0.35,0,0,1,3.48,27a0.35,0.35,0,0,1-.11-0.26,0.39,0.39,0,0,1,.12-0.27,0.38,0.38,0,0,1,.52,0A0.37,0.37,0,0,1,4,27,0.36,0.36,0,0,1,3.75,27.13Z"/><path class="cls-3" d="M7.12,20.75a0.39,0.39,0,0,1-.27-0.11,0.4,0.4,0,0,1-.1-0.26,0.39,0.39,0,0,1,.11-0.27,0.4,0.4,0,0,1,.53,0,0.39,0.39,0,0,1,.11.27,0.36,0.36,0,0,1-.11.26A0.38,0.38,0,0,1,7.12,20.75Z"/><path class="cls-3" d="M24.56,25.63a0.36,0.36,0,0,1-.27-0.12,0.38,0.38,0,0,1-.1-0.26A0.36,0.36,0,0,1,24.3,25a0.39,0.39,0,0,1,.53,0,0.36,0.36,0,0,1,.11.26,0.4,0.4,0,0,1-.12.27A0.35,0.35,0,0,1,24.56,25.63Z"/><path class="cls-3" d="M27,26.94a0.34,0.34,0,0,1-.27-0.12,0.32,0.32,0,0,1-.11-0.25,0.4,0.4,0,0,1,.12-0.28,0.4,0.4,0,0,1,.52,0,0.37,0.37,0,0,1,.11.27,0.38,0.38,0,0,1-.11.26A0.36,0.36,0,0,1,27,26.94Z"/><path class="cls-3" d="M7.5,33.88a0.35,0.35,0,0,1-.27-0.12,0.35,0.35,0,0,1-.11-0.26,0.4,0.4,0,0,1,.11-0.27,0.4,0.4,0,0,1,.53,0,0.4,0.4,0,0,1,.11.27,0.39,0.39,0,0,1-.11.27A0.36,0.36,0,0,1,7.5,33.88Z"/><path class="cls-3" d="M22.5,38.94a0.38,0.38,0,0,1-.27-0.11,0.39,0.39,0,0,1-.11-0.27,0.36,0.36,0,0,1,.11-0.26,0.4,0.4,0,0,1,.53,0,0.38,0.38,0,0,1,.11.26,0.37,0.37,0,0,1-.11.27A0.36,0.36,0,0,1,22.5,38.94Z"/><path class="cls-3" d="M31.12,36.31a0.35,0.35,0,0,1-.26-0.1,0.39,0.39,0,0,1-.11-0.27,0.36,0.36,0,0,1,.11-0.26,0.38,0.38,0,0,1,.53,0,0.4,0.4,0,0,1,.11.27,0.39,0.39,0,0,1-.11.27A0.37,0.37,0,0,1,31.12,36.31Z"/><path class="cls-3" d="M29.06,22.63a0.36,0.36,0,0,1-.27-0.12,0.38,0.38,0,0,1-.1-0.26A0.36,0.36,0,0,1,28.8,22a0.4,0.4,0,0,1,.53,0,0.35,0.35,0,0,1,.1.26,0.38,0.38,0,0,1-.1.27A0.38,0.38,0,0,1,29.06,22.63Z"/><path class="cls-3" d="M40.87,21.69a0.36,0.36,0,0,1-.26-0.11,0.35,0.35,0,0,1-.11-0.27A0.35,0.35,0,0,1,40.61,21a0.39,0.39,0,0,1,.53,0,0.36,0.36,0,0,1,.11.26,0.34,0.34,0,0,1-.12.27A0.35,0.35,0,0,1,40.87,21.69Z"/><path class="cls-3" d="M26.81,33.69a0.36,0.36,0,0,1-.27-0.12,0.35,0.35,0,0,1-.1-0.26A0.37,0.37,0,0,1,26.55,33a0.4,0.4,0,0,1,.53,0,0.38,0.38,0,0,1,.11.26,0.36,0.36,0,0,1-.12.27A0.35,0.35,0,0,1,26.81,33.69Z"/><path class="cls-3" d="M46.87,39.88a0.36,0.36,0,0,1-.26-0.11,0.39,0.39,0,0,1-.11-0.27,0.36,0.36,0,0,1,.11-0.26,0.39,0.39,0,0,1,.53,0,0.36,0.36,0,0,1,.11.26A0.38,0.38,0,0,1,46.87,39.88Z"/><path class="cls-3" d="M33.75,40.44a0.38,0.38,0,0,1-.27-0.11,0.36,0.36,0,0,1,0-.53,0.39,0.39,0,0,1,.52,0,0.35,0.35,0,0,1,.11.27,0.38,0.38,0,0,1-.11.26A0.36,0.36,0,0,1,33.75,40.44Z"/><path class="cls-3" d="M22.87,42.32a0.4,0.4,0,0,1-.27-0.12,0.37,0.37,0,0,1,.54-0.52,0.35,0.35,0,0,1,.11.26A0.38,0.38,0,0,1,22.87,42.32Z"/><path class="cls-3" d="M13.31,37.63A0.36,0.36,0,0,1,13,37.51a0.39,0.39,0,0,1-.11-0.26A0.34,0.34,0,0,1,13.05,37a0.39,0.39,0,0,1,.53,0,0.36,0.36,0,0,1,.11.26,0.4,0.4,0,0,1-.12.27A0.35,0.35,0,0,1,13.31,37.63Z"/><path class="cls-3" d="M15.94,40.44a0.37,0.37,0,0,1-.27-0.11,0.38,0.38,0,0,1-.11-0.26,0.39,0.39,0,0,1,.11-0.27,0.4,0.4,0,0,1,.53,0,0.39,0.39,0,0,1,.11.27A0.38,0.38,0,0,1,15.94,40.44Z"/><path class="cls-3" d="M38.75,42.88a0.38,0.38,0,0,1-.38-0.38,0.36,0.36,0,0,1,.11-0.26,0.39,0.39,0,0,1,.53,0,0.36,0.36,0,0,1,.11.26,0.39,0.39,0,0,1-.11.27A0.36,0.36,0,0,1,38.75,42.88Z"/><path class="cls-3" d="M48.93,33.32a0.39,0.39,0,0,1-.26-0.12,0.35,0.35,0,0,1-.11-0.26,0.35,0.35,0,0,1,.12-0.27,0.37,0.37,0,0,1,.52,0,0.35,0.35,0,0,1,.11.26,0.39,0.39,0,0,1-.11.27A0.43,0.43,0,0,1,48.93,33.32Z"/><path class="cls-3" d="M30.18,31.25a0.38,0.38,0,0,1-.26-0.11,0.36,0.36,0,0,1-.11-0.26,0.38,0.38,0,1,1,.75,0,0.36,0.36,0,0,1-.11.26A0.37,0.37,0,0,1,30.18,31.25Z"/><path class="cls-3" d="M49.31,23a0.38,0.38,0,0,1-.38-0.37,0.38,0.38,0,0,1,.12-0.27,0.4,0.4,0,0,1,.53,0,0.42,0.42,0,0,1,.11.27,0.36,0.36,0,0,1-.12.26A0.36,0.36,0,0,1,49.31,23Z"/><path class="cls-3" d="M35.06,21.13A0.4,0.4,0,0,1,34.79,21a0.43,0.43,0,0,1-.1-0.27,0.39,0.39,0,0,1,.11-0.27,0.4,0.4,0,0,1,.53,0,0.39,0.39,0,0,1,.11.26,0.4,0.4,0,0,1-.12.27A0.36,0.36,0,0,1,35.06,21.13Z"/><path class="cls-3" d="M7.5,38.75a0.38,0.38,0,0,1-.27-0.11,0.36,0.36,0,0,1-.11-0.26,0.39,0.39,0,0,1,.11-0.27,0.4,0.4,0,0,1,.53,0,0.39,0.39,0,0,1,.11.27,0.33,0.33,0,0,1-.11.26A0.36,0.36,0,0,1,7.5,38.75Z"/><path class="cls-3" d="M24.56,21.13A0.36,0.36,0,0,1,24.29,21a0.34,0.34,0,0,1-.1-0.26,0.35,0.35,0,0,1,.1-0.26,0.4,0.4,0,0,1,.54,0,0.36,0.36,0,0,1,.11.26,0.4,0.4,0,0,1-.11.27A0.38,0.38,0,0,1,24.56,21.13Z"/><path class="cls-3" d="M15.18,21.13A0.32,0.32,0,0,1,14.92,21a0.35,0.35,0,0,1-.11-0.26,0.36,0.36,0,0,1,.11-0.26,0.38,0.38,0,0,1,.53,0,0.36,0.36,0,0,1,.11.26,0.39,0.39,0,0,1-.11.27A0.37,0.37,0,0,1,15.18,21.13Z"/><path class="cls-3" d="M29.62,42.69a0.38,0.38,0,0,1-.26-0.11,0.35,0.35,0,0,1-.11-0.27A0.36,0.36,0,0,1,29.36,42a0.39,0.39,0,0,1,.53,0,0.38,0.38,0,0,1,.11.26,0.34,0.34,0,0,1-.12.27A0.35,0.35,0,0,1,29.62,42.69Z"/><path class="cls-3" d="M10.69,44a0.35,0.35,0,0,1-.27-0.11,0.36,0.36,0,0,1-.11-0.26,0.38,0.38,0,0,1,.11-0.27,0.4,0.4,0,0,1,.53,0,0.39,0.39,0,0,1,.11.27,0.36,0.36,0,0,1-.11.26A0.38,0.38,0,0,1,10.69,44Z"/><path class="cls-3" d="M43.87,18.5a0.38,0.38,0,0,1-.26-0.11,0.34,0.34,0,0,1-.11-0.26,0.37,0.37,0,0,1,.11-0.27,0.38,0.38,0,0,1,.64.27,0.32,0.32,0,0,1-.12.26A0.35,0.35,0,0,1,43.87,18.5Z"/><path class="cls-3" d="M34.5,44.19a0.38,0.38,0,0,1-.27-0.11,0.36,0.36,0,0,1-.11-0.26,0.37,0.37,0,0,1,.11-0.27,0.38,0.38,0,0,1,.64.27,0.38,0.38,0,0,1-.11.26A0.36,0.36,0,0,1,34.5,44.19Z"/><path class="cls-3" d="M44.75,25.38a0.35,0.35,0,0,1-.27-0.12A0.39,0.39,0,0,1,44.37,25a0.36,0.36,0,0,1,.11-0.26,0.38,0.38,0,0,1,.53,0,0.34,0.34,0,0,1,.12.26,0.4,0.4,0,0,1-.12.27A0.36,0.36,0,0,1,44.75,25.38Z"/><path class="cls-3" d="M14.62,30.32a0.4,0.4,0,0,1-.27-0.12,0.38,0.38,0,0,1-.1-0.26,0.4,0.4,0,0,1,.11-0.27,0.39,0.39,0,0,1,.53,0,0.38,0.38,0,0,1,0,.54A0.38,0.38,0,0,1,14.62,30.32Z"/><path class="cls-3" d="M10.69,30.69a0.35,0.35,0,0,1-.27-0.11,0.36,0.36,0,0,1-.11-0.26A0.39,0.39,0,0,1,10.42,30,0.4,0.4,0,0,1,11,30a0.39,0.39,0,0,1,.11.27,0.36,0.36,0,0,1-.11.26A0.38,0.38,0,0,1,10.69,30.69Z"/><path class="cls-3" d="M20.81,32.94a0.39,0.39,0,0,1-.27-0.11,0.39,0.39,0,0,1-.11-0.27,0.34,0.34,0,0,1,.12-0.26,0.4,0.4,0,0,1,.53,0A0.38,0.38,0,0,1,20.81,32.94Z"/><path class="cls-3" d="M21.75,29.56a0.38,0.38,0,0,1-.27-0.11,0.35,0.35,0,0,1-.11-0.26,0.39,0.39,0,0,1,.12-0.27,0.37,0.37,0,0,1,.52,0,0.35,0.35,0,0,1,.11.26,0.39,0.39,0,0,1-.11.27A0.35,0.35,0,0,1,21.75,29.56Z"/><path class="cls-3" d="M18.56,27.13A0.36,0.36,0,0,1,18.29,27a0.35,0.35,0,0,1-.11-0.26,0.34,0.34,0,0,1,.12-0.26,0.38,0.38,0,0,1,.53,0,0.4,0.4,0,0,1,.1.26,0.43,0.43,0,0,1-.1.27A0.4,0.4,0,0,1,18.56,27.13Z"/><path class="cls-3" d="M16.68,35.94a0.38,0.38,0,0,1-.37-0.38,0.38,0.38,0,0,1,.11-0.26,0.39,0.39,0,0,1,.53,0,0.38,0.38,0,0,1,.11.26,0.37,0.37,0,0,1-.11.27A0.39,0.39,0,0,1,16.68,35.94Z"/><path class="cls-3" d="M45.93,30.32a0.39,0.39,0,0,1-.26-0.12,0.35,0.35,0,0,1-.11-0.26,0.35,0.35,0,0,1,.12-0.27,0.37,0.37,0,0,1,.52,0,0.35,0.35,0,0,1,.11.26,0.39,0.39,0,0,1-.11.27A0.43,0.43,0,0,1,45.93,30.32Z"/><path class="cls-3" d="M32.43,25.82a0.38,0.38,0,0,1-.26-0.11A0.37,0.37,0,1,1,32.43,25.82Z"/><path class="cls-3" d="M38.62,30.69a0.38,0.38,0,0,1-.26-0.11,0.37,0.37,0,0,1,0-.53,0.39,0.39,0,0,1,.53,0,0.38,0.38,0,0,1,.11.26A0.38,0.38,0,0,1,38.62,30.69Z"/><path class="cls-3" d="M40.31,27.32A0.4,0.4,0,0,1,40,27.21a0.39,0.39,0,0,1-.1-0.27,0.37,0.37,0,0,1,.1-0.27,0.4,0.4,0,0,1,.54,0,0.43,0.43,0,0,1,.1.27,0.39,0.39,0,0,1-.11.27A0.36,0.36,0,0,1,40.31,27.32Z"/><path class="cls-3" d="M36.93,36.5a0.38,0.38,0,0,1-.26-0.11,0.34,0.34,0,0,1-.11-0.26,0.37,0.37,0,0,1,.11-0.27,0.4,0.4,0,0,1,.53,0,0.37,0.37,0,0,1,.11.27,0.34,0.34,0,0,1-.11.26A0.39,0.39,0,0,1,36.93,36.5Z"/><path class="cls-3" d="M41.81,38.57a0.38,0.38,0,0,1-.37-0.38,0.39,0.39,0,0,1,.11-0.27,0.41,0.41,0,0,1,.53,0,0.43,0.43,0,0,1,.1.27,0.39,0.39,0,0,1-.1.27A0.4,0.4,0,0,1,41.81,38.57Z"/><path class="cls-3" d="M42.93,34.44a0.38,0.38,0,0,1-.26-0.11,0.34,0.34,0,0,1-.11-0.26,0.37,0.37,0,0,1,.11-0.27,0.39,0.39,0,0,1,.53,0,0.37,0.37,0,0,1,.11.27,0.34,0.34,0,0,1-.11.26A0.39,0.39,0,0,1,42.93,34.44Z"/><path class="cls-3" d="M45,43.63a0.38,0.38,0,0,1-.27-0.11,0.43,0.43,0,0,1-.11-0.27A0.39,0.39,0,0,1,44.74,43a0.38,0.38,0,0,1,.52,0,0.35,0.35,0,0,1,.11.26,0.39,0.39,0,0,1-.11.27A0.36,0.36,0,0,1,45,43.63Z"/><path class="cls-3" d="M49.87,43.44a0.38,0.38,0,0,1-.26-0.11,0.34,0.34,0,0,1-.11-0.26,0.35,0.35,0,0,1,.11-0.27,0.39,0.39,0,0,1,.53,0,0.37,0.37,0,0,1,.11.27,0.32,0.32,0,0,1-.12.26A0.35,0.35,0,0,1,49.87,43.44Z"/><path class="cls-3" d="M54.56,45.32a0.39,0.39,0,0,1-.38-0.38,0.37,0.37,0,0,1,.12-0.27,0.4,0.4,0,0,1,.53,0,0.36,0.36,0,0,1,.11.26,0.4,0.4,0,0,1-.12.27A0.39,0.39,0,0,1,54.56,45.32Z"/><path class="cls-3" d="M55.5,20.19a0.38,0.38,0,0,1-.27-0.11,0.38,0.38,0,0,1-.11-0.26,0.38,0.38,0,1,1,.75,0,0.34,0.34,0,0,1-.11.26A0.36,0.36,0,0,1,55.5,20.19Z"/><path class="cls-3" d="M53.81,38.75a0.37,0.37,0,0,1-.27-0.64,0.4,0.4,0,0,1,.53,0,0.35,0.35,0,0,1,0,.53A0.36,0.36,0,0,1,53.81,38.75Z"/><path class="cls-3" d="M60.37,45.69a0.39,0.39,0,0,1-.27-0.11,0.43,0.43,0,0,1-.1-0.27A0.36,0.36,0,0,1,60.11,45a0.39,0.39,0,0,1,.53,0A0.38,0.38,0,0,1,60.37,45.69Z"/><path class="cls-3" d="M55.31,32A0.39,0.39,0,0,1,55,31.89a0.36,0.36,0,0,1,0-.53,0.38,0.38,0,0,1,.52,0,0.36,0.36,0,0,1,0,.53A0.4,0.4,0,0,1,55.31,32Z"/><path class="cls-3" d="M61.31,27.69a0.4,0.4,0,0,1-.38-0.37A0.39,0.39,0,0,1,61,27a0.4,0.4,0,0,1,.54,0,0.39,0.39,0,0,1,.11.27,0.38,0.38,0,0,1-.11.26A0.4,0.4,0,0,1,61.31,27.69Z"/><path class="cls-3" d="M66,44.38a0.4,0.4,0,0,1-.27-0.12A0.35,0.35,0,0,1,65.62,44a0.39,0.39,0,0,1,.12-0.27,0.37,0.37,0,0,1,.52,0,0.35,0.35,0,0,1,.11.26,0.39,0.39,0,0,1-.11.27A0.36,0.36,0,0,1,66,44.38Z"/><path class="cls-3" d="M72.19,45.5a0.35,0.35,0,0,1-.27-0.11,0.36,0.36,0,0,1-.11-0.26,0.37,0.37,0,0,1,.11-0.27,0.4,0.4,0,0,1,.53,0,0.39,0.39,0,0,1,.11.27,0.36,0.36,0,0,1-.11.26A0.36,0.36,0,0,1,72.19,45.5Z"/><path class="cls-3" d="M67.69,29.75a0.35,0.35,0,0,1-.27-0.11,0.36,0.36,0,0,1-.11-0.26,0.37,0.37,0,0,1,.11-0.27,0.39,0.39,0,0,1,.53,0,0.33,0.33,0,0,1,.11.26,0.38,0.38,0,0,1-.11.26A0.35,0.35,0,0,1,67.69,29.75Z"/><path class="cls-3" d="M72,23a0.38,0.38,0,0,1-.27-0.11,0.36,0.36,0,0,1,0-.53,0.38,0.38,0,0,1,.52,0,0.37,0.37,0,0,1,.11.27,0.38,0.38,0,0,1-.11.26A0.36,0.36,0,0,1,72,23Z"/><path class="cls-3" d="M72.19,29a0.35,0.35,0,0,1-.27-0.11,0.36,0.36,0,0,1-.11-0.26,0.33,0.33,0,0,1,.12-0.27,0.37,0.37,0,0,1,.63.27,0.36,0.36,0,0,1-.11.26A0.36,0.36,0,0,1,72.19,29Z"/><path class="cls-3" d="M72.19,39.88a0.36,0.36,0,0,1-.27-0.12,0.35,0.35,0,0,1-.11-0.26,0.36,0.36,0,0,1,.12-0.27,0.39,0.39,0,0,1,.52,0,0.35,0.35,0,0,1,.11.26,0.39,0.39,0,0,1-.11.27A0.36,0.36,0,0,1,72.19,39.88Z"/><path class="cls-3" d="M54,22.63a0.35,0.35,0,0,1-.27-0.12,0.36,0.36,0,0,1-.11-0.26A0.39,0.39,0,0,1,53.74,22a0.37,0.37,0,0,1,.52,0,0.35,0.35,0,0,1,.11.26,0.4,0.4,0,0,1-.11.27A0.36,0.36,0,0,1,54,22.63Z"/><path class="cls-3" d="M52.87,13.44a0.35,0.35,0,0,1-.26-0.11,0.36,0.36,0,0,1-.11-0.26,0.37,0.37,0,0,1,.11-0.27,0.38,0.38,0,0,1,.64.27,0.38,0.38,0,0,1-.11.26A0.38,0.38,0,0,1,52.87,13.44Z"/><path class="cls-3" d="M50.81,34.82a0.36,0.36,0,0,1-.26-0.11,0.35,0.35,0,0,1-.11-0.27,0.39,0.39,0,0,1,.1-0.27,0.4,0.4,0,0,1,.54,0,0.35,0.35,0,0,1,.1.26,0.38,0.38,0,0,1-.1.27A0.4,0.4,0,0,1,50.81,34.82Z"/><path class="cls-3" d="M58.75,30.88a0.35,0.35,0,0,1-.27-0.12,0.39,0.39,0,0,1-.11-0.26,0.36,0.36,0,0,1,.12-0.27,0.39,0.39,0,0,1,.64.27,0.4,0.4,0,0,1-.12.27A0.36,0.36,0,0,1,58.75,30.88Z"/><path class="cls-3" d="M51.37,26a0.39,0.39,0,0,1-.27-0.11,0.38,0.38,0,0,1-.1-0.26,0.39,0.39,0,0,1,.11-0.27,0.4,0.4,0,0,1,.53,0,0.39,0.39,0,0,1,.11.27,0.32,0.32,0,0,1-.12.26A0.36,0.36,0,0,1,51.37,26Z"/><path class="cls-3" d="M56.25,8.57A0.39,0.39,0,0,1,56,8.45a0.39,0.39,0,0,1-.11-0.26A0.36,0.36,0,0,1,56,7.92a0.39,0.39,0,0,1,.53,0A0.38,0.38,0,0,1,56.25,8.57Z"/><path class="cls-3" d="M57.56,6.13A0.39,0.39,0,0,1,57.29,6a0.4,0.4,0,0,1-.11-0.27,0.36,0.36,0,0,1,.11-0.26,0.39,0.39,0,0,1,.54,0,0.35,0.35,0,0,1,.1.26,0.38,0.38,0,0,1-.1.27A0.38,0.38,0,0,1,57.56,6.13Z"/><path class="cls-3" d="M64.5,25.63a0.38,0.38,0,0,1-.27-0.12,0.34,0.34,0,0,1-.1-0.26,0.35,0.35,0,0,1,.1-0.26,0.39,0.39,0,0,1,.53,0,0.36,0.36,0,0,1,.11.27,0.39,0.39,0,0,1-.11.27A0.36,0.36,0,0,1,64.5,25.63Z"/><path class="cls-3" d="M69.56,10.63a0.4,0.4,0,0,1-.27-0.12,0.39,0.39,0,0,1-.11-0.26A0.36,0.36,0,0,1,69.29,10a0.39,0.39,0,0,1,.54,0,0.35,0.35,0,0,1,.1.26,0.37,0.37,0,0,1-.11.27A0.36,0.36,0,0,1,69.56,10.63Z"/><path class="cls-3" d="M66.93,2a0.36,0.36,0,0,1-.26-0.11,0.34,0.34,0,0,1-.11-0.26,0.38,0.38,0,0,1,.11-0.27,0.4,0.4,0,0,1,.53,0,0.39,0.39,0,0,1,.11.27,0.34,0.34,0,0,1-.11.26A0.39,0.39,0,0,1,66.93,2Z"/><path class="cls-3" d="M53.25,4.07A0.38,0.38,0,0,1,53,4a0.4,0.4,0,0,1-.11-0.27A0.36,0.36,0,0,1,53,3.43a0.37,0.37,0,0,1,.64.26,0.33,0.33,0,0,1-.11.26A0.34,0.34,0,0,1,53.25,4.07Z"/><path class="cls-3" d="M64.31,6.31A0.39,0.39,0,0,1,64,6.2a0.35,0.35,0,0,1-.11-0.26A0.4,0.4,0,0,1,64,5.67a0.4,0.4,0,0,1,.53,0,0.36,0.36,0,0,1,.11.27,0.43,0.43,0,0,1-.1.27A0.38,0.38,0,0,1,64.31,6.31Z"/><path class="cls-3" d="M68.25,19.81A0.38,0.38,0,0,1,68,19.7a0.36,0.36,0,0,1-.11-0.26A0.36,0.36,0,0,1,68,19.17a0.37,0.37,0,0,1,.52,0,0.35,0.35,0,0,1,.11.26,0.39,0.39,0,0,1-.11.27A0.38,0.38,0,0,1,68.25,19.81Z"/><path class="cls-3" d="M71.06,17.19a0.39,0.39,0,0,1-.27-0.11,0.42,0.42,0,0,1-.1-0.26,0.37,0.37,0,0,1,.11-0.27,0.4,0.4,0,0,1,.53,0,0.42,0.42,0,0,1,.11.27,0.38,0.38,0,0,1-.11.26A0.39,0.39,0,0,1,71.06,17.19Z"/><path class="cls-3" d="M61.87,2.94a0.39,0.39,0,0,1-.27-0.11,0.42,0.42,0,0,1-.1-0.26,0.39,0.39,0,0,1,.11-0.27,0.4,0.4,0,0,1,.53,0,0.39,0.39,0,0,1,.11.27,0.38,0.38,0,0,1-.11.26A0.38,0.38,0,0,1,61.87,2.94Z"/><path class="cls-3" d="M69.37,25.63a0.36,0.36,0,0,1-.27-0.12,0.38,0.38,0,0,1-.1-0.26A0.36,0.36,0,0,1,69.11,25a0.39,0.39,0,0,1,.53,0,0.36,0.36,0,0,1,.11.26,0.36,0.36,0,0,1-.12.27A0.34,0.34,0,0,1,69.37,25.63Z"/><path class="cls-3" d="M51.75,8.57a0.39,0.39,0,0,1-.27-0.12,0.35,0.35,0,0,1-.11-0.26,0.4,0.4,0,0,1,.11-0.27,0.38,0.38,0,0,1,.53,0,0.36,0.36,0,0,1,.11.26,0.39,0.39,0,0,1-.11.27A0.41,0.41,0,0,1,51.75,8.57Z"/><path class="cls-3" d="M51.75,17.94a0.38,0.38,0,0,1-.27-0.11,0.36,0.36,0,0,1,0-.53,0.37,0.37,0,0,1,.52,0,0.37,0.37,0,0,1,.11.27,0.34,0.34,0,0,1-.11.26A0.36,0.36,0,0,1,51.75,17.94Z"/><path class="cls-3" d="M65.62,41.94a0.36,0.36,0,0,1-.26-0.11,0.38,0.38,0,0,1-.11-0.26,0.37,0.37,0,0,1,.11-0.27,0.39,0.39,0,0,1,.53,0,0.35,0.35,0,0,1,.11.27,0.38,0.38,0,0,1-.11.26A0.38,0.38,0,0,1,65.62,41.94Z"/><path class="cls-3" d="M63.37,34.07a0.4,0.4,0,0,1-.27-0.12,0.38,0.38,0,0,1-.1-0.26,0.36,0.36,0,0,1,.11-0.26,0.38,0.38,0,0,1,.53,0,0.4,0.4,0,0,1,.11.27,0.36,0.36,0,0,1-.12.27A0.38,0.38,0,0,1,63.37,34.07Z"/><path class="cls-3" d="M59.81,40.07a0.37,0.37,0,0,1-.26-0.65,0.38,0.38,0,0,1,.64.27,0.4,0.4,0,0,1-.12.27A0.36,0.36,0,0,1,59.81,40.07Z"/><path class="cls-3" d="M68.44,35.75a0.35,0.35,0,0,1-.27-0.11,0.36,0.36,0,0,1-.11-0.26,0.37,0.37,0,0,1,.11-0.27,0.4,0.4,0,0,1,.53,0,0.39,0.39,0,0,1,.11.27,0.36,0.36,0,0,1-.11.26A0.36,0.36,0,0,1,68.44,35.75Z"/><path class="cls-3" d="M60.94,18.5a0.35,0.35,0,0,1-.27-0.11,0.36,0.36,0,0,1-.11-0.26,0.38,0.38,0,1,1,.75,0,0.36,0.36,0,0,1-.11.26A0.36,0.36,0,0,1,60.94,18.5Z"/><path class="cls-3" d="M61.31,22.44A0.36,0.36,0,0,1,61,22.32a0.34,0.34,0,0,1-.11-0.25,0.36,0.36,0,0,1,.12-0.27,0.4,0.4,0,0,1,.53,0,0.39,0.39,0,0,1,.11.27,0.36,0.36,0,0,1-.12.26A0.35,0.35,0,0,1,61.31,22.44Z"/><path class="cls-3" d="M63.56,12.32a0.43,0.43,0,0,1-.27-0.11,0.39,0.39,0,0,1-.11-0.27,0.36,0.36,0,0,1,.12-0.27,0.39,0.39,0,0,1,.53,0,0.35,0.35,0,0,1,.11.26,0.39,0.39,0,0,1-.11.27A0.4,0.4,0,0,1,63.56,12.32Z"/><path class="cls-3" d="M60.19,11.38a0.33,0.33,0,0,1-.27-0.12A0.35,0.35,0,0,1,59.81,11a0.36,0.36,0,0,1,.11-0.26,0.38,0.38,0,0,1,.53,0,0.36,0.36,0,0,1,.11.26,0.39,0.39,0,0,1-.11.27A0.36,0.36,0,0,1,60.19,11.38Z"/><path class="cls-3" d="M57.75,14.57a0.39,0.39,0,0,1-.27-0.12,0.35,0.35,0,0,1-.11-0.26,0.39,0.39,0,0,1,.12-0.27,0.38,0.38,0,0,1,.52,0,0.35,0.35,0,0,1,.11.26,0.36,0.36,0,0,1-.11.26A0.37,0.37,0,0,1,57.75,14.57Z"/><path class="cls-3" d="M66.56,16.44a0.39,0.39,0,0,1-.27-0.11,0.42,0.42,0,0,1-.1-0.26,0.36,0.36,0,0,1,.11-0.27,0.38,0.38,0,0,1,.52,0,0.36,0.36,0,0,1,0,.53A0.4,0.4,0,0,1,66.56,16.44Z"/><path class="cls-3" d="M56.43,0.69A0.35,0.35,0,0,1,56.17.58,0.38,0.38,0,0,1,56.06.31,0.36,0.36,0,0,1,56.17,0a0.4,0.4,0,0,1,.53,0,0.36,0.36,0,0,1,.11.26,0.38,0.38,0,0,1-.11.27A0.37,0.37,0,0,1,56.43.69Z"/><path class="cls-3" d="M45.75,47.19a0.38,0.38,0,0,1-.27-0.11,0.36,0.36,0,0,1,0-.53,0.37,0.37,0,0,1,.63.27,0.38,0.38,0,0,1-.11.26A0.4,0.4,0,0,1,45.75,47.19Z"/><path class="cls-3" d="M41.25,46.44A0.4,0.4,0,0,1,41,46.33a0.38,0.38,0,0,1-.11-0.27A0.38,0.38,0,0,1,41,45.8a0.39,0.39,0,0,1,.54,0,0.42,0.42,0,0,1,.1.26,0.38,0.38,0,0,1-.11.27A0.34,0.34,0,0,1,41.25,46.44Z"/><path class="cls-3" d="M9.75,12.32a0.39,0.39,0,0,1-.27-0.12,0.36,0.36,0,0,1-.11-0.26,0.4,0.4,0,0,1,.11-0.27,0.39,0.39,0,0,1,.53,0,0.41,0.41,0,0,1,.12.27,0.37,0.37,0,0,1-.12.26A0.34,0.34,0,0,1,9.75,12.32Z"/><path class="cls-3" d="M18.19,13.63a0.34,0.34,0,0,1-.27-0.12,0.35,0.35,0,0,1-.11-0.26A0.36,0.36,0,0,1,17.92,13a0.39,0.39,0,0,1,.53,0,0.36,0.36,0,0,1,.11.26,0.39,0.39,0,0,1-.11.27A0.38,0.38,0,0,1,18.19,13.63Z"/><path class="cls-3" d="M3.94,11.75a0.35,0.35,0,0,1-.27-0.11,0.36,0.36,0,0,1-.11-0.26,0.38,0.38,0,0,1,.11-0.27,0.4,0.4,0,0,1,.53,0,0.39,0.39,0,0,1,.11.27,0.36,0.36,0,0,1-.11.26A0.38,0.38,0,0,1,3.94,11.75Z"/><path class="cls-3" d="M15.56,17.38a0.36,0.36,0,0,1-.27-0.12A0.35,0.35,0,0,1,15.18,17a0.38,0.38,0,0,1,.65-0.26,0.39,0.39,0,0,1,.11.26A0.38,0.38,0,0,1,15.56,17.38Z"/><path class="cls-3" d="M1.31,16.44A0.39,0.39,0,0,1,1,16.33a0.36,0.36,0,0,1-.11-0.26,0.36,0.36,0,0,1,.12-0.27,0.38,0.38,0,0,1,.53,0,0.35,0.35,0,0,1,.11.26,0.36,0.36,0,0,1-.11.26A0.39,0.39,0,0,1,1.31,16.44Z"/><path class="cls-3" d="M9.19,17.94a0.37,0.37,0,0,1-.27-0.11,0.38,0.38,0,0,1-.11-0.26,0.39,0.39,0,0,1,.11-0.27,0.4,0.4,0,0,1,.53,0,0.39,0.39,0,0,1,.11.27A0.38,0.38,0,0,1,9.19,17.94Z"/><path class="cls-3" d="M24.37,10.82A0.38,0.38,0,0,1,24,10.44a0.38,0.38,0,1,1,.75,0,0.36,0.36,0,0,1-.11.26A0.39,0.39,0,0,1,24.37,10.82Z"/><path class="cls-3" d="M30.18,18.32a0.38,0.38,0,0,1-.26-0.11,0.4,0.4,0,0,1-.11-0.27,0.38,0.38,0,0,1,.11-0.27,0.4,0.4,0,0,1,.53,0,0.38,0.38,0,0,1,.11.27,0.36,0.36,0,0,1-.11.26A0.4,0.4,0,0,1,30.18,18.32Z"/><path class="cls-3" d="M40.87,13.63a0.36,0.36,0,0,1-.26-0.11,0.39,0.39,0,0,1,0-.54,0.4,0.4,0,0,1,.53,0,0.35,0.35,0,0,1,.11.26,0.36,0.36,0,0,1-.12.27A0.34,0.34,0,0,1,40.87,13.63Z"/><path class="cls-3" d="M24.25,14.88A0.35,0.35,0,0,1,24,14.76a0.34,0.34,0,0,1-.1-0.26,0.37,0.37,0,0,1,.63-0.26,0.35,0.35,0,0,1,.11.26,0.39,0.39,0,0,1-.11.27A0.36,0.36,0,0,1,24.25,14.88Z"/><path class="cls-3" d="M20.25,16.63a0.38,0.38,0,0,1-.38-0.38A0.39,0.39,0,0,1,20,16a0.38,0.38,0,0,1,.52,0,0.35,0.35,0,0,1,.11.26,0.39,0.39,0,0,1-.11.27A0.36,0.36,0,0,1,20.25,16.63Z"/><path class="cls-3" d="M33.37,16.25A0.38,0.38,0,0,1,33,15.88a0.38,0.38,0,1,1,.75,0,0.38,0.38,0,0,1-.11.26A0.38,0.38,0,0,1,33.37,16.25Z"/><path class="cls-3" d="M37.12,10.44a0.38,0.38,0,0,1-.26-0.11,0.36,0.36,0,0,1-.11-0.26,0.35,0.35,0,0,1,.11-0.27,0.39,0.39,0,0,1,.53,0,0.37,0.37,0,0,1,.11.27,0.38,0.38,0,0,1-.11.26A0.4,0.4,0,0,1,37.12,10.44Z"/><path class="cls-3" d="M38.25,16.25A0.38,0.38,0,0,1,38,16.14a0.36,0.36,0,0,1-.11-0.26,0.38,0.38,0,1,1,.75,0A0.38,0.38,0,0,1,38.25,16.25Z"/><path class="cls-3" d="M43.5,13.07a0.38,0.38,0,1,1,.37-0.38,0.36,0.36,0,0,1-.11.26A0.34,0.34,0,0,1,43.5,13.07Z"/><path class="cls-3" d="M30.18,13.07A0.38,0.38,0,0,1,29.92,13a0.38,0.38,0,1,1,.53,0A0.43,0.43,0,0,1,30.18,13.07Z"/><path class="cls-3" d="M14.81,44.57a0.4,0.4,0,0,1-.27-0.12,0.36,0.36,0,0,1-.11-0.26,0.37,0.37,0,0,1,.12-0.27,0.39,0.39,0,0,1,.53,0,0.36,0.36,0,0,1,.11.26A0.38,0.38,0,0,1,14.81,44.57Z"/><path class="cls-3" d="M3.75,0.13A0.35,0.35,0,0,1,3.48,0,0.35,0.35,0,0,1,3.37-.25,0.36,0.36,0,0,1,3.48-.51,0.39,0.39,0,0,1,4-.51a0.36,0.36,0,0,1,.11.26A0.39,0.39,0,0,1,4,0,0.36,0.36,0,0,1,3.75.13Z"/><path class="cls-3" d="M18.56,0.13A0.36,0.36,0,0,1,18.29,0a0.36,0.36,0,0,1-.11-0.26A0.34,0.34,0,0,1,18.3-.51a0.38,0.38,0,0,1,.53,0,0.4,0.4,0,0,1,.1.26,0.39,0.39,0,0,1-.1.27A0.4,0.4,0,0,1,18.56.13Z"/><path class="cls-3" d="M40.31,0.31A0.35,0.35,0,0,1,40,.2a0.34,0.34,0,0,1-.1-0.26A0.35,0.35,0,0,1,40-.32a0.39,0.39,0,0,1,.54,0,0.37,0.37,0,0,1,.1.27,0.39,0.39,0,0,1-.11.27A0.34,0.34,0,0,1,40.31.31Z"/><path class="cls-3" d="M56.43,72.69a0.35,0.35,0,0,1-.26-0.11,0.34,0.34,0,0,1-.11-0.26A0.37,0.37,0,0,1,56.17,72a0.4,0.4,0,0,1,.53,0,0.37,0.37,0,0,1,.11.27,0.34,0.34,0,0,1-.11.26A0.39,0.39,0,0,1,56.43,72.69Z"/><path class="cls-3" d="M0.19,45.5a0.35,0.35,0,0,1-.27-0.11,0.36,0.36,0,0,1-.11-0.26,0.37,0.37,0,0,1,.11-0.27,0.4,0.4,0,0,1,.53,0,0.39,0.39,0,0,1,.11.27,0.36,0.36,0,0,1-.11.26A0.36,0.36,0,0,1,.19,45.5Z"/><path class="cls-3" d="M0,23a0.38,0.38,0,0,1-.27-0.11,0.38,0.38,0,0,1-.11-0.26,0.38,0.38,0,0,1,.12-0.27,0.38,0.38,0,0,1,.52,0,0.37,0.37,0,0,1,.11.27,0.38,0.38,0,0,1-.11.26A0.36,0.36,0,0,1,0,23Z"/><path class="cls-3" d="M0.19,29a0.35,0.35,0,0,1-.27-0.11,0.36,0.36,0,0,1-.11-0.26,0.33,0.33,0,0,1,.12-0.27,0.38,0.38,0,0,1,.52,0,0.39,0.39,0,0,1,.11.27,0.36,0.36,0,0,1-.11.26A0.36,0.36,0,0,1,.19,29Z"/><path class="cls-3" d="M0.19,39.88a0.36,0.36,0,0,1-.27-0.12A0.35,0.35,0,0,1-.19,39.5a0.36,0.36,0,0,1,.12-0.27,0.39,0.39,0,0,1,.52,0,0.35,0.35,0,0,1,.11.26,0.39,0.39,0,0,1-.11.27A0.36,0.36,0,0,1,.19,39.88Z"/><path class="cls-3" d="M3.75,0.13A0.35,0.35,0,0,1,3.48,0,0.39,0.39,0,0,1,3.37-.25,0.36,0.36,0,0,1,3.48-.51,0.4,0.4,0,0,1,4-.51a0.33,0.33,0,0,1,.11.26A0.39,0.39,0,0,1,4,0,0.36,0.36,0,0,1,3.75.13Z"/><path class="cls-3" d="M18.56,0.13A0.36,0.36,0,0,1,18.29,0a0.39,0.39,0,0,1-.11-0.26A0.34,0.34,0,0,1,18.3-.51a0.38,0.38,0,0,1,.53,0,0.4,0.4,0,0,1,.1.26,0.39,0.39,0,0,1-.11.27A0.36,0.36,0,0,1,18.56.13Z"/><path class="cls-3" d="M40.31,0.32A0.4,0.4,0,0,1,40,.2a0.38,0.38,0,0,1-.1-0.26,0.39,0.39,0,0,1,.11-0.27,0.39,0.39,0,0,1,.53,0,0.38,0.38,0,0,1,.1.26,0.39,0.39,0,0,1-.11.27A0.39,0.39,0,0,1,40.31.32Z"/><path class="cls-3" d="M56.43,0.69A0.35,0.35,0,0,1,56.17.58,0.34,0.34,0,0,1,56.06.32,0.37,0.37,0,0,1,56.17,0a0.4,0.4,0,0,1,.53,0,0.37,0.37,0,0,1,.11.27,0.34,0.34,0,0,1-.11.26A0.39,0.39,0,0,1,56.43.69Z"/></pattern><linearGradient id="Orchid" x1="6.35" y1="15.04" x2="121.65" y2="15.04" gradientUnits="userSpaceOnUse"><stop offset="0" stop-color="#ff7bac"/><stop offset="0.22" stop-color="#ff7bac" stop-opacity="0.76"/><stop offset="0.6" stop-color="#ff7bac" stop-opacity="0.36"/><stop offset="0.87" stop-color="#ff7bac" stop-opacity="0.1"/><stop offset="1" stop-color="#ff7bac" stop-opacity="0"/></linearGradient><linearGradient id="Orchid-2" x1="16" y1="71.67" x2="113" y2="71.67" xlink:href="#Orchid"/></defs><title>PKmojis</title><path class="cls-4" d="M6.35,13.41S11.76,8.9,49,6.28c12.74-.9,24.55-3.49,29.41-2.92,14.9,1.76,29.87,1.23,43.22,5,0,5.5-3.33,15.07-3.33,15.07l-1.44,3.35S111,23,92.43,21.54,54.79,17.66,45,20.06,9.22,25.13,9.22,25.13Z"/><path d="M6.35,13.41A14.8,14.8,0,0,1,9.66,11.9c1.15-.4,2.32-0.75,3.49-1.07,2.35-.62,4.73-1.14,7.13-1.58s4.79-.84,7.2-1.2,4.82-.68,7.24-1c4.83-.6,9.69-1,14.52-1.41s9.63-1,14.44-1.72c2.4-.34,4.81-0.7,7.23-1a39.41,39.41,0,0,1,7.44-.43c2.43,0.25,4.82.5,7.24,0.68s4.84,0.34,7.26.5c4.85,0.31,9.71.59,14.58,1.13q3.65,0.38,7.28,1c2.42,0.41,4.82,1,7.2,1.62a1,1,0,0,1,.7.93,23.83,23.83,0,0,1-.16,2.5c-0.1.82-.23,1.63-0.37,2.43-0.3,1.6-.67,3.17-1.08,4.74s-0.87,3.1-1.38,4.64l-0.19.57-0.1.29,0,0.14,0,0.07-0.05.13L118.73,25l-0.95,2.2a1,1,0,0,1-1.29.51l-0.11-.05,0,0a19.12,19.12,0,0,0-2.9-1.29c-1-.38-2.1-0.71-3.17-1-2.15-.6-4.34-1.06-6.55-1.46s-4.44-.72-6.68-1-4.48-.44-6.75-0.63l-13.57-1.2c-4.52-.39-9-0.77-13.54-1q-3.38-.2-6.77-0.25c-2.25,0-4.51,0-6.73.21a47.15,47.15,0,0,0-6.62,1.11c-2.26.43-4.5,0.81-6.75,1.14-4.5.68-9,1.06-13.52,1.55A124.7,124.7,0,0,1,9.24,25h0c-0.1,0-.2.11-0.22,0Zm0,0L9.43,25.08,9.2,24.92q6.76-.81,13.5-1.74c4.49-.63,9-1.29,13.45-2,2.23-.36,4.46-0.78,6.65-1.24a48.51,48.51,0,0,1,6.77-1.26c2.29-.25,4.58-0.3,6.86-0.34s4.56,0,6.84.14c9.1,0.37,18.14,1.34,27.18,2,2.26,0.18,4.54.34,6.81,0.6s4.54,0.56,6.8.93,4.51,0.86,6.74,1.47c1.11,0.31,2.22.64,3.32,1A20,20,0,0,1,117.42,26l-1.44.43,0.94-2.2,0.47-1.1,0.35-1.05c0.48-1.5.93-3,1.35-4.53s0.79-3,1.08-4.58c0.14-.77.27-1.53,0.36-2.3a22,22,0,0,0,.16-2.27l0.7,0.93c-9.24-2.62-19-3.18-28.64-3.86-2.43-.17-4.85-0.34-7.28-0.54s-4.88-.46-7.27-0.73a38.41,38.41,0,0,0-7.09.31c-2.4.26-4.81,0.58-7.22,0.88C59.05,6,54.2,6.53,49.34,6.85l-7.27.51c-2.42.22-4.84,0.37-7.25,0.62S30,8.44,27.58,8.73s-4.81.61-7.21,1-4.78.83-7.14,1.37C12,11.37,10.87,11.67,9.71,12A14.74,14.74,0,0,0,6.35,13.41Z"/><g id="pattern-2" data-name="pattern"><path class="cls-5" d="M16,24.41V27s12.4,89.61,16.46,93.2,25.39,5.45,29.46,5.45,36.67-7,40.26-6.49,3.61,0.47,3.61.47l0.93-2.64s-3.43-3.59-3.19-7.18-3.79-21.77,2.91-51.68S113,26.8,113,26.8v-1S63,8.47,16,24.41Z"/><path d="M16.18,24.41L16,27h0C19,41,20.45,54.9,22.74,68.82c1.13,7,2.37,13.92,3.59,20.86s2.54,13.88,4.05,20.74c0.38,1.71.81,3.42,1.27,5.1,0.23,0.84.49,1.67,0.77,2.48a11,11,0,0,0,.47,1.14,2.54,2.54,0,0,0,.25.43l0,0h0l0.07,0.05,0.26,0.2a9.91,9.91,0,0,0,2.16,1c0.79,0.29,1.62.54,2.45,0.76,1.67,0.44,3.38.8,5.1,1.11,3.44,0.62,6.92,1.07,10.41,1.43,1.74,0.18,3.49.33,5.24,0.45,0.87,0.06,1.75.11,2.6,0.13h0.6c0.22,0,.44,0,0.63,0,0.38,0,.83-0.1,1.25-0.15,3.45-.5,6.92-1.16,10.38-1.79l10.4-1.94c3.47-.64,6.94-1.28,10.44-1.85,1.75-.28,3.5-0.55,5.3-0.74,0.46,0,.91-0.08,1.43-0.07l0.43,0,0.33,0,0.66,0.09,1.31,0.17,0.65,0.08,0.32,0,0.16,0h0.11a11.8,11.8,0,1,1-1,1.33l-0.46.63,0.45-1.31,0.91-2.64,0.22,1a14.23,14.23,0,0,1-3.15-5.31,7.81,7.81,0,0,1-.31-1.61,6.25,6.25,0,0,1,0-.84v-0.69c0-.48-0.06-0.89-0.08-1.34l-0.13-1.42c-0.39-3.82-.7-7.68-0.79-11.54,0-1,0-1.93,0-2.9s0-1.93,0-2.9c0-1.93.11-3.86,0.21-5.79s0.27-3.85.45-5.77,0.39-3.84.69-5.75L103.26,69c0.15-1,.33-1.9.49-2.85l0.5-2.85,0.59-2.83c0.77-3.78,1.67-7.5,2.48-11.25S109,41.71,109.73,38l1.13-5.63,0.53-2.81,0.23-1.4,0.1-.69,0-.33,0.13-.15,0.12-.06V27h-0.23l0,0.06,0-.22v-1l0.54,0.75c-1.89-.65-3.84-1.23-5.79-1.78s-3.91-1.06-5.88-1.53q-5.91-1.43-11.92-2.47c-2-.34-4-0.66-6-0.94s-4-.54-6-0.74-4-.39-6.06-0.55-4.05-.26-6.08-0.32-4.06-.12-6.09-0.13h-3l-3,.09c-2,.05-4.06.2-6.08,0.34s-4,.34-6.06.61-4,.56-6,0.86-4,.7-6,1.17l-3,.67-3.06.78C20.17,23.16,18.14,23.84,16.18,24.41Zm0,0c1.94-.62,3.94-1.35,5.9-1.88l3-.85,3-.74c2-.51,4-0.87,6-1.29s4-.73,6-1,4.05-.52,6.08-0.73,4.07-.37,6.11-0.46l3.06-.15,3.06-.07c2,0,4.08,0,6.13,0s4.08,0.14,6.12.25,4.08,0.27,6.11.48,4.06,0.42,6.09.67,4,0.55,6.07.87q6.05,1,12,2.34,3,0.68,6,1.47c2,0.53,3.94,1.09,5.91,1.74l0.53,0.18V26.8l0-.19c0,0.05-.17.11-0.17,0.17l-0.19,0V26.9L113.19,27l0.08,0.21v0.38l-0.07.73L113,29.79l-0.49,2.85c-0.35,1.89-.72,3.78-1.11,5.66-0.76,3.76-1.56,7.52-2.37,11.27s-1.68,7.5-2.43,11.24L106,63.61l-0.49,2.82c-0.16.94-.33,1.88-0.47,2.82l-0.39,2.83c-0.29,1.89-.45,3.79-0.66,5.68s-0.32,3.8-.42,5.7-0.18,3.81-.18,5.71c0,1,0,1.9,0,2.86s0,1.9.06,2.85c0.11,3.81.43,7.59,0.83,11.41l0.14,1.44c0,0.51.09,1.06,0.09,1.53V110a4.4,4.4,0,0,0,0,.59,5.82,5.82,0,0,0,.23,1.21,12.37,12.37,0,0,0,2.66,4.51l0.41,0.46-0.19.55L106.74,120v-0.68c-2,2.66-.61.73-1.06,1.33h-0.14l-0.17,0-0.33,0-0.66-.09-1.31-.18-0.66-.09-0.32,0h-0.23c-0.36,0-.79,0-1.21.06-1.7.16-3.44,0.43-5.18,0.7-3.47.55-6.94,1.17-10.4,1.8l-10.41,1.9c-3.48.62-6.94,1.27-10.47,1.76-0.45.06-.87,0.12-1.37,0.16-0.25,0-.47,0-0.69,0H61.42c-0.9,0-1.79-.08-2.68-0.15-1.77-.13-3.54-0.29-5.3-0.48-3.52-.38-7-0.85-10.54-1.49-1.75-.33-3.5-0.69-5.23-1.17-0.87-.24-1.73-0.51-2.59-0.83a11,11,0,0,1-2.57-1.3l-0.26-.2-0.07-.05-0.08-.07-0.05-.05a1.56,1.56,0,0,1-.18-0.21,4,4,0,0,1-.42-0.71,12.45,12.45,0,0,1-.52-1.32c-0.29-.87-0.53-1.73-0.76-2.59-0.45-1.73-.83-3.46-1.2-5.19-1.44-6.93-2.62-13.89-3.76-20.85S22.84,75.95,21.82,69C19.83,55,18,41,16,27h0Z"/></g><g id="color_lid" data-name="color lid"><path class="cls-6" d="M6.35,13.41S11.76,8.9,49,6.28c12.74-.9,24.55-3.49,29.41-2.92,14.9,1.76,29.87,1.23,43.22,5,0,5.5-3.33,15.07-3.33,15.07l-1.44,3.35S111,23,92.43,21.54,54.79,17.66,45,20.06,9.22,25.13,9.22,25.13Z"/><path d="M6.35,13.41A14.8,14.8,0,0,1,9.66,11.9c1.15-.4,2.32-0.75,3.49-1.07,2.35-.62,4.73-1.14,7.13-1.58s4.79-.84,7.2-1.2,4.82-.68,7.24-1c4.83-.6,9.69-1,14.52-1.41s9.63-1,14.44-1.72c2.4-.34,4.81-0.7,7.23-1a39.41,39.41,0,0,1,7.44-.43c2.43,0.25,4.82.5,7.24,0.68s4.84,0.34,7.26.5c4.85,0.31,9.71.59,14.58,1.13q3.65,0.38,7.28,1c2.42,0.41,4.82,1,7.2,1.62a1,1,0,0,1,.7.93,23.83,23.83,0,0,1-.16,2.5c-0.1.82-.23,1.63-0.37,2.43-0.3,1.6-.67,3.17-1.08,4.74s-0.87,3.1-1.38,4.64l-0.19.57-0.1.29,0,0.14,0,0.07-0.05.13L118.73,25l-0.95,2.2a1,1,0,0,1-1.29.51l-0.11-.05,0,0a19.12,19.12,0,0,0-2.9-1.29c-1-.38-2.1-0.71-3.17-1-2.15-.6-4.34-1.06-6.55-1.46s-4.44-.72-6.68-1-4.48-.44-6.75-0.63l-13.57-1.2c-4.52-.39-9-0.77-13.54-1q-3.38-.2-6.77-0.25c-2.25,0-4.51,0-6.73.21a47.15,47.15,0,0,0-6.62,1.11c-2.26.43-4.5,0.81-6.75,1.14-4.5.68-9,1.06-13.52,1.55A124.7,124.7,0,0,1,9.24,25h0c-0.1,0-.2.11-0.22,0Zm0,0L9.43,25.08,9.2,24.92q6.76-.81,13.5-1.74c4.49-.63,9-1.29,13.45-2,2.23-.36,4.46-0.78,6.65-1.24a48.51,48.51,0,0,1,6.77-1.26c2.29-.25,4.58-0.3,6.86-0.34s4.56,0,6.84.14c9.1,0.37,18.14,1.34,27.18,2,2.26,0.18,4.54.34,6.81,0.6s4.54,0.56,6.8.93,4.51,0.86,6.74,1.47c1.11,0.31,2.22.64,3.32,1A20,20,0,0,1,117.42,26l-1.44.43,0.94-2.2,0.47-1.1,0.35-1.05c0.48-1.5.93-3,1.35-4.53s0.79-3,1.08-4.58c0.14-.77.27-1.53,0.36-2.3a22,22,0,0,0,.16-2.27l0.7,0.93c-9.24-2.62-19-3.18-28.64-3.86-2.43-.17-4.85-0.34-7.28-0.54s-4.88-.46-7.27-0.73a38.41,38.41,0,0,0-7.09.31c-2.4.26-4.81,0.58-7.22,0.88C59.05,6,54.2,6.53,49.34,6.85l-7.27.51c-2.42.22-4.84,0.37-7.25,0.62S30,8.44,27.58,8.73s-4.81.61-7.21,1-4.78.83-7.14,1.37C12,11.37,10.87,11.67,9.71,12A14.74,14.74,0,0,0,6.35,13.41Z"/></g><g id="color_cup" data-name="color cup"><path class="cls-7" d="M16,24.41V27s12.4,89.61,16.46,93.2,25.39,5.45,29.46,5.45,36.67-7,40.26-6.49,3.61,0.47,3.61.47l0.93-2.64s-3.43-3.59-3.19-7.18-3.79-21.77,2.91-51.68S113,26.8,113,26.8v-1S63,8.47,16,24.41Z"/><path d="M16.18,24.41L16,27h0C19,41,20.45,54.9,22.74,68.82c1.13,7,2.37,13.92,3.59,20.86s2.54,13.88,4.05,20.74c0.38,1.71.81,3.42,1.27,5.1,0.23,0.84.49,1.67,0.77,2.48a11,11,0,0,0,.47,1.14,2.54,2.54,0,0,0,.25.43l0,0h0l0.07,0.05,0.26,0.2a9.91,9.91,0,0,0,2.16,1c0.79,0.29,1.62.54,2.45,0.76,1.67,0.44,3.38.8,5.1,1.11,3.44,0.62,6.92,1.07,10.41,1.43,1.74,0.18,3.49.33,5.24,0.45,0.87,0.06,1.75.11,2.6,0.13h0.6c0.22,0,.44,0,0.63,0,0.38,0,.83-0.1,1.25-0.15,3.45-.5,6.92-1.16,10.38-1.79l10.4-1.94c3.47-.64,6.94-1.28,10.44-1.85,1.75-.28,3.5-0.55,5.3-0.74,0.46,0,.91-0.08,1.43-0.07l0.43,0,0.33,0,0.66,0.09,1.31,0.17,0.65,0.08,0.32,0,0.16,0h0.11a11.8,11.8,0,1,1-1,1.33l-0.46.63,0.45-1.31,0.91-2.64,0.22,1a14.23,14.23,0,0,1-3.15-5.31,7.81,7.81,0,0,1-.31-1.61,6.25,6.25,0,0,1,0-.84v-0.69c0-.48-0.06-0.89-0.08-1.34l-0.13-1.42c-0.39-3.82-.7-7.68-0.79-11.54,0-1,0-1.93,0-2.9s0-1.93,0-2.9c0-1.93.11-3.86,0.21-5.79s0.27-3.85.45-5.77,0.39-3.84.69-5.75L103.26,69c0.15-1,.33-1.9.49-2.85l0.5-2.85,0.59-2.83c0.77-3.78,1.67-7.5,2.48-11.25S109,41.71,109.73,38l1.13-5.63,0.53-2.81,0.23-1.4,0.1-.69,0-.33,0.13-.15,0.12-.06V27h-0.23l0,0.06,0-.22v-1l0.54,0.75c-1.89-.65-3.84-1.23-5.79-1.78s-3.91-1.06-5.88-1.53q-5.91-1.43-11.92-2.47c-2-.34-4-0.66-6-0.94s-4-.54-6-0.74-4-.39-6.06-0.55-4.05-.26-6.08-0.32-4.06-.12-6.09-0.13h-3l-3,.09c-2,.05-4.06.2-6.08,0.34s-4,.34-6.06.61-4,.56-6,0.86-4,.7-6,1.17l-3,.67-3.06.78C20.17,23.16,18.14,23.84,16.18,24.41Zm0,0c1.94-.62,3.94-1.35,5.9-1.88l3-.85,3-.74c2-.51,4-0.87,6-1.29s4-.73,6-1,4.05-.52,6.08-0.73,4.07-.37,6.11-0.46l3.06-.15,3.06-.07c2,0,4.08,0,6.13,0s4.08,0.14,6.12.25,4.08,0.27,6.11.48,4.06,0.42,6.09.67,4,0.55,6.07.87q6.05,1,12,2.34,3,0.68,6,1.47c2,0.53,3.94,1.09,5.91,1.74l0.53,0.18V26.8l0-.19c0,0.05-.17.11-0.17,0.17l-0.19,0V26.9L113.19,27l0.08,0.21v0.38l-0.07.73L113,29.79l-0.49,2.85c-0.35,1.89-.72,3.78-1.11,5.66-0.76,3.76-1.56,7.52-2.37,11.27s-1.68,7.5-2.43,11.24L106,63.61l-0.49,2.82c-0.16.94-.33,1.88-0.47,2.82l-0.39,2.83c-0.29,1.89-.45,3.79-0.66,5.68s-0.32,3.8-.42,5.7-0.18,3.81-.18,5.71c0,1,0,1.9,0,2.86s0,1.9.06,2.85c0.11,3.81.43,7.59,0.83,11.41l0.14,1.44c0,0.51.09,1.06,0.09,1.53V110a4.4,4.4,0,0,0,0,.59,5.82,5.82,0,0,0,.23,1.21,12.37,12.37,0,0,0,2.66,4.51l0.41,0.46-0.19.55L106.74,120v-0.68c-2,2.66-.61.73-1.06,1.33h-0.14l-0.17,0-0.33,0-0.66-.09-1.31-.18-0.66-.09-0.32,0h-0.23c-0.36,0-.79,0-1.21.06-1.7.16-3.44,0.43-5.18,0.7-3.47.55-6.94,1.17-10.4,1.8l-10.41,1.9c-3.48.62-6.94,1.27-10.47,1.76-0.45.06-.87,0.12-1.37,0.16-0.25,0-.47,0-0.69,0H61.42c-0.9,0-1.79-.08-2.68-0.15-1.77-.13-3.54-0.29-5.3-0.48-3.52-.38-7-0.85-10.54-1.49-1.75-.33-3.5-0.69-5.23-1.17-0.87-.24-1.73-0.51-2.59-0.83a11,11,0,0,1-2.57-1.3l-0.26-.2-0.07-.05-0.08-.07-0.05-.05a1.56,1.56,0,0,1-.18-0.21,4,4,0,0,1-.42-0.71,12.45,12.45,0,0,1-.52-1.32c-0.29-.87-0.53-1.73-0.76-2.59-0.45-1.73-.83-3.46-1.2-5.19-1.44-6.93-2.62-13.89-3.76-20.85S22.84,75.95,21.82,69C19.83,55,18,41,16,27h0Z"/></g><path d="M57.55,58l2,0.75-0.11.16a17.52,17.52,0,0,1-1.94-2.21,21.38,21.38,0,0,1-1.61-2.47,17.69,17.69,0,0,1-1.24-2.7c-0.17-.46-0.31-1-0.45-1.41l-0.41-1.4c-1.07-3.73-2.14-7.47-3.18-11.21a0.52,0.52,0,0,1,0-.1v-0.1A3.71,3.71,0,0,0,50,35.7a2.61,2.61,0,0,0-1.21-1.05A4.55,4.55,0,0,0,47,34.37a21.1,21.1,0,0,1-2.23-.1,8.77,8.77,0,0,0-.94-0.07,0.24,0.24,0,0,0-.14,0,1.27,1.27,0,0,0-.23.19,13.42,13.42,0,0,0-1.29,1.49,5.55,5.55,0,0,0-.8,1.63,8.59,8.59,0,0,0-.31,1.9c0,0.67,0,1.38,0,2.09,0,0.34,0,.74,0,1s0,0.71.06,1c0.11,1.37.3,2.8,0.49,4.2,0.38,2.82.84,5.65,1.33,8.47v0.1c0,0.78,0,1.5,0,2.26a18.67,18.67,0,0,1-.22,2.25q-0.09.56-.23,1.13a8.54,8.54,0,0,1-.37,1.14,6.4,6.4,0,0,1-.58,1.13l-0.42.54c-0.18.16-.36,0.32-0.55,0.48l-0.43.3L40,65.76l-0.06,0a0.58,0.58,0,0,0,.11-0.14l0-.05,0,0a0.86,0.86,0,0,0,0-.56,0.89,0.89,0,0,0-.53-0.6,0.87,0.87,0,0,0-.28-0.06H39.26a0.84,0.84,0,0,0-.24,0l0.34-.19,0.45-.26c0.6-.36,1.2-0.75,1.79-1.14q1.79-1.16,3.53-2.4h0a0.74,0.74,0,0,1,.32-0.13c4.1-.57,8.2-1.1,12.31-1.62l1.54-.18c0.49-.07,1-0.16,1.5-0.27a29.41,29.41,0,0,0,3-.84A60.4,60.4,0,0,0,69.51,55,44.05,44.05,0,0,1,64,57.84a30,30,0,0,1-3,1.07c-0.52.16-1,.27-1.54,0.39l-1.53.29c-4.07.75-8.15,1.49-12.23,2.19L46,61.64Q44.32,63,42.55,64.2c-0.6.41-1.2,0.82-1.82,1.21l-0.47.3a4.73,4.73,0,0,1-.6.33,1,1,0,0,1-.3.07h-0.1A0.82,0.82,0,0,1,39,66a0.91,0.91,0,0,1-.53-0.61,0.89,0.89,0,0,1,0-.57l0-.05,0-.07a1,1,0,0,1,.2-0.24l0.15-.13,0.24-.18,0.44-.33,0.26-.24,0.23-.32a4.64,4.64,0,0,0,.38-0.8,6.73,6.73,0,0,0,.27-0.91q0.11-.48.18-1c0.09-.67.14-1.35,0.16-2s0-1.39,0-2v0.1c-0.52-2.84-1-5.67-1.41-8.54-0.19-1.44-.37-2.86-0.48-4.35,0-.39,0-0.76-0.05-1.11s0-.73,0-1.11c0-.72,0-1.46.07-2.22A10.48,10.48,0,0,1,39.59,37a7,7,0,0,1,1.12-2.19,14.8,14.8,0,0,1,1.56-1.73,2.92,2.92,0,0,1,.63-0.45,2.11,2.11,0,0,1,.9-0.23,9.05,9.05,0,0,1,1.21.1,19.11,19.11,0,0,0,2.07.14,6.23,6.23,0,0,1,2.44.46,4.2,4.2,0,0,1,1.93,1.78,5.21,5.21,0,0,1,.66,2.46l0-.19c0.92,3.77,1.8,7.56,2.67,11.34l0.32,1.42c0.12,0.49.2,0.93,0.34,1.39a17,17,0,0,0,1,2.67,21.68,21.68,0,0,0,3.12,4.83h0a0.1,0.1,0,0,1-.12.15Z"/><path d="M69.51,63.65a28.61,28.61,0,0,1,2.33-2.09c0.81-.66,1.65-1.28,2.51-1.88S76.1,58.53,77,58l1.42-.72a16,16,0,0,1,1.49-.63,12.62,12.62,0,0,1,1.58-.49,9.21,9.21,0,0,1,1.71-.27L84.17,56c0.31,0,.52.09,0.79,0.13,0.51,0.1,1,.21,1.56.33,1,0.24,2,.55,3,0.88s2,0.73,2.94,1.18l-0.3,0c0.45,0,.94,0,1.42-0.07s0.95-.11,1.42-0.2c0.23,0,.47-0.1.69-0.17a4.6,4.6,0,0,0,.67-0.23A3.84,3.84,0,0,0,97,57.43l0.27-.23,0.22-.29-0.13.36-0.21.33a3.06,3.06,0,0,1-.56.55,5.83,5.83,0,0,1-1.35.78,10.71,10.71,0,0,1-1.46.51,15.39,15.39,0,0,1-1.52.34,0.42,0.42,0,0,1-.19,0l-0.11,0C91,59.43,90,59.18,89.07,58.95s-2-.45-3-0.64c-0.5-.1-1-0.19-1.48-0.27-0.24,0-.54-0.09-0.74-0.11l-0.6,0A7.85,7.85,0,0,0,82,58.1a10.74,10.74,0,0,0-1.38.39c-0.92.31-1.86,0.67-2.78,1.08s-1.85.83-2.75,1.3C73.2,61.75,71.38,62.72,69.51,63.65Z"/><path d="M93.44,56.9a5.07,5.07,0,0,1-.55.34,2.34,2.34,0,0,1-.75.28,0.62,0.62,0,0,1-.29,0,0.41,0.41,0,0,1-.25-0.27,0.85,0.85,0,0,1,0-.34V56.61c0-.73-0.1-1.69-0.18-2.76l-0.28-3.63C91,48.89,91,47.44,90.93,45.9c0-.76,0-1.62,0-2.32a15.53,15.53,0,0,0-.31-2.28,22.34,22.34,0,0,0-1.55-4.65,8.71,8.71,0,0,0-1.22-2,1.86,1.86,0,0,0-.42-0.36,3.5,3.5,0,0,0-1,.11c-1,.2-1.85,2-2.34,3.44l-1.47,4.89c-1,3.19-1.94,6.16-2.93,8.66a29.78,29.78,0,0,1-2.88,5.83,5.62,5.62,0,0,1-1.24,1.35,2.06,2.06,0,0,1-.57.3,2,2,0,0,0,.5-0.38,6.11,6.11,0,0,0,1-1.48,39.2,39.2,0,0,0,2.14-6c0.74-2.54,1.5-5.54,2.32-8.76,0.43-1.61.8-3.28,1.32-5a12.16,12.16,0,0,1,1.11-2.63,5.54,5.54,0,0,1,1-1.28,3.76,3.76,0,0,1,1.55-.88,5.43,5.43,0,0,1,1.65-.16,2.11,2.11,0,0,1,1.11.43,4,4,0,0,1,.65.6,10.46,10.46,0,0,1,1.5,2.5A21.59,21.59,0,0,1,92.35,41a14.26,14.26,0,0,1,.23,2.59c0,0.9-.13,1.61-0.16,2.37-0.07,1.5-.11,2.94-0.14,4.27l-0.1,3.64c0,1.09-.08,2-0.19,2.84-0.08.45-.18,0.61,0.14,0.62a2.2,2.2,0,0,0,.72-0.15A5.06,5.06,0,0,0,93.44,56.9Z"/><path d="M45.35,92.6s0.86-.25,2.14-0.59l2.19-.56a4,4,0,0,0,.56-0.18c0.21-.08.35-0.19,0.53-0.28,0.37-.21.74-0.45,1.11-0.68,1.48-.94,3-1.91,4.11-2.59s1.93-1.11,1.93-1.11-0.65.61-1.68,1.46a44.78,44.78,0,0,1-4,2.87c-0.38.24-.76,0.47-1.15,0.68a3.8,3.8,0,0,1-1.29.46c-0.83.17-1.6,0.27-2.26,0.34C46.24,92.57,45.35,92.6,45.35,92.6Z"/><path d="M50.85,91.76l1.92,0.46c1.22,0.29,3,.71,5.05,1.15,1,0.21,2.18.42,3.36,0.57a10.62,10.62,0,0,0,1.76.09c0.14,0,.29,0,0.41,0l0.34-.07c0.26-.07.62-0.2,0.9-0.3a19.77,19.77,0,0,1,2.05-.7,3.08,3.08,0,0,1,1.46,0,4.43,4.43,0,0,1,.62.21c0.11,0,.15.06,0.32,0.14l0.23,0.12c0.73,0.43,1.28.82,1.88,1.23l1.76,1.2A25.6,25.6,0,0,0,76.45,98a5.87,5.87,0,0,0,1.65.53,1.74,1.74,0,0,0,.29,0l0.09,0h0l0.11,0,1-.43c1.24-.54,2.41-1,3.47-1.57a18,18,0,0,0,2.81-1.79,12.48,12.48,0,0,0,2-2l1.4-1.78,0.29-.35,0.08-.09,0.05,0s0,0,.1,0,0.12,0.18.13,0.15v0a0.34,0.34,0,0,1,0,.07l-0.11.17-0.36.51-0.31.42,0.21-.47,0.25-.57,0.06-.17s0,0,0,0v0s-0.05.07,0.12,0.14,0.08,0,.09,0h0l0,0.08-0.22.38c-0.31.55-.64,1.22-1.1,2a11.21,11.21,0,0,1-1.87,2.4,15.43,15.43,0,0,1-2.84,2.22,35.4,35.4,0,0,1-3.47,1.87l-0.88.45-0.12.06-0.2.07-0.4.13a3.28,3.28,0,0,1-.74.06,6.5,6.5,0,0,1-2.35-.63,26.91,26.91,0,0,1-3.85-2.21L70,96.29c-0.57-.4-1.18-0.84-1.66-1.14L68.15,95,68,94.95l-0.37-.14a1.16,1.16,0,0,0-.61,0c-0.49.08-1.2,0.35-1.84,0.54-0.35.1-.63,0.2-1,0.28l-0.63.1c-0.2,0-.37,0-0.56,0a12.1,12.1,0,0,1-2-.27,29.59,29.59,0,0,1-3.42-.93c-2.07-.68-3.73-1.38-4.89-1.88S50.85,91.76,50.85,91.76Z"/><ellipse class="cls-8" cx="53.18" cy="63.91" rx="3.14" ry="4.53"/><ellipse class="cls-8" cx="81.49" cy="62.74" rx="2.74" ry="4.35"/></svg>